<?xml version="1.0" encoding="UTF-8" standalone="no"?>
<svg
   xmlns:dc="http://purl.org/dc/elements/1.1/"
   xmlns:cc="http://creativecommons.org/ns#"
   xmlns:rdf="http://www.w3.org/1999/02/22-rdf-syntax-ns#"
   xmlns:svg="http://www.w3.org/2000/svg"
   xmlns="http://www.w3.org/2000/svg"
   xmlns:sodipodi="http://sodipodi.sourceforge.net/DTD/sodipodi-0.dtd"
   xmlns:inkscape="http://www.inkscape.org/namespaces/inkscape"
   x="0"
   y="0"
   width="277"
   height="118"
   id="svg66071"
   version="1.1"
   inkscape:version="0.48.2 r9819"
   sodipodi:docname="Wrapped OpDataSelection.svg">
  <metadata
     id="metadata66199">
    <rdf:RDF>
      <cc:Work
         rdf:about="">
        <dc:format>image/svg+xml</dc:format>
        <dc:type
           rdf:resource="http://purl.org/dc/dcmitype/StillImage" />
        <dc:title></dc:title>
      </cc:Work>
    </rdf:RDF>
  </metadata>
  <sodipodi:namedview
     pagecolor="#ffffff"
     bordercolor="#666666"
     borderopacity="1"
     objecttolerance="10"
     gridtolerance="10"
     guidetolerance="10"
     inkscape:pageopacity="0"
     inkscape:pageshadow="2"
     inkscape:window-width="1680"
     inkscape:window-height="1002"
     id="namedview66197"
     showgrid="false"
     inkscape:zoom="3.115465"
     inkscape:cx="146.82913"
     inkscape:cy="68.573833"
     inkscape:window-x="0"
     inkscape:window-y="0"
     inkscape:window-maximized="1"
     inkscape:current-layer="svg66071"
     fit-margin-top="0"
     fit-margin-left="0"
     fit-margin-right="0"
     fit-margin-bottom="0" />
  <defs
     id="defs31674">
    <marker
       inkscape:stockid="Arrow2Lstart"
       orient="auto"
       refY="0"
       refX="0"
       id="Arrow2Lstart"
       style="overflow:visible">
      <path
         id="path26427"
         style="font-size:12px;fill-rule:evenodd;stroke-width:0.625;stroke-linejoin:round"
         d="M 8.7185878,4.0337352 -2.2072895,0.01601326 8.7185884,-4.0017078 c -1.7454984,2.3720609 -1.7354408,5.6174519 -6e-7,8.035443 z"
         transform="matrix(1.1,0,0,1.1,1.1,0)"
         inkscape:connector-curvature="0" />
    </marker>
    <marker
       inkscape:stockid="Arrow1Mend"
       orient="auto"
       refY="0"
       refX="0"
       id="Arrow1Mend"
       style="overflow:visible">
      <path
         id="path26418"
         d="M 0,0 5,-5 -12.5,0 5,5 0,0 z"
         style="fill-rule:evenodd;stroke:#000000;stroke-width:1pt;marker-start:none"
         transform="matrix(-0.4,0,0,-0.4,-4,0)"
         inkscape:connector-curvature="0" />
    </marker>
    <marker
       inkscape:stockid="Arrow1Lend"
       orient="auto"
       refY="0"
       refX="0"
       id="Arrow1Lend"
       style="overflow:visible">
      <path
         id="path26412"
         d="M 0,0 5,-5 -12.5,0 5,5 0,0 z"
         style="fill-rule:evenodd;stroke:#000000;stroke-width:1pt;marker-start:none"
         transform="matrix(-0.8,0,0,-0.8,-10,0)"
         inkscape:connector-curvature="0" />
    </marker>
  </defs>
  <rect
     x="10.499996"
     y="1"
     width="256"
     height="116"
     style="fill-opacity:0;stroke:#000000;stroke-width:2"
     rx="13"
     ry="13"
     inkscape:connector-avoid="false"
     id="rect66084" />
  <path
     d="m 10.5,16.000002 256.00003,0 z"
     id="path66086"
     inkscape:connector-curvature="0"
     style="stroke:#000000;stroke-width:1" />
  <text
     y="14.000003"
     x="138.50002"
     id="text66088"
     style="text-anchor:middle">OpDataSelection</text>
  <circle
     cx="5"
     cy="32.5"
     r="5"
     id="0x114844e50"
     class="ProjectFile"
     d="m 10,32.5 c 0,2.761424 -2.2385763,5 -5,5 -2.7614237,0 -5,-2.238576 -5,-5 0,-2.761424 2.2385763,-5 5,-5 2.7614237,0 5,2.238576 5,5 z"
     sodipodi:cx="5"
     sodipodi:cy="32.5"
     sodipodi:rx="5"
     sodipodi:ry="5"
     style="fill:#ffffff;stroke:#000000"
     transform="translate(0.5,1.0000017)" />
  <text
     y="33.5"
     x="15.499996"
     id="text66091"
     style="text-anchor:start">ProjectFile</text>
  <circle
     cx="5"
     cy="47.5"
     r="5"
     id="0x11484a250"
     class="ProjectDataGroup"
     d="m 10,47.5 c 0,2.761424 -2.2385763,5 -5,5 -2.7614237,0 -5,-2.238576 -5,-5 0,-2.761424 2.2385763,-5 5,-5 2.7614237,0 5,2.238576 5,5 z"
     sodipodi:cx="5"
     sodipodi:cy="47.5"
     sodipodi:rx="5"
     sodipodi:ry="5"
     style="fill:#ffffff;stroke:#000000"
     transform="translate(0.5,1.0000017)" />
  <text
     y="48.5"
     x="15.499996"
     id="text66094"
     style="text-anchor:start">ProjectDataGroup</text>
  <circle
     cx="5"
     cy="62.5"
     r="5"
     id="0x11484a610"
     class="WorkingDirectory"
     d="m 10,62.5 c 0,2.761424 -2.2385763,5 -5,5 -2.7614237,0 -5,-2.238576 -5,-5 0,-2.761424 2.2385763,-5 5,-5 2.7614237,0 5,2.238576 5,5 z"
     sodipodi:cx="5"
     sodipodi:cy="62.5"
     sodipodi:rx="5"
     sodipodi:ry="5"
     style="fill:#ffffff;stroke:#000000"
     transform="translate(0.5,1.0000017)" />
  <text
     y="63.499996"
     x="15.499996"
     id="text66097"
     style="text-anchor:start">WorkingDirectory</text>
  <circle
     cx="5"
     cy="77.5"
     r="5"
     id="0x114844450"
     class="Dataset"
     d="m 10,77.5 c 0,2.761424 -2.2385763,5 -5,5 -2.7614237,0 -5,-2.238576 -5,-5 0,-2.761424 2.2385763,-5 5,-5 2.7614237,0 5,2.238576 5,5 z"
     sodipodi:cx="5"
     sodipodi:cy="77.5"
     sodipodi:rx="5"
     sodipodi:ry="5"
     style="fill:#ffffff;stroke:#000000"
     transform="translate(0.5,1.0000017)" />
  <text
     y="78.499992"
     x="15.499996"
     id="text66100"
     style="text-anchor:start">Dataset</text>
  <circle
     cx="271"
     cy="38.5"
     r="5"
     id="0x11484acd0"
     class="ImageName"
     d="m 276,38.5 c 0,2.761424 -2.23858,5 -5,5 -2.76142,0 -5,-2.238576 -5,-5 0,-2.761424 2.23858,-5 5,-5 2.76142,0 5,2.238576 5,5 z"
     sodipodi:cx="271"
     sodipodi:cy="38.5"
     sodipodi:rx="5"
     sodipodi:ry="5"
     style="fill:#ffffff;stroke:#000000"
     transform="translate(0.5,1.0000017)" />
  <text
     y="39.5"
     x="261.5"
     id="text66103"
     style="text-anchor:end">ImageName</text>
  <circle
     cx="271"
     cy="59.5"
     r="5"
     id="0x11484e0d0"
     class="Image"
     d="m 276,59.5 c 0,2.761424 -2.23858,5 -5,5 -2.76142,0 -5,-2.238576 -5,-5 0,-2.761424 2.23858,-5 5,-5 2.76142,0 5,2.238576 5,5 z"
     sodipodi:cx="271"
     sodipodi:cy="59.5"
     sodipodi:rx="5"
     sodipodi:ry="5"
     style="fill:#ffffff;stroke:#000000"
     transform="translate(0.5,1.0000017)" />
  <text
     y="60.499996"
     x="261.5"
     id="text66106"
     style="text-anchor:end">Image</text>
  <circle
     cx="271"
     cy="80.5"
     r="5"
     id="0x11484e490"
     class="AllowLabels"
     d="m 276,80.5 c 0,2.761424 -2.23858,5 -5,5 -2.76142,0 -5,-2.238576 -5,-5 0,-2.761424 2.23858,-5 5,-5 2.76142,0 5,2.238576 5,5 z"
     sodipodi:cx="271"
     sodipodi:cy="80.5"
     sodipodi:rx="5"
     sodipodi:ry="5"
     style="fill:#ffffff;stroke:#000000"
     transform="translate(0.5,1.0000017)" />
  <text
     y="81.499992"
     x="261.5"
     id="text66109"
     style="text-anchor:end">AllowLabels</text>
  <flowRoot
     xml:space="preserve"
     id="flowRoot67440"
     style="font-size:24px;font-style:normal;font-variant:normal;font-weight:normal;font-stretch:normal;text-align:start;line-height:125%;letter-spacing:0px;word-spacing:0px;writing-mode:lr-tb;text-anchor:start;fill:#000000;fill-opacity:1;stroke:none;font-family:Sans;-inkscape-font-specification:Sans"
     transform="translate(-41.317169,-10.715367)"><flowRegion
       id="flowRegion67442"><rect
         id="rect67444"
         width="305.08578"
         height="181.05559"
         x="-7.8409901"
         y="-30.81637" /></flowRegion><flowPara
       id="flowPara67446" /></flowRoot></svg>
