<?xml version="1.0" encoding="UTF-8" standalone="no"?>
<svg
   xmlns:dc="http://purl.org/dc/elements/1.1/"
   xmlns:cc="http://creativecommons.org/ns#"
   xmlns:rdf="http://www.w3.org/1999/02/22-rdf-syntax-ns#"
   xmlns:svg="http://www.w3.org/2000/svg"
   xmlns="http://www.w3.org/2000/svg"
   xmlns:sodipodi="http://sodipodi.sourceforge.net/DTD/sodipodi-0.dtd"
   xmlns:inkscape="http://www.inkscape.org/namespaces/inkscape"
   x="0"
   y="0"
   width="209"
   height="104"
   id="svg30623"
   version="1.1"
   inkscape:version="0.48.2 r9819"
   sodipodi:docname="opMultiThreshold.svg">
  <metadata
     id="metadata30661">
    <rdf:RDF>
      <cc:Work
         rdf:about="">
        <dc:format>image/svg+xml</dc:format>
        <dc:type
           rdf:resource="http://purl.org/dc/dcmitype/StillImage" />
        <dc:title />
      </cc:Work>
    </rdf:RDF>
  </metadata>
  <sodipodi:namedview
     pagecolor="#ffffff"
     bordercolor="#666666"
     borderopacity="1"
     objecttolerance="10"
     gridtolerance="10"
     guidetolerance="10"
     inkscape:pageopacity="0"
     inkscape:pageshadow="2"
     inkscape:window-width="640"
     inkscape:window-height="480"
     id="namedview30659"
     showgrid="false"
     fit-margin-top="0"
     fit-margin-left="0"
     fit-margin-right="0"
     fit-margin-bottom="0"
     inkscape:zoom="1.6199637"
     inkscape:cx="133.81243"
     inkscape:cy="36.836299"
     inkscape:window-x="0"
     inkscape:window-y="0"
     inkscape:window-maximized="0"
     inkscape:current-layer="g30632" />
  <defs
     id="defs31674">
    <marker
       inkscape:stockid="Arrow2Lstart"
       orient="auto"
       refY="0"
       refX="0"
       id="Arrow2Lstart"
       style="overflow:visible">
      <path
         id="path26427"
         style="font-size:12px;fill-rule:evenodd;stroke-width:0.625;stroke-linejoin:round"
         d="M 8.7185878,4.0337352 -2.2072895,0.01601326 8.7185884,-4.0017078 c -1.7454984,2.3720609 -1.7354408,5.6174519 -6e-7,8.035443 z"
         transform="matrix(1.1,0,0,1.1,1.1,0)"
         inkscape:connector-curvature="0" />
    </marker>
    <marker
       inkscape:stockid="Arrow1Mend"
       orient="auto"
       refY="0"
       refX="0"
       id="Arrow1Mend"
       style="overflow:visible">
      <path
         id="path26418"
         d="M 0,0 5,-5 -12.5,0 5,5 0,0 z"
         style="fill-rule:evenodd;stroke:#000000;stroke-width:1pt;marker-start:none"
         transform="matrix(-0.4,0,0,-0.4,-4,0)"
         inkscape:connector-curvature="0" />
    </marker>
    <marker
       inkscape:stockid="Arrow1Lend"
       orient="auto"
       refY="0"
       refX="0"
       id="Arrow1Lend"
       style="overflow:visible">
      <path
         id="path26412"
         d="M 0,0 5,-5 -12.5,0 5,5 0,0 z"
         style="fill-rule:evenodd;stroke:#000000;stroke-width:1pt;marker-start:none"
         transform="matrix(-0.8,0,0,-0.8,-10,0)"
         inkscape:connector-curvature="0" />
    </marker>
  </defs>
  <g
     class="OpMultiThreshold"
     transform="translate(0.5,1)"
     id="g30632">
    <rect
       x="16"
       y="0"
       width="176"
       height="102"
       style="fill-opacity:0;stroke:#000000;stroke-width:2"
       rx="13"
       ry="13"
       inkscape:connector-avoid="false"
       id="rect30634" />
    <path
       d="m 16,15 176,0 z"
       id="path30636"
       inkscape:connector-curvature="0"
       style="stroke:#000000;stroke-width:1" />
    <text
       y="13"
       x="104"
       id="text30638"
       style="text-anchor:middle">OpMultiThreshold</text>
    <circle
       cx="11"
       cy="35.5"
       r="5"
       id="0x1090ae610"
       class="ThresholdLevel"
       d="m 16,35.5 c 0,2.761424 -2.238576,5 -5,5 -2.7614237,0 -5,-2.238576 -5,-5 0,-2.761424 2.2385763,-5 5,-5 2.761424,0 5,2.238576 5,5 z"
       sodipodi:cx="11"
       sodipodi:cy="35.5"
       sodipodi:rx="5"
       sodipodi:ry="5"
       style="fill:#ffffff;stroke:#000000" />
    <text
       y="35.5"
       x="21"
       id="text30641"
       style="text-anchor:start">ThresholdLevel</text>
    <g
       class="Input"
       transform="translate(0,48.5)"
       id="g30643">
      <circle
         cx="8"
         cy="8"
         r="5"
         id="0x1090ae410"
         class="Input"
         d="m 13,8 c 0,2.761424 -2.238576,5 -5,5 C 5.2385763,13 3,10.761424 3,8 3,5.2385763 5.2385763,3 8,3 c 2.761424,0 5,2.2385763 5,5 z"
         sodipodi:cx="8"
         sodipodi:cy="8"
         sodipodi:rx="5"
         sodipodi:ry="5"
         style="fill:#ffffff;stroke:#000000" />
      <circle
         cx="8"
         cy="18"
         r="5"
         id="0x1090b24d0"
         class="Input"
         d="m 13,18 c 0,2.761424 -2.238576,5 -5,5 -2.7614237,0 -5,-2.238576 -5,-5 0,-2.761424 2.2385763,-5 5,-5 2.761424,0 5,2.238576 5,5 z"
         sodipodi:cx="8"
         sodipodi:cy="18"
         sodipodi:rx="5"
         sodipodi:ry="5"
         style="fill:#ffffff;stroke:#000000" />
      <circle
         cx="8"
         cy="28"
         r="5"
         id="0x1090b2890"
         class="Input"
         d="m 13,28 c 0,2.761424 -2.238576,5 -5,5 -2.7614237,0 -5,-2.238576 -5,-5 0,-2.761424 2.2385763,-5 5,-5 2.761424,0 5,2.238576 5,5 z"
         sodipodi:cx="8"
         sodipodi:cy="28"
         sodipodi:rx="5"
         sodipodi:ry="5"
         style="fill:#ffffff;stroke:#000000" />
      <rect
         x="0"
         y="0"
         width="16"
         height="36"
         id="0x1090ae9d0"
         style="fill-opacity:0;stroke:#000000;stroke-width:1" />
    </g>
    <text
       y="66.5"
       x="21"
       id="text30649"
       style="text-anchor:start">Inputs</text>
    <g
       class="Output"
       transform="translate(192,45.5)"
       id="g30651">
      <circle
         cx="8"
         cy="8"
         r="5"
         id="0x1090b2c50"
         class="Output"
         d="m 13,8 c 0,2.761424 -2.238576,5 -5,5 C 5.2385763,13 3,10.761424 3,8 3,5.2385763 5.2385763,3 8,3 c 2.761424,0 5,2.2385763 5,5 z"
         sodipodi:cx="8"
         sodipodi:cy="8"
         sodipodi:rx="5"
         sodipodi:ry="5"
         style="fill:#ffffff;stroke:#000000" />
      <circle
         cx="8"
         cy="18"
         r="5"
         id="0x1090b3050"
         class="Output"
         d="m 13,18 c 0,2.761424 -2.238576,5 -5,5 -2.7614237,0 -5,-2.238576 -5,-5 0,-2.761424 2.2385763,-5 5,-5 2.761424,0 5,2.238576 5,5 z"
         sodipodi:cx="8"
         sodipodi:cy="18"
         sodipodi:rx="5"
         sodipodi:ry="5"
         style="fill:#ffffff;stroke:#000000" />
      <circle
         cx="8"
         cy="28"
         r="5"
         id="0x1090b3410"
         class="Output"
         d="m 13,28 c 0,2.761424 -2.238576,5 -5,5 -2.7614237,0 -5,-2.238576 -5,-5 0,-2.761424 2.2385763,-5 5,-5 2.761424,0 5,2.238576 5,5 z"
         sodipodi:cx="8"
         sodipodi:cy="28"
         sodipodi:rx="5"
         sodipodi:ry="5"
         style="fill:#ffffff;stroke:#000000" />
      <rect
         x="0"
         y="0"
         width="16"
         height="36"
         id="0x1090aed90"
         style="fill-opacity:0;stroke:#000000;stroke-width:1" />
    </g>
    <text
       y="63.5"
       x="187"
       id="text30657"
       style="text-anchor:end">Outputs</text>
  </g>
</svg>
