<?xml version="1.0" encoding="UTF-8" standalone="no"?>
<svg
   xmlns:dc="http://purl.org/dc/elements/1.1/"
   xmlns:cc="http://creativecommons.org/ns#"
   xmlns:rdf="http://www.w3.org/1999/02/22-rdf-syntax-ns#"
   xmlns:svg="http://www.w3.org/2000/svg"
   xmlns="http://www.w3.org/2000/svg"
   xmlns:sodipodi="http://sodipodi.sourceforge.net/DTD/sodipodi-0.dtd"
   xmlns:inkscape="http://www.inkscape.org/namespaces/inkscape"
   x="0"
   y="0"
   width="316"
   height="170"
   id="svg69791"
   version="1.1"
   inkscape:version="0.48.2 r9819"
   sodipodi:docname="BatchOutput Top-Level Operator.svg">
  <metadata
     id="metadata69858">
    <rdf:RDF>
      <cc:Work
         rdf:about="">
        <dc:format>image/svg+xml</dc:format>
        <dc:type
           rdf:resource="http://purl.org/dc/dcmitype/StillImage" />
        <dc:title></dc:title>
      </cc:Work>
    </rdf:RDF>
  </metadata>
  <sodipodi:namedview
     pagecolor="#ffffff"
     bordercolor="#666666"
     borderopacity="1"
     objecttolerance="10"
     gridtolerance="10"
     guidetolerance="10"
     inkscape:pageopacity="0"
     inkscape:pageshadow="2"
     inkscape:window-width="640"
     inkscape:window-height="480"
     id="namedview69856"
     showgrid="false"
     fit-margin-top="0"
     fit-margin-left="0"
     fit-margin-right="0"
     fit-margin-bottom="0"
     inkscape:zoom="0.88628571"
     inkscape:cx="199.92925"
     inkscape:cy="128.15334"
     inkscape:window-x="0"
     inkscape:window-y="0"
     inkscape:window-maximized="0"
     inkscape:current-layer="svg69791" />
  <defs
     id="defs31674">
    <marker
       inkscape:stockid="Arrow2Lstart"
       orient="auto"
       refY="0"
       refX="0"
       id="Arrow2Lstart"
       style="overflow:visible">
      <path
         id="path26427"
         style="font-size:12px;fill-rule:evenodd;stroke-width:0.625;stroke-linejoin:round"
         d="M 8.7185878,4.0337352 -2.2072895,0.01601326 8.7185884,-4.0017078 c -1.7454984,2.3720609 -1.7354408,5.6174519 -6e-7,8.035443 z"
         transform="matrix(1.1,0,0,1.1,1.1,0)"
         inkscape:connector-curvature="0" />
    </marker>
    <marker
       inkscape:stockid="Arrow1Mend"
       orient="auto"
       refY="0"
       refX="0"
       id="Arrow1Mend"
       style="overflow:visible">
      <path
         id="path26418"
         d="M 0,0 5,-5 -12.5,0 5,5 0,0 z"
         style="fill-rule:evenodd;stroke:#000000;stroke-width:1pt;marker-start:none"
         transform="matrix(-0.4,0,0,-0.4,-4,0)"
         inkscape:connector-curvature="0" />
    </marker>
    <marker
       inkscape:stockid="Arrow1Lend"
       orient="auto"
       refY="0"
       refX="0"
       id="Arrow1Lend"
       style="overflow:visible">
      <path
         id="path26412"
         d="M 0,0 5,-5 -12.5,0 5,5 0,0 z"
         style="fill-rule:evenodd;stroke:#000000;stroke-width:1pt;marker-start:none"
         transform="matrix(-0.8,0,0,-0.8,-10,0)"
         inkscape:connector-curvature="0" />
    </marker>
  </defs>
  <rect
     id="rect69802"
     inkscape:connector-avoid="false"
     ry="13"
     rx="13"
     style="fill-opacity:0;stroke:#000000;stroke-width:2"
     height="168"
     width="283"
     y="1"
     x="16.5" />
  <path
     style="stroke:#000000;stroke-width:1"
     inkscape:connector-curvature="0"
     id="path69804"
     d="m 16.5,16 283,0 z" />
  <text
     style="text-anchor:middle"
     id="text69806"
     x="157.5"
     y="14">BatchOutput Top-Level Operator</text>
  <circle
     style="fill:#ffffff;stroke:#000000"
     sodipodi:ry="5"
     sodipodi:rx="5"
     sodipodi:cy="30.5"
     sodipodi:cx="11"
     d="m 16,30.5 c 0,2.761424 -2.238576,5 -5,5 -2.7614237,0 -5,-2.238576 -5,-5 0,-2.761424 2.2385763,-5 5,-5 2.761424,0 5,2.238576 5,5 z"
     class="ExportDirectory"
     id="0x1153c4f90"
     r="5"
     cy="30.5"
     cx="11"
     transform="translate(0.5,1)" />
  <text
     style="text-anchor:start"
     id="text69809"
     x="21.5"
     y="31.5">ExportDirectory</text>
  <circle
     style="fill:#ffffff;stroke:#000000"
     sodipodi:ry="5"
     sodipodi:rx="5"
     sodipodi:cy="43.5"
     sodipodi:cx="11"
     d="m 16,43.5 c 0,2.761424 -2.238576,5 -5,5 -2.7614237,0 -5,-2.238576 -5,-5 0,-2.761424 2.2385763,-5 5,-5 2.761424,0 5,2.238576 5,5 z"
     class="Format"
     id="0x1153c8390"
     r="5"
     cy="43.5"
     cx="11"
     transform="translate(0.5,1)" />
  <text
     style="text-anchor:start"
     id="text69812"
     x="21.5"
     y="44.5">Format</text>
  <circle
     style="fill:#ffffff;stroke:#000000"
     sodipodi:ry="5"
     sodipodi:rx="5"
     sodipodi:cy="56.5"
     sodipodi:cx="11"
     d="m 16,56.5 c 0,2.761424 -2.238576,5 -5,5 -2.7614237,0 -5,-2.238576 -5,-5 0,-2.761424 2.2385763,-5 5,-5 2.761424,0 5,2.238576 5,5 z"
     class="Suffix"
     id="0x1153c8750"
     r="5"
     cy="56.5"
     cx="11"
     transform="translate(0.5,1)" />
  <text
     style="text-anchor:start"
     id="text69815"
     x="21.5"
     y="57.5">Suffix</text>
  <circle
     style="fill:#ffffff;stroke:#000000"
     sodipodi:ry="5"
     sodipodi:rx="5"
     sodipodi:cy="69.5"
     sodipodi:cx="11"
     d="m 16,69.5 c 0,2.761424 -2.238576,5 -5,5 -2.7614237,0 -5,-2.238576 -5,-5 0,-2.761424 2.2385763,-5 5,-5 2.761424,0 5,2.238576 5,5 z"
     class="InternalPath"
     id="0x1153c8b10"
     r="5"
     cy="69.5"
     cx="11"
     transform="translate(0.5,1)" />
  <text
     style="text-anchor:start"
     id="text69818"
     x="21.5"
     y="70.5">InternalPath</text>
  <circle
     cx="8"
     cy="8"
     r="5"
     id="0x1140a4510"
     class="DatasetPath"
     d="m 13,8 c 0,2.761424 -2.238576,5 -5,5 C 5.2385763,13 3,10.761424 3,8 3,5.2385763 5.2385763,3 8,3 c 2.761424,0 5,2.2385763 5,5 z"
     sodipodi:cx="8"
     sodipodi:cy="8"
     sodipodi:rx="5"
     sodipodi:ry="5"
     style="fill:#ffffff;stroke:#000000"
     transform="translate(0.5,78.5)" />
  <rect
     x="0.5"
     y="78.5"
     width="16"
     height="16"
     id="0x1153c8ed0"
     style="fill-opacity:0;stroke:#000000;stroke-width:1" />
  <text
     style="text-anchor:start"
     id="text69824"
     x="21.5"
     y="86.5">DatasetPath</text>
  <circle
     cx="8"
     cy="8"
     r="5"
     id="0x11409c910"
     class="ImageToExport"
     d="m 13,8 c 0,2.761424 -2.238576,5 -5,5 C 5.2385763,13 3,10.761424 3,8 3,5.2385763 5.2385763,3 8,3 c 2.761424,0 5,2.2385763 5,5 z"
     sodipodi:cx="8"
     sodipodi:cy="8"
     sodipodi:rx="5"
     sodipodi:ry="5"
     style="fill:#ffffff;stroke:#000000"
     transform="translate(0.5,97.5)" />
  <rect
     x="0.5"
     y="97.5"
     width="16"
     height="16"
     id="0x1153ca2d0"
     style="fill-opacity:0;stroke:#000000;stroke-width:1" />
  <text
     style="text-anchor:start"
     id="text69830"
     x="21.5"
     y="105.5">ImageToExport</text>
  <circle
     cx="8"
     cy="8"
     r="5"
     id="0x1153d73d0"
     class="Dirty"
     d="m 13,8 c 0,2.761424 -2.238576,5 -5,5 C 5.2385763,13 3,10.761424 3,8 3,5.2385763 5.2385763,3 8,3 c 2.761424,0 5,2.2385763 5,5 z"
     sodipodi:cx="8"
     sodipodi:cy="8"
     sodipodi:rx="5"
     sodipodi:ry="5"
     style="fill:#ffffff;stroke:#000000"
     transform="translate(299.5,33.5)" />
  <rect
     x="299.5"
     y="33.5"
     width="16"
     height="16"
     id="0x1153ca690"
     style="fill-opacity:0;stroke:#000000;stroke-width:1" />
  <text
     style="text-anchor:end"
     id="text69836"
     x="294.5"
     y="41.5">Dirty</text>
  <circle
     cx="8"
     cy="8"
     r="5"
     id="0x1140aa490"
     class="OutputDataPath"
     d="m 13,8 c 0,2.761424 -2.238576,5 -5,5 C 5.2385763,13 3,10.761424 3,8 3,5.2385763 5.2385763,3 8,3 c 2.761424,0 5,2.2385763 5,5 z"
     sodipodi:cx="8"
     sodipodi:cy="8"
     sodipodi:rx="5"
     sodipodi:ry="5"
     style="fill:#ffffff;stroke:#000000"
     transform="translate(299.5,59.5)" />
  <rect
     x="299.5"
     y="59.5"
     width="16"
     height="16"
     id="0x1153caa50"
     style="fill-opacity:0;stroke:#000000;stroke-width:1" />
  <text
     style="text-anchor:end"
     id="text69842"
     x="294.5"
     y="67.5">OutputDataPath</text>
  <circle
     cx="8"
     cy="8"
     r="5"
     id="0x1140aa850"
     class="ExportResult"
     d="m 13,8 c 0,2.761424 -2.238576,5 -5,5 C 5.2385763,13 3,10.761424 3,8 3,5.2385763 5.2385763,3 8,3 c 2.761424,0 5,2.2385763 5,5 z"
     sodipodi:cx="8"
     sodipodi:cy="8"
     sodipodi:rx="5"
     sodipodi:ry="5"
     style="fill:#ffffff;stroke:#000000"
     transform="translate(299.5,85.5)" />
  <rect
     x="299.5"
     y="85.5"
     width="16"
     height="16"
     id="0x1153cae10"
     style="fill-opacity:0;stroke:#000000;stroke-width:1" />
  <text
     style="text-anchor:end"
     id="text69848"
     x="294.5"
     y="93.5">ExportResult</text>
  <circle
     cx="8"
     cy="8"
     r="5"
     id="0x1140aac50"
     class="ProgressSignal"
     d="m 13,8 c 0,2.761424 -2.238576,5 -5,5 C 5.2385763,13 3,10.761424 3,8 3,5.2385763 5.2385763,3 8,3 c 2.761424,0 5,2.2385763 5,5 z"
     sodipodi:cx="8"
     sodipodi:cy="8"
     sodipodi:rx="5"
     sodipodi:ry="5"
     style="fill:#ffffff;stroke:#000000"
     transform="translate(299.5,111.5)" />
  <rect
     x="299.5"
     y="111.5"
     width="16"
     height="16"
     id="0x1153cd210"
     style="fill-opacity:0;stroke:#000000;stroke-width:1" />
  <text
     style="text-anchor:end"
     id="text69854"
     x="294.5"
     y="119.5">ProgressSignal</text>
</svg>
