<?xml version="1.0" encoding="UTF-8" standalone="no"?>
<svg
   xmlns:dc="http://purl.org/dc/elements/1.1/"
   xmlns:cc="http://creativecommons.org/ns#"
   xmlns:rdf="http://www.w3.org/1999/02/22-rdf-syntax-ns#"
   xmlns:svg="http://www.w3.org/2000/svg"
   xmlns="http://www.w3.org/2000/svg"
   xmlns:sodipodi="http://sodipodi.sourceforge.net/DTD/sodipodi-0.dtd"
   xmlns:inkscape="http://www.inkscape.org/namespaces/inkscape"
   x="0"
   y="0"
   width="334"
   height="124"
   id="svg69056"
   version="1.1"
   inkscape:version="0.48.2 r9819"
   sodipodi:docname="DataSelection Top-level Operator.svg">
  <metadata
     id="metadata69108">
    <rdf:RDF>
      <cc:Work
         rdf:about="">
        <dc:format>image/svg+xml</dc:format>
        <dc:type
           rdf:resource="http://purl.org/dc/dcmitype/StillImage" />
        <dc:title></dc:title>
      </cc:Work>
    </rdf:RDF>
  </metadata>
  <sodipodi:namedview
     pagecolor="#ffffff"
     bordercolor="#666666"
     borderopacity="1"
     objecttolerance="10"
     gridtolerance="10"
     guidetolerance="10"
     inkscape:pageopacity="0"
     inkscape:pageshadow="2"
     inkscape:window-width="1680"
     inkscape:window-height="1002"
     id="namedview69106"
     showgrid="false"
     inkscape:zoom="2.5268571"
     inkscape:cx="94.419364"
     inkscape:cy="98.282796"
     inkscape:window-x="0"
     inkscape:window-y="0"
     inkscape:window-maximized="1"
     inkscape:current-layer="g69065"
     fit-margin-top="0"
     fit-margin-left="0"
     fit-margin-right="0"
     fit-margin-bottom="0" />
  <defs
     id="defs31674">
    <marker
       inkscape:stockid="Arrow2Lstart"
       orient="auto"
       refY="0"
       refX="0"
       id="Arrow2Lstart"
       style="overflow:visible">
      <path
         id="path26427"
         style="font-size:12px;fill-rule:evenodd;stroke-width:0.625;stroke-linejoin:round"
         d="M 8.7185878,4.0337352 -2.2072895,0.01601326 8.7185884,-4.0017078 c -1.7454984,2.3720609 -1.7354408,5.6174519 -6e-7,8.035443 z"
         transform="matrix(1.1,0,0,1.1,1.1,0)"
         inkscape:connector-curvature="0" />
    </marker>
    <marker
       inkscape:stockid="Arrow1Mend"
       orient="auto"
       refY="0"
       refX="0"
       id="Arrow1Mend"
       style="overflow:visible">
      <path
         id="path26418"
         d="M 0,0 5,-5 -12.5,0 5,5 0,0 z"
         style="fill-rule:evenodd;stroke:#000000;stroke-width:1pt;marker-start:none"
         transform="matrix(-0.4,0,0,-0.4,-4,0)"
         inkscape:connector-curvature="0" />
    </marker>
    <marker
       inkscape:stockid="Arrow1Lend"
       orient="auto"
       refY="0"
       refX="0"
       id="Arrow1Lend"
       style="overflow:visible">
      <path
         id="path26412"
         d="M 0,0 5,-5 -12.5,0 5,5 0,0 z"
         style="fill-rule:evenodd;stroke:#000000;stroke-width:1pt;marker-start:none"
         transform="matrix(-0.8,0,0,-0.8,-10,0)"
         inkscape:connector-curvature="0" />
    </marker>
  </defs>
  <g
     class="DataSelection Top-level Operator"
     transform="translate(0.5,1)"
     id="g69065">
    <rect
       x="16"
       y="0"
       width="301"
       height="122"
       style="fill-opacity:0;stroke:#000000;stroke-width:2"
       rx="13"
       ry="13"
       inkscape:connector-avoid="false"
       id="rect69067" />
    <path
       d="m 16,15 301,0 z"
       id="path69069"
       inkscape:connector-curvature="0"
       style="stroke:#000000;stroke-width:1" />
    <text
       y="13"
       x="166"
       id="text69071"
       style="text-anchor:middle">DataSelection Top-level Operator</text>
    <circle
       cx="11"
       cy="32.5"
       r="5"
       id="0x1109e2b90"
       class="ProjectFile"
       d="m 16,32.5 c 0,2.761424 -2.238576,5 -5,5 -2.7614237,0 -5,-2.238576 -5,-5 0,-2.761424 2.2385763,-5 5,-5 2.761424,0 5,2.238576 5,5 z"
       sodipodi:cx="11"
       sodipodi:cy="32.5"
       sodipodi:rx="5"
       sodipodi:ry="5"
       style="fill:#ffffff;stroke:#000000" />
    <text
       y="32.5"
       x="21"
       id="text69074"
       style="text-anchor:start">ProjectFile</text>
    <circle
       cx="11"
       cy="47.5"
       r="5"
       id="0x1109e2f50"
       class="ProjectDataGroup"
       d="m 16,47.5 c 0,2.761424 -2.238576,5 -5,5 -2.7614237,0 -5,-2.238576 -5,-5 0,-2.761424 2.2385763,-5 5,-5 2.761424,0 5,2.238576 5,5 z"
       sodipodi:cx="11"
       sodipodi:cy="47.5"
       sodipodi:rx="5"
       sodipodi:ry="5"
       style="fill:#ffffff;stroke:#000000" />
    <text
       y="47.5"
       x="21"
       id="text69077"
       style="text-anchor:start">ProjectDataGroup</text>
    <circle
       cx="11"
       cy="62.5"
       r="5"
       id="0x1109e9350"
       class="WorkingDirectory"
       d="m 16,62.5 c 0,2.761424 -2.238576,5 -5,5 -2.7614237,0 -5,-2.238576 -5,-5 0,-2.761424 2.2385763,-5 5,-5 2.761424,0 5,2.238576 5,5 z"
       sodipodi:cx="11"
       sodipodi:cy="62.5"
       sodipodi:rx="5"
       sodipodi:ry="5"
       style="fill:#ffffff;stroke:#000000" />
    <text
       y="62.5"
       x="21"
       id="text69080"
       style="text-anchor:start">WorkingDirectory</text>
    <circle
       style="fill:#ffffff;stroke:#000000"
       sodipodi:ry="5"
       sodipodi:rx="5"
       sodipodi:cy="8"
       sodipodi:cx="8"
       d="m 13,8 c 0,2.761424 -2.238576,5 -5,5 C 5.2385763,13 3,10.761424 3,8 3,5.2385763 5.2385763,3 8,3 c 2.761424,0 5,2.2385763 5,5 z"
       class="Dataset"
       id="0x10ce6b190"
       r="5"
       cy="8"
       cx="8"
       transform="translate(0,72.5)" />
    <rect
       style="fill-opacity:0;stroke:#000000;stroke-width:1"
       id="0x1109e9710"
       height="16"
       width="16"
       y="72.5"
       x="0" />
    <text
       y="80.5"
       x="21"
       id="text69086"
       style="text-anchor:start">Dataset</text>
    <circle
       style="fill:#ffffff;stroke:#000000"
       sodipodi:ry="5"
       sodipodi:rx="5"
       sodipodi:cy="8"
       sodipodi:cx="8"
       d="m 13,8 c 0,2.761424 -2.238576,5 -5,5 C 5.2385763,13 3,10.761424 3,8 3,5.2385763 5.2385763,3 8,3 c 2.761424,0 5,2.2385763 5,5 z"
       class="ImageName"
       id="0x11fe1b490"
       r="5"
       cy="8"
       cx="8"
       transform="translate(317,30.5)" />
    <rect
       style="fill-opacity:0;stroke:#000000;stroke-width:1"
       id="0x1109e9ad0"
       height="16"
       width="16"
       y="30.5"
       x="317" />
    <text
       y="38.5"
       x="312"
       id="text69092"
       style="text-anchor:end">ImageName</text>
    <circle
       style="fill:#ffffff;stroke:#000000"
       sodipodi:ry="5"
       sodipodi:rx="5"
       sodipodi:cy="8"
       sodipodi:cx="8"
       d="m 13,8 c 0,2.761424 -2.238576,5 -5,5 C 5.2385763,13 3,10.761424 3,8 3,5.2385763 5.2385763,3 8,3 c 2.761424,0 5,2.2385763 5,5 z"
       class="Image"
       id="0x11fe1f250"
       r="5"
       cy="8"
       cx="8"
       transform="translate(317,54.5)" />
    <rect
       style="fill-opacity:0;stroke:#000000;stroke-width:1"
       id="0x1109e9e90"
       height="16"
       width="16"
       y="54.5"
       x="317" />
    <text
       y="62.5"
       x="312"
       id="text69098"
       style="text-anchor:end">Image</text>
    <circle
       style="fill:#ffffff;stroke:#000000"
       sodipodi:ry="5"
       sodipodi:rx="5"
       sodipodi:cy="8"
       sodipodi:cx="8"
       d="m 13,8 c 0,2.761424 -2.238576,5 -5,5 C 5.2385763,13 3,10.761424 3,8 3,5.2385763 5.2385763,3 8,3 c 2.761424,0 5,2.2385763 5,5 z"
       class="AllowLabels"
       id="0x1109eca50"
       r="5"
       cy="8"
       cx="8"
       transform="translate(317,78.5)" />
    <rect
       style="fill-opacity:0;stroke:#000000;stroke-width:1"
       id="0x1109ec290"
       height="16"
       width="16"
       y="78.5"
       x="317" />
    <text
       y="86.5"
       x="312"
       id="text69104"
       style="text-anchor:end">AllowLabels</text>
  </g>
</svg>
