<?xml version="1.0" encoding="UTF-8" standalone="no"?>
<svg
   xmlns:dc="http://purl.org/dc/elements/1.1/"
   xmlns:cc="http://creativecommons.org/ns#"
   xmlns:rdf="http://www.w3.org/1999/02/22-rdf-syntax-ns#"
   xmlns:svg="http://www.w3.org/2000/svg"
   xmlns="http://www.w3.org/2000/svg"
   xmlns:sodipodi="http://sodipodi.sourceforge.net/DTD/sodipodi-0.dtd"
   xmlns:inkscape="http://www.inkscape.org/namespaces/inkscape"
   x="0"
   y="0"
   width="269"
   height="124.15625"
   id="svg3119"
   version="1.1"
   inkscape:version="0.48.2 r9819"
   sodipodi:docname="DeviationFromMean-View.svg"
   inkscape:export-filename="/Users/bergs/Documents/svgfiles/deviationFromMean.png"
   inkscape:export-xdpi="90"
   inkscape:export-ydpi="90">
  <metadata
     id="metadata3163">
    <rdf:RDF>
      <cc:Work
         rdf:about="">
        <dc:format>image/svg+xml</dc:format>
        <dc:type
           rdf:resource="http://purl.org/dc/dcmitype/StillImage" />
        <dc:title></dc:title>
      </cc:Work>
    </rdf:RDF>
  </metadata>
  <sodipodi:namedview
     pagecolor="#ffffff"
     bordercolor="#666666"
     borderopacity="1"
     objecttolerance="10"
     gridtolerance="10"
     guidetolerance="10"
     inkscape:pageopacity="0"
     inkscape:pageshadow="2"
     inkscape:window-width="1200"
     inkscape:window-height="1872"
     id="namedview3161"
     showgrid="false"
     fit-margin-top="0"
     fit-margin-left="0"
     fit-margin-right="0"
     fit-margin-bottom="0"
     inkscape:zoom="2.4434286"
     inkscape:cx="175.67665"
     inkscape:cy="98.665774"
     inkscape:window-x="0"
     inkscape:window-y="0"
     inkscape:window-maximized="1"
     inkscape:current-layer="g3128" />
  <defs
     id="defs31674">
    <marker
       inkscape:stockid="Arrow2Lstart"
       orient="auto"
       refY="0"
       refX="0"
       id="Arrow2Lstart"
       style="overflow:visible">
      <path
         id="path26427"
         style="font-size:12px;fill-rule:evenodd;stroke-width:0.625;stroke-linejoin:round"
         d="M 8.7185878,4.0337352 -2.2072895,0.01601326 8.7185884,-4.0017078 c -1.7454984,2.3720609 -1.7354408,5.6174519 -6e-7,8.035443 z"
         transform="matrix(1.1,0,0,1.1,1.1,0)"
         inkscape:connector-curvature="0" />
    </marker>
    <marker
       inkscape:stockid="Arrow1Mend"
       orient="auto"
       refY="0"
       refX="0"
       id="Arrow1Mend"
       style="overflow:visible">
      <path
         id="path26418"
         d="M 0,0 5,-5 -12.5,0 5,5 0,0 z"
         style="fill-rule:evenodd;stroke:#000000;stroke-width:1pt;marker-start:none"
         transform="matrix(-0.4,0,0,-0.4,-4,0)"
         inkscape:connector-curvature="0" />
    </marker>
    <marker
       inkscape:stockid="Arrow1Lend"
       orient="auto"
       refY="0"
       refX="0"
       id="Arrow1Lend"
       style="overflow:visible">
      <path
         id="path26412"
         d="M 0,0 5,-5 -12.5,0 5,5 0,0 z"
         style="fill-rule:evenodd;stroke:#000000;stroke-width:1pt;marker-start:none"
         transform="matrix(-0.8,0,0,-0.8,-10,0)"
         inkscape:connector-curvature="0" />
    </marker>
  </defs>
  <g
     class="Operator (base class)"
     transform="translate(-102.4375,305.46875)"
     id="g3128">
    <rect
       id="rect3232"
       inkscape:connector-avoid="false"
       ry="13"
       rx="15.139988"
       style="fill-opacity:0;stroke:#000000;stroke-width:2.15834618"
       height="122"
       width="235.25212"
       y="-304.39722"
       x="118.95306" />
    <path
       style="stroke:#000000;stroke-width:1.07781458"
       inkscape:connector-curvature="0"
       id="path3234"
       d="m 118.95306,-289.39722 234.66024,0 z" />
    <text
       style="text-anchor:middle"
       id="text3236"
       x="237.95306"
       y="-291.39722">OpDeviationFromMean (View)</text>
    <circle
       transform="translate(102.95306,-304.39722)"
       style="fill:#ffffff;stroke:#000000"
       sodipodi:ry="5"
       sodipodi:rx="5"
       sodipodi:cy="33.5"
       sodipodi:cx="11"
       d="m 16,33.5 c 0,2.761424 -2.238576,5 -5,5 -2.7614237,0 -5,-2.238576 -5,-5 0,-2.761424 2.2385763,-5 5,-5 2.761424,0 5,2.238576 5,5 z"
       class="ScalingFactor"
       id="circle3238"
       r="5"
       cy="33.5"
       cx="11" />
    <text
       style="text-anchor:start"
       id="text3240"
       x="123.95306"
       y="-270.89722">ScalingFactor</text>
    <circle
       transform="translate(102.95306,-304.39722)"
       style="fill:#ffffff;stroke:#000000"
       sodipodi:ry="5"
       sodipodi:rx="5"
       sodipodi:cy="49.5"
       sodipodi:cx="11"
       d="m 16,49.5 c 0,2.761424 -2.238576,5 -5,5 -2.7614237,0 -5,-2.238576 -5,-5 0,-2.761424 2.2385763,-5 5,-5 2.761424,0 5,2.238576 5,5 z"
       class="Offset"
       id="circle3242"
       r="5"
       cy="49.5"
       cx="11" />
    <text
       style="text-anchor:start"
       id="text3244"
       x="123.95306"
       y="-254.89722">Offset</text>
    <circle
       transform="translate(102.95306,-243.89722)"
       cx="8"
       cy="8"
       r="5"
       id="circle3246"
       class="Input"
       d="m 13,8 c 0,2.761424 -2.238576,5 -5,5 C 5.2385763,13 3,10.761424 3,8 3,5.2385763 5.2385763,3 8,3 c 2.761424,0 5,2.2385763 5,5 z"
       sodipodi:cx="8"
       sodipodi:cy="8"
       sodipodi:rx="5"
       sodipodi:ry="5"
       style="fill:#ffffff;stroke:#000000;stroke-width:1;stroke-miterlimit:4;stroke-dasharray:1, 1;stroke-dashoffset:0" />
    <circle
       transform="translate(102.95306,-243.89722)"
       cx="8"
       cy="18"
       r="5"
       id="circle3248"
       class="Input"
       d="m 13,18 c 0,2.761424 -2.238576,5 -5,5 -2.7614237,0 -5,-2.238576 -5,-5 0,-2.761424 2.2385763,-5 5,-5 2.761424,0 5,2.238576 5,5 z"
       sodipodi:cx="8"
       sodipodi:cy="18"
       sodipodi:rx="5"
       sodipodi:ry="5"
       style="fill:#ffffff;stroke:#000000;stroke-width:1.5;stroke-miterlimit:4;stroke-dasharray:none" />
    <circle
       transform="translate(102.95306,-243.89722)"
       cx="8"
       cy="28"
       r="5"
       id="circle3250"
       class="Input"
       d="m 13,28 c 0,2.761424 -2.238576,5 -5,5 -2.7614237,0 -5,-2.238576 -5,-5 0,-2.761424 2.2385763,-5 5,-5 2.761424,0 5,2.238576 5,5 z"
       sodipodi:cx="8"
       sodipodi:cy="28"
       sodipodi:rx="5"
       sodipodi:ry="5"
       style="fill:#ffffff;stroke:#000000;stroke-width:1;stroke-miterlimit:4;stroke-dasharray:1, 1;stroke-dashoffset:0" />
    <rect
       x="102.95306"
       y="-243.89722"
       width="16"
       height="36"
       id="rect3252"
       style="fill-opacity:0;stroke:#000000;stroke-width:1;stroke-miterlimit:4;stroke-dasharray:1, 1;stroke-dashoffset:0" />
    <text
       style="text-anchor:start"
       id="text3254"
       x="123.95306"
       y="-225.89722">Input</text>
    <circle
       transform="translate(136.95306,-304.39722)"
       style="fill:#ffffff;stroke:#000000"
       sodipodi:ry="5"
       sodipodi:rx="5"
       sodipodi:cy="42.5"
       sodipodi:cx="223"
       d="m 228,42.5 c 0,2.761424 -2.23858,5 -5,5 -2.76142,0 -5,-2.238576 -5,-5 0,-2.761424 2.23858,-5 5,-5 2.76142,0 5,2.238576 5,5 z"
       class="Mean"
       id="circle3256"
       r="5"
       cy="42.5"
       cx="223" />
    <text
       style="text-anchor:end"
       id="text3258"
       x="349.95306"
       y="-261.89722">Mean</text>
    <circle
       transform="translate(354.95306,-241.89722)"
       cx="8"
       cy="8"
       r="5"
       id="circle3260"
       class="Output"
       d="m 13,8 c 0,2.761424 -2.238576,5 -5,5 C 5.2385763,13 3,10.761424 3,8 3,5.2385763 5.2385763,3 8,3 c 2.761424,0 5,2.2385763 5,5 z"
       sodipodi:cx="8"
       sodipodi:cy="8"
       sodipodi:rx="5"
       sodipodi:ry="5"
       style="fill:#ffffff;stroke:#000000;stroke-width:1;stroke-miterlimit:4;stroke-dasharray:1, 1;stroke-dashoffset:0" />
    <circle
       transform="translate(354.95306,-241.89722)"
       cx="8"
       cy="18"
       r="5"
       id="circle3262"
       class="Output"
       d="m 13,18 c 0,2.761424 -2.238576,5 -5,5 -2.7614237,0 -5,-2.238576 -5,-5 0,-2.761424 2.2385763,-5 5,-5 2.761424,0 5,2.238576 5,5 z"
       sodipodi:cx="8"
       sodipodi:cy="18"
       sodipodi:rx="5"
       sodipodi:ry="5"
       style="fill:#ffffff;stroke:#000000;stroke-width:1.5;stroke-miterlimit:4;stroke-dasharray:none" />
    <circle
       transform="translate(354.95306,-241.89722)"
       cx="8"
       cy="28"
       r="5"
       id="circle3264"
       class="Output"
       d="m 13,28 c 0,2.761424 -2.238576,5 -5,5 -2.7614237,0 -5,-2.238576 -5,-5 0,-2.761424 2.2385763,-5 5,-5 2.761424,0 5,2.238576 5,5 z"
       sodipodi:cx="8"
       sodipodi:cy="28"
       sodipodi:rx="5"
       sodipodi:ry="5"
       style="fill:#ffffff;stroke:#000000;stroke-width:1;stroke-miterlimit:4;stroke-dasharray:1, 1;stroke-dashoffset:0" />
    <rect
       x="354.95306"
       y="-241.89722"
       width="16"
       height="36"
       id="rect3266"
       style="fill-opacity:0;stroke:#000000;stroke-width:1;stroke-miterlimit:4;stroke-dasharray:1, 1;stroke-dashoffset:0" />
    <text
       style="text-anchor:end"
       id="text3268"
       x="349.95306"
       y="-223.89722">Output</text>
  </g>
</svg>
