<?xml version="1.0" encoding="UTF-8" standalone="no"?>
<svg
   xmlns:dc="http://purl.org/dc/elements/1.1/"
   xmlns:cc="http://creativecommons.org/ns#"
   xmlns:rdf="http://www.w3.org/1999/02/22-rdf-syntax-ns#"
   xmlns:svg="http://www.w3.org/2000/svg"
   xmlns="http://www.w3.org/2000/svg"
   xmlns:sodipodi="http://sodipodi.sourceforge.net/DTD/sodipodi-0.dtd"
   xmlns:inkscape="http://www.inkscape.org/namespaces/inkscape"
   x="0"
   y="0"
   width="235"
   height="124"
   id="svg3119"
   version="1.1"
   inkscape:version="0.48.2 r9819"
   sodipodi:docname="deviationFromMean.svg"
   inkscape:export-filename="/Users/bergs/Documents/svgfiles/deviationFromMean.png"
   inkscape:export-xdpi="90"
   inkscape:export-ydpi="90">
  <metadata
     id="metadata3163">
    <rdf:RDF>
      <cc:Work
         rdf:about="">
        <dc:format>image/svg+xml</dc:format>
        <dc:type
           rdf:resource="http://purl.org/dc/dcmitype/StillImage" />
        <dc:title></dc:title>
      </cc:Work>
    </rdf:RDF>
  </metadata>
  <sodipodi:namedview
     pagecolor="#ffffff"
     bordercolor="#666666"
     borderopacity="1"
     objecttolerance="10"
     gridtolerance="10"
     guidetolerance="10"
     inkscape:pageopacity="0"
     inkscape:pageshadow="2"
     inkscape:window-width="1200"
     inkscape:window-height="1872"
     id="namedview3161"
     showgrid="false"
     fit-margin-top="0"
     fit-margin-left="0"
     fit-margin-right="0"
     fit-margin-bottom="0"
     inkscape:zoom="2.4434286"
     inkscape:cx="118.63308"
     inkscape:cy="-28.360808"
     inkscape:window-x="0"
     inkscape:window-y="0"
     inkscape:window-maximized="1"
     inkscape:current-layer="g3128" />
  <defs
     id="defs31674">
    <marker
       inkscape:stockid="Arrow2Lstart"
       orient="auto"
       refY="0"
       refX="0"
       id="Arrow2Lstart"
       style="overflow:visible">
      <path
         id="path26427"
         style="font-size:12px;fill-rule:evenodd;stroke-width:0.625;stroke-linejoin:round"
         d="M 8.7185878,4.0337352 -2.2072895,0.01601326 8.7185884,-4.0017078 c -1.7454984,2.3720609 -1.7354408,5.6174519 -6e-7,8.035443 z"
         transform="matrix(1.1,0,0,1.1,1.1,0)"
         inkscape:connector-curvature="0" />
    </marker>
    <marker
       inkscape:stockid="Arrow1Mend"
       orient="auto"
       refY="0"
       refX="0"
       id="Arrow1Mend"
       style="overflow:visible">
      <path
         id="path26418"
         d="M 0,0 5,-5 -12.5,0 5,5 0,0 z"
         style="fill-rule:evenodd;stroke:#000000;stroke-width:1pt;marker-start:none"
         transform="matrix(-0.4,0,0,-0.4,-4,0)"
         inkscape:connector-curvature="0" />
    </marker>
    <marker
       inkscape:stockid="Arrow1Lend"
       orient="auto"
       refY="0"
       refX="0"
       id="Arrow1Lend"
       style="overflow:visible">
      <path
         id="path26412"
         d="M 0,0 5,-5 -12.5,0 5,5 0,0 z"
         style="fill-rule:evenodd;stroke:#000000;stroke-width:1pt;marker-start:none"
         transform="matrix(-0.8,0,0,-0.8,-10,0)"
         inkscape:connector-curvature="0" />
    </marker>
  </defs>
  <g
     class="Operator (base class)"
     transform="translate(0.5,1)"
     id="g3128">
    <rect
       x="16"
       y="0"
       width="202"
       height="122"
       style="fill-opacity:0;stroke:#000000;stroke-width:2"
       rx="13"
       ry="13"
       inkscape:connector-avoid="false"
       id="rect3130" />
    <path
       d="m 16,15 202,0 z"
       id="path3132"
       inkscape:connector-curvature="0"
       style="stroke:#000000;stroke-width:1" />
    <text
       y="13"
       x="117"
       id="text3134"
       style="text-anchor:middle">OpDeviationFromMean</text>
    <circle
       cx="11"
       cy="33.5"
       r="5"
       id="0x1134d4f90"
       class="ScalingFactor"
       d="m 16,33.5 c 0,2.761424 -2.238576,5 -5,5 -2.7614237,0 -5,-2.238576 -5,-5 0,-2.761424 2.2385763,-5 5,-5 2.761424,0 5,2.238576 5,5 z"
       sodipodi:cx="11"
       sodipodi:cy="33.5"
       sodipodi:rx="5"
       sodipodi:ry="5"
       style="fill:#ffffff;stroke:#000000" />
    <text
       y="33.5"
       x="21"
       id="text3137"
       style="text-anchor:start">ScalingFactor</text>
    <circle
       cx="11"
       cy="49.5"
       r="5"
       id="0x1134d6390"
       class="Offset"
       d="m 16,49.5 c 0,2.761424 -2.238576,5 -5,5 -2.7614237,0 -5,-2.238576 -5,-5 0,-2.761424 2.2385763,-5 5,-5 2.761424,0 5,2.238576 5,5 z"
       sodipodi:cx="11"
       sodipodi:cy="49.5"
       sodipodi:rx="5"
       sodipodi:ry="5"
       style="fill:#ffffff;stroke:#000000" />
    <text
       y="49.5"
       x="21"
       id="text3140"
       style="text-anchor:start">Offset</text>
    <g
       class="Input"
       transform="translate(0,60.5)"
       id="g3142">
      <circle
         cx="8"
         cy="8"
         r="5"
         id="0x1134eb090"
         class="Input"
         d="m 13,8 c 0,2.761424 -2.238576,5 -5,5 C 5.2385763,13 3,10.761424 3,8 3,5.2385763 5.2385763,3 8,3 c 2.761424,0 5,2.2385763 5,5 z"
         sodipodi:cx="8"
         sodipodi:cy="8"
         sodipodi:rx="5"
         sodipodi:ry="5"
         style="fill:#ffffff;stroke:#000000" />
      <circle
         cx="8"
         cy="18"
         r="5"
         id="0x113504f10"
         class="Input"
         d="m 13,18 c 0,2.761424 -2.238576,5 -5,5 -2.7614237,0 -5,-2.238576 -5,-5 0,-2.761424 2.2385763,-5 5,-5 2.761424,0 5,2.238576 5,5 z"
         sodipodi:cx="8"
         sodipodi:cy="18"
         sodipodi:rx="5"
         sodipodi:ry="5"
         style="fill:#ffffff;stroke:#000000" />
      <circle
         cx="8"
         cy="28"
         r="5"
         id="0x1193e03d0"
         class="Input"
         d="m 13,28 c 0,2.761424 -2.238576,5 -5,5 -2.7614237,0 -5,-2.238576 -5,-5 0,-2.761424 2.2385763,-5 5,-5 2.761424,0 5,2.238576 5,5 z"
         sodipodi:cx="8"
         sodipodi:cy="28"
         sodipodi:rx="5"
         sodipodi:ry="5"
         style="fill:#ffffff;stroke:#000000" />
      <rect
         x="0"
         y="0"
         width="16"
         height="36"
         id="0x1134d6750"
         style="fill-opacity:0;stroke:#000000;stroke-width:1" />
    </g>
    <text
       y="78.5"
       x="21"
       id="text3148"
       style="text-anchor:start">Input</text>
    <circle
       cx="223"
       cy="42.5"
       r="5"
       id="0x1134d6b10"
       class="Mean"
       d="m 228,42.5 c 0,2.761424 -2.23858,5 -5,5 -2.76142,0 -5,-2.238576 -5,-5 0,-2.761424 2.23858,-5 5,-5 2.76142,0 5,2.238576 5,5 z"
       sodipodi:cx="223"
       sodipodi:cy="42.5"
       sodipodi:rx="5"
       sodipodi:ry="5"
       style="fill:#ffffff;stroke:#000000" />
    <text
       y="42.5"
       x="213"
       id="text3151"
       style="text-anchor:end">Mean</text>
    <g
       class="Output"
       transform="translate(218,62.5)"
       id="g3153">
      <circle
         cx="8"
         cy="8"
         r="5"
         id="0x1134eb450"
         class="Output"
         d="m 13,8 c 0,2.761424 -2.238576,5 -5,5 C 5.2385763,13 3,10.761424 3,8 3,5.2385763 5.2385763,3 8,3 c 2.761424,0 5,2.2385763 5,5 z"
         sodipodi:cx="8"
         sodipodi:cy="8"
         sodipodi:rx="5"
         sodipodi:ry="5"
         style="fill:#ffffff;stroke:#000000" />
      <circle
         cx="8"
         cy="18"
         r="5"
         id="0x113506310"
         class="Output"
         d="m 13,18 c 0,2.761424 -2.238576,5 -5,5 -2.7614237,0 -5,-2.238576 -5,-5 0,-2.761424 2.2385763,-5 5,-5 2.761424,0 5,2.238576 5,5 z"
         sodipodi:cx="8"
         sodipodi:cy="18"
         sodipodi:rx="5"
         sodipodi:ry="5"
         style="fill:#ffffff;stroke:#000000" />
      <circle
         cx="8"
         cy="28"
         r="5"
         id="0x1193e0790"
         class="Output"
         d="m 13,28 c 0,2.761424 -2.238576,5 -5,5 -2.7614237,0 -5,-2.238576 -5,-5 0,-2.761424 2.2385763,-5 5,-5 2.761424,0 5,2.238576 5,5 z"
         sodipodi:cx="8"
         sodipodi:cy="28"
         sodipodi:rx="5"
         sodipodi:ry="5"
         style="fill:#ffffff;stroke:#000000" />
      <rect
         x="0"
         y="0"
         width="16"
         height="36"
         id="0x1134d6ed0"
         style="fill-opacity:0;stroke:#000000;stroke-width:1" />
    </g>
    <text
       y="80.5"
       x="213"
       id="text3159"
       style="text-anchor:end">Output</text>
  </g>
</svg>
