<?xml version="1.0" encoding="UTF-8" standalone="no"?>
<svg
   xmlns:dc="http://purl.org/dc/elements/1.1/"
   xmlns:cc="http://creativecommons.org/ns#"
   xmlns:rdf="http://www.w3.org/1999/02/22-rdf-syntax-ns#"
   xmlns:svg="http://www.w3.org/2000/svg"
   xmlns="http://www.w3.org/2000/svg"
   xmlns:sodipodi="http://sodipodi.sourceforge.net/DTD/sodipodi-0.dtd"
   xmlns:inkscape="http://www.inkscape.org/namespaces/inkscape"
   x="0"
   y="0"
   width="300.5"
   height="64"
   id="svg69215"
   version="1.1"
   inkscape:version="0.48.2 r9819"
   sodipodi:docname="LayerViewer Top-Level Operator.svg">
  <metadata
     id="metadata69240">
    <rdf:RDF>
      <cc:Work
         rdf:about="">
        <dc:format>image/svg+xml</dc:format>
        <dc:type
           rdf:resource="http://purl.org/dc/dcmitype/StillImage" />
        <dc:title></dc:title>
      </cc:Work>
    </rdf:RDF>
  </metadata>
  <sodipodi:namedview
     pagecolor="#ffffff"
     bordercolor="#666666"
     borderopacity="1"
     objecttolerance="10"
     gridtolerance="10"
     guidetolerance="10"
     inkscape:pageopacity="0"
     inkscape:pageshadow="2"
     inkscape:window-width="640"
     inkscape:window-height="480"
     id="namedview69238"
     showgrid="false"
     fit-margin-top="0"
     fit-margin-left="0"
     fit-margin-right="0"
     fit-margin-bottom="0"
     inkscape:zoom="1.2533973"
     inkscape:cx="160.92972"
     inkscape:cy="37.576607"
     inkscape:window-x="0"
     inkscape:window-y="0"
     inkscape:window-maximized="0"
     inkscape:current-layer="svg69215" />
  <defs
     id="defs31674">
    <marker
       inkscape:stockid="Arrow2Lstart"
       orient="auto"
       refY="0"
       refX="0"
       id="Arrow2Lstart"
       style="overflow:visible">
      <path
         id="path26427"
         style="font-size:12px;fill-rule:evenodd;stroke-width:0.625;stroke-linejoin:round"
         d="M 8.7185878,4.0337352 -2.2072895,0.01601326 8.7185884,-4.0017078 c -1.7454984,2.3720609 -1.7354408,5.6174519 -6e-7,8.035443 z"
         transform="matrix(1.1,0,0,1.1,1.1,0)"
         inkscape:connector-curvature="0" />
    </marker>
    <marker
       inkscape:stockid="Arrow1Mend"
       orient="auto"
       refY="0"
       refX="0"
       id="Arrow1Mend"
       style="overflow:visible">
      <path
         id="path26418"
         d="M 0,0 5,-5 -12.5,0 5,5 0,0 z"
         style="fill-rule:evenodd;stroke:#000000;stroke-width:1pt;marker-start:none"
         transform="matrix(-0.4,0,0,-0.4,-4,0)"
         inkscape:connector-curvature="0" />
    </marker>
    <marker
       inkscape:stockid="Arrow1Lend"
       orient="auto"
       refY="0"
       refX="0"
       id="Arrow1Lend"
       style="overflow:visible">
      <path
         id="path26412"
         d="M 0,0 5,-5 -12.5,0 5,5 0,0 z"
         style="fill-rule:evenodd;stroke:#000000;stroke-width:1pt;marker-start:none"
         transform="matrix(-0.8,0,0,-0.8,-10,0)"
         inkscape:connector-curvature="0" />
    </marker>
  </defs>
  <rect
     id="rect69226"
     inkscape:connector-avoid="false"
     ry="13"
     rx="13"
     style="fill-opacity:0;stroke:#000000;stroke-width:2"
     height="62"
     width="283"
     y="1"
     x="16.5" />
  <path
     style="stroke:#000000;stroke-width:1"
     inkscape:connector-curvature="0"
     id="path69228"
     d="m 16.5,16 283,0 z" />
  <text
     style="text-anchor:middle"
     id="text69230"
     x="157.5"
     y="14">LayerViewer Top-Level Operator</text>
  <circle
     cx="8"
     cy="8"
     r="5"
     id="0x11a2c61d0"
     class="RawInput"
     d="m 13,8 c 0,2.761424 -2.238576,5 -5,5 C 5.2385763,13 3,10.761424 3,8 3,5.2385763 5.2385763,3 8,3 c 2.761424,0 5,2.2385763 5,5 z"
     sodipodi:cx="8"
     sodipodi:cy="8"
     sodipodi:rx="5"
     sodipodi:ry="5"
     style="fill:#ffffff;stroke:#000000"
     transform="translate(0.5,36.5)" />
  <rect
     x="0.5"
     y="36.5"
     width="16"
     height="16"
     id="0x1100dcf50"
     style="fill-opacity:0;stroke:#000000;stroke-width:1" />
  <text
     style="text-anchor:start"
     id="text69236"
     x="21.5"
     y="44.5">RawInput</text>
</svg>
