<?xml version="1.0" encoding="UTF-8" standalone="no"?>
<svg
   xmlns:dc="http://purl.org/dc/elements/1.1/"
   xmlns:cc="http://creativecommons.org/ns#"
   xmlns:rdf="http://www.w3.org/1999/02/22-rdf-syntax-ns#"
   xmlns:svg="http://www.w3.org/2000/svg"
   xmlns="http://www.w3.org/2000/svg"
   xmlns:sodipodi="http://sodipodi.sourceforge.net/DTD/sodipodi-0.dtd"
   xmlns:inkscape="http://www.inkscape.org/namespaces/inkscape"
   x="0"
   y="0"
   width="484"
   height="258"
   id="svg71919"
   version="1.1"
   inkscape:version="0.48.2 r9819"
   sodipodi:docname="opPixelClassification.svg">
  <metadata
     id="metadata72030">
    <rdf:RDF>
      <cc:Work
         rdf:about="">
        <dc:format>image/svg+xml</dc:format>
        <dc:type
           rdf:resource="http://purl.org/dc/dcmitype/StillImage" />
        <dc:title></dc:title>
      </cc:Work>
    </rdf:RDF>
  </metadata>
  <sodipodi:namedview
     pagecolor="#ffffff"
     bordercolor="#666666"
     borderopacity="1"
     objecttolerance="10"
     gridtolerance="10"
     guidetolerance="10"
     inkscape:pageopacity="0"
     inkscape:pageshadow="2"
     inkscape:window-width="1680"
     inkscape:window-height="1002"
     id="namedview72028"
     showgrid="false"
     fit-margin-top="0"
     fit-margin-left="0"
     fit-margin-right="0"
     fit-margin-bottom="0"
     inkscape:zoom="1.7867578"
     inkscape:cx="316.38285"
     inkscape:cy="198.85021"
     inkscape:window-x="0"
     inkscape:window-y="0"
     inkscape:window-maximized="1"
     inkscape:current-layer="svg71919" />
  <defs
     id="defs31674">
    <marker
       inkscape:stockid="Arrow2Lstart"
       orient="auto"
       refY="0"
       refX="0"
       id="Arrow2Lstart"
       style="overflow:visible">
      <path
         id="path26427"
         style="font-size:12px;fill-rule:evenodd;stroke-width:0.625;stroke-linejoin:round"
         d="M 8.7185878,4.0337352 -2.2072895,0.01601326 8.7185884,-4.0017078 c -1.7454984,2.3720609 -1.7354408,5.6174519 -6e-7,8.035443 z"
         transform="matrix(1.1,0,0,1.1,1.1,0)"
         inkscape:connector-curvature="0" />
    </marker>
    <marker
       inkscape:stockid="Arrow1Mend"
       orient="auto"
       refY="0"
       refX="0"
       id="Arrow1Mend"
       style="overflow:visible">
      <path
         id="path26418"
         d="M 0,0 5,-5 -12.5,0 5,5 0,0 z"
         style="fill-rule:evenodd;stroke:#000000;stroke-width:1pt;marker-start:none"
         transform="matrix(-0.4,0,0,-0.4,-4,0)"
         inkscape:connector-curvature="0" />
    </marker>
    <marker
       inkscape:stockid="Arrow1Lend"
       orient="auto"
       refY="0"
       refX="0"
       id="Arrow1Lend"
       style="overflow:visible">
      <path
         id="path26412"
         d="M 0,0 5,-5 -12.5,0 5,5 0,0 z"
         style="fill-rule:evenodd;stroke:#000000;stroke-width:1pt;marker-start:none"
         transform="matrix(-0.8,0,0,-0.8,-10,0)"
         inkscape:connector-curvature="0" />
    </marker>
  </defs>
  <rect
     id="rect71930"
     inkscape:connector-avoid="false"
     ry="13"
     rx="13"
     style="fill-opacity:0;stroke:#000000;stroke-width:2"
     height="256"
     width="445"
     y="1"
     x="16.5" />
  <path
     style="stroke:#000000;stroke-width:1"
     inkscape:connector-curvature="0"
     id="path71932"
     d="m 16.5,16 445,0 z" />
  <text
     style="text-anchor:middle"
     id="text71934"
     x="238.5"
     y="14">OpPixelClassification</text>
  <circle
     cx="8"
     cy="8"
     r="5"
     id="0x124f4a2d0"
     class="InputImages"
     d="m 13,8 c 0,2.761424 -2.238576,5 -5,5 C 5.2385763,13 3,10.761424 3,8 3,5.2385763 5.2385763,3 8,3 c 2.761424,0 5,2.2385763 5,5 z"
     sodipodi:cx="8"
     sodipodi:cy="8"
     sodipodi:rx="5"
     sodipodi:ry="5"
     style="fill:#ffffff;stroke:#000000"
     transform="translate(0.5,31.5)" />
  <rect
     x="0.5"
     y="31.5"
     width="16"
     height="16"
     id="0x111030c50"
     style="fill-opacity:0;stroke:#000000;stroke-width:1" />
  <text
     style="text-anchor:start"
     id="text71940"
     x="21.5"
     y="39.5">InputImages</text>
  <circle
     cx="8"
     cy="8"
     r="5"
     id="0x121e79e10"
     class="LabelInputs"
     d="m 13,8 c 0,2.761424 -2.238576,5 -5,5 C 5.2385763,13 3,10.761424 3,8 3,5.2385763 5.2385763,3 8,3 c 2.761424,0 5,2.2385763 5,5 z"
     sodipodi:cx="8"
     sodipodi:cy="8"
     sodipodi:rx="5"
     sodipodi:ry="5"
     style="fill:#ffffff;stroke:#000000"
     transform="translate(0.5,55.5)" />
  <rect
     x="0.5"
     y="55.5"
     width="16"
     height="16"
     id="0x111033050"
     style="fill-opacity:0;stroke:#000000;stroke-width:1" />
  <text
     style="text-anchor:start"
     id="text71946"
     x="21.5"
     y="63.5">LabelInputs</text>
  <circle
     cx="8"
     cy="8"
     r="5"
     id="0x1258094d0"
     class="LabelsAllowedFlags"
     d="m 13,8 c 0,2.761424 -2.238576,5 -5,5 C 5.2385763,13 3,10.761424 3,8 3,5.2385763 5.2385763,3 8,3 c 2.761424,0 5,2.2385763 5,5 z"
     sodipodi:cx="8"
     sodipodi:cy="8"
     sodipodi:rx="5"
     sodipodi:ry="5"
     style="fill:#ffffff;stroke:#000000"
     transform="translate(0.5,79.5)" />
  <rect
     x="0.5"
     y="79.5"
     width="16"
     height="16"
     id="0x111033410"
     style="fill-opacity:0;stroke:#000000;stroke-width:1" />
  <text
     style="text-anchor:start"
     id="text71952"
     x="21.5"
     y="87.5">LabelsAllowedFlags</text>
  <circle
     cx="8"
     cy="8"
     r="5"
     id="0x121e14d10"
     class="FeatureImages"
     d="m 13,8 c 0,2.761424 -2.238576,5 -5,5 C 5.2385763,13 3,10.761424 3,8 3,5.2385763 5.2385763,3 8,3 c 2.761424,0 5,2.2385763 5,5 z"
     sodipodi:cx="8"
     sodipodi:cy="8"
     sodipodi:rx="5"
     sodipodi:ry="5"
     style="fill:#ffffff;stroke:#000000"
     transform="translate(0.5,103.5)" />
  <rect
     x="0.5"
     y="103.5"
     width="16"
     height="16"
     id="0x1110337d0"
     style="fill-opacity:0;stroke:#000000;stroke-width:1" />
  <text
     style="text-anchor:start"
     id="text71958"
     x="21.5"
     y="111.5">FeatureImages</text>
  <circle
     cx="8"
     cy="8"
     r="5"
     id="0x121e1c4d0"
     class="CachedFeatureImages"
     d="m 13,8 c 0,2.761424 -2.238576,5 -5,5 C 5.2385763,13 3,10.761424 3,8 3,5.2385763 5.2385763,3 8,3 c 2.761424,0 5,2.2385763 5,5 z"
     sodipodi:cx="8"
     sodipodi:cy="8"
     sodipodi:rx="5"
     sodipodi:ry="5"
     style="fill:#ffffff;stroke:#000000"
     transform="translate(0.5,127.5)" />
  <rect
     x="0.5"
     y="127.5"
     width="16"
     height="16"
     id="0x111033b90"
     style="fill-opacity:0;stroke:#000000;stroke-width:1" />
  <text
     style="text-anchor:start"
     id="text71964"
     x="21.5"
     y="135.5">CachedFeatureImages</text>
  <circle
     style="fill:#ffffff;stroke:#000000"
     sodipodi:ry="5"
     sodipodi:rx="5"
     sodipodi:cy="155.5"
     sodipodi:cx="11"
     d="m 16,155.5 c 0,2.76142 -2.238576,5 -5,5 -2.7614237,0 -5,-2.23858 -5,-5 0,-2.76142 2.2385763,-5 5,-5 2.761424,0 5,2.23858 5,5 z"
     class="FreezePredictions"
     id="0x111033f50"
     r="5"
     cy="155.5"
     cx="11"
     transform="translate(0.5,1)" />
  <text
     style="text-anchor:start"
     id="text71967"
     x="21.5"
     y="156.5">FreezePredictions</text>
  <circle
     cx="8"
     cy="8"
     r="5"
     id="0x121e30250"
     class="PredictionsFromDisk"
     d="m 13,8 c 0,2.761424 -2.238576,5 -5,5 C 5.2385763,13 3,10.761424 3,8 3,5.2385763 5.2385763,3 8,3 c 2.761424,0 5,2.2385763 5,5 z"
     sodipodi:cx="8"
     sodipodi:cy="8"
     sodipodi:rx="5"
     sodipodi:ry="5"
     style="fill:#ffffff;stroke:#000000"
     transform="translate(0.5,169.5)" />
  <rect
     x="0.5"
     y="169.5"
     width="16"
     height="16"
     id="0x111036350"
     style="fill-opacity:0;stroke:#000000;stroke-width:1" />
  <text
     style="text-anchor:start"
     id="text71973"
     x="21.5"
     y="177.5">PredictionsFromDisk</text>
  <circle
     cx="8"
     cy="8"
     r="5"
     id="0x121e25150"
     class="PredictionProbabilities"
     d="m 13,8 c 0,2.761424 -2.238576,5 -5,5 C 5.2385763,13 3,10.761424 3,8 3,5.2385763 5.2385763,3 8,3 c 2.761424,0 5,2.2385763 5,5 z"
     sodipodi:cx="8"
     sodipodi:cy="8"
     sodipodi:rx="5"
     sodipodi:ry="5"
     style="fill:#ffffff;stroke:#000000"
     transform="translate(461.5,25.5)" />
  <rect
     x="461.5"
     y="25.5"
     width="16"
     height="16"
     id="0x111036710"
     style="fill-opacity:0;stroke:#000000;stroke-width:1" />
  <text
     style="text-anchor:end"
     id="text71979"
     x="456.5"
     y="33.5">PredictionProbabilities</text>
  <rect
     style="fill-opacity:0;stroke:#000000;stroke-width:1"
     id="0x121e43650"
     height="6"
     width="16"
     y="46.5"
     x="464.5" />
  <rect
     x="461.5"
     y="43.5"
     width="22"
     height="15"
     id="0x111036ad0"
     style="fill-opacity:0;stroke:#000000;stroke-width:1" />
  <text
     style="text-anchor:end"
     id="text71987"
     x="456.5"
     y="50.5">PredictionProbabilityChannels</text>
  <rect
     style="fill-opacity:0;stroke:#000000;stroke-width:1"
     id="0x121e4f290"
     height="6"
     width="16"
     y="63.5"
     x="464.5" />
  <rect
     x="461.5"
     y="60.5"
     width="22"
     height="15"
     id="0x111036e90"
     style="fill-opacity:0;stroke:#000000;stroke-width:1" />
  <text
     style="text-anchor:end"
     id="text71995"
     x="456.5"
     y="67.5">SegmentationChannels</text>
  <circle
     style="fill:#ffffff;stroke:#000000"
     sodipodi:ry="5"
     sodipodi:rx="5"
     sodipodi:cy="81.5"
     sodipodi:cx="466"
     d="m 471,81.5 c 0,2.761424 -2.23858,5 -5,5 -2.76142,0 -5,-2.238576 -5,-5 0,-2.761424 2.23858,-5 5,-5 2.76142,0 5,2.238576 5,5 z"
     class="MaxLabelValue"
     id="0x111039290"
     r="5"
     cy="81.5"
     cx="466"
     transform="translate(0.5,1)" />
  <text
     style="text-anchor:end"
     id="text71998"
     x="456.5"
     y="82.5">MaxLabelValue</text>
  <circle
     cx="8"
     cy="8"
     r="5"
     id="0x121e81550"
     class="LabelImages"
     d="m 13,8 c 0,2.761424 -2.238576,5 -5,5 C 5.2385763,13 3,10.761424 3,8 3,5.2385763 5.2385763,3 8,3 c 2.761424,0 5,2.2385763 5,5 z"
     sodipodi:cx="8"
     sodipodi:cy="8"
     sodipodi:rx="5"
     sodipodi:ry="5"
     style="fill:#ffffff;stroke:#000000"
     transform="translate(461.5,89.5)" />
  <rect
     x="461.5"
     y="89.5"
     width="16"
     height="16"
     id="0x111039650"
     style="fill-opacity:0;stroke:#000000;stroke-width:1" />
  <text
     style="text-anchor:end"
     id="text72004"
     x="456.5"
     y="97.5">LabelImages</text>
  <circle
     cx="8"
     cy="8"
     r="5"
     id="0x121e87890"
     class="NonzeroLabelBlocks"
     d="m 13,8 c 0,2.761424 -2.238576,5 -5,5 C 5.2385763,13 3,10.761424 3,8 3,5.2385763 5.2385763,3 8,3 c 2.761424,0 5,2.2385763 5,5 z"
     sodipodi:cx="8"
     sodipodi:cy="8"
     sodipodi:rx="5"
     sodipodi:ry="5"
     style="fill:#ffffff;stroke:#000000"
     transform="translate(461.5,107.5)" />
  <rect
     x="461.5"
     y="107.5"
     width="16"
     height="16"
     id="0x111039a10"
     style="fill-opacity:0;stroke:#000000;stroke-width:1" />
  <text
     style="text-anchor:end"
     id="text72010"
     x="456.5"
     y="115.5">NonzeroLabelBlocks</text>
  <circle
     style="fill:#ffffff;stroke:#000000"
     sodipodi:ry="5"
     sodipodi:rx="5"
     sodipodi:cy="129.5"
     sodipodi:cx="466"
     d="m 471,129.5 c 0,2.76142 -2.23858,5 -5,5 -2.76142,0 -5,-2.23858 -5,-5 0,-2.76142 2.23858,-5 5,-5 2.76142,0 5,2.23858 5,5 z"
     class="Classifier"
     id="0x111039dd0"
     r="5"
     cy="129.5"
     cx="466"
     transform="translate(0.5,1)" />
  <text
     style="text-anchor:end"
     id="text72013"
     x="456.5"
     y="130.5">Classifier</text>
  <circle
     cx="8"
     cy="8"
     r="5"
     id="0x121e60b90"
     class="CachedPredictionProbabilities"
     d="m 13,8 c 0,2.761424 -2.238576,5 -5,5 C 5.2385763,13 3,10.761424 3,8 3,5.2385763 5.2385763,3 8,3 c 2.761424,0 5,2.2385763 5,5 z"
     sodipodi:cx="8"
     sodipodi:cy="8"
     sodipodi:rx="5"
     sodipodi:ry="5"
     style="fill:#ffffff;stroke:#000000"
     transform="translate(461.5,137.5)" />
  <rect
     x="461.5"
     y="137.5"
     width="16"
     height="16"
     id="0x11103c1d0"
     style="fill-opacity:0;stroke:#000000;stroke-width:1" />
  <text
     style="text-anchor:end"
     id="text72019"
     x="456.5"
     y="145.5">CachedPredictionProbabilities</text>
  <circle
     cx="8"
     cy="8"
     r="5"
     id="0x121e5b0d0"
     class="UncertaintyEstimate"
     d="m 13,8 c 0,2.761424 -2.238576,5 -5,5 C 5.2385763,13 3,10.761424 3,8 3,5.2385763 5.2385763,3 8,3 c 2.761424,0 5,2.2385763 5,5 z"
     sodipodi:cx="8"
     sodipodi:cy="8"
     sodipodi:rx="5"
     sodipodi:ry="5"
     style="fill:#ffffff;stroke:#000000"
     transform="translate(461.5,155.5)" />
  <rect
     x="461.5"
     y="155.5"
     width="16"
     height="16"
     id="0x11103c590"
     style="fill-opacity:0;stroke:#000000;stroke-width:1" />
  <text
     style="text-anchor:end"
     id="text72025"
     x="456.5"
     y="163.5">UncertaintyEstimate</text>
  <path
     inkscape:connection-start="#0x111030c50"
     inkscape:connection-end="#0x111033050"
     id="pathTo0x111033050"
     style="fill:none;stroke:#000000;stroke-width:1px;stroke-linecap:butt;stroke-linejoin:miter;stroke-opacity:1;marker-end:url(#Arrow1Mend)"
     d="m 8.5,47.5 0,8"
     inkscape:connection-start-point="d4"
     inkscape:connection-end-point="d4"
     inkscape:connector-type="polyline"
     inkscape:connector-curvature="0" />
</svg>
