<?xml version="1.0" encoding="UTF-8" standalone="no"?>
<svg
   xmlns:dc="http://purl.org/dc/elements/1.1/"
   xmlns:cc="http://creativecommons.org/ns#"
   xmlns:rdf="http://www.w3.org/1999/02/22-rdf-syntax-ns#"
   xmlns:svg="http://www.w3.org/2000/svg"
   xmlns="http://www.w3.org/2000/svg"
   xmlns:sodipodi="http://sodipodi.sourceforge.net/DTD/sodipodi-0.dtd"
   xmlns:inkscape="http://www.inkscape.org/namespaces/inkscape"
   x="0"
   y="0"
   width="197"
   height="78"
   id="svg3908"
   version="1.1"
   inkscape:version="0.48.2 r9819"
   sodipodi:docname="opSum.svg">
  <metadata
     id="metadata3936">
    <rdf:RDF>
      <cc:Work
         rdf:about="">
        <dc:format>image/svg+xml</dc:format>
        <dc:type
           rdf:resource="http://purl.org/dc/dcmitype/StillImage" />
        <dc:title />
      </cc:Work>
    </rdf:RDF>
  </metadata>
  <sodipodi:namedview
     pagecolor="#ffffff"
     bordercolor="#666666"
     borderopacity="1"
     objecttolerance="10"
     gridtolerance="10"
     guidetolerance="10"
     inkscape:pageopacity="0"
     inkscape:pageshadow="2"
     inkscape:window-width="640"
     inkscape:window-height="480"
     id="namedview3934"
     showgrid="false"
     inkscape:zoom="2.2909746"
     inkscape:cx="98.22914"
     inkscape:cy="39.10178"
     inkscape:window-x="0"
     inkscape:window-y="0"
     inkscape:window-maximized="0"
     inkscape:current-layer="svg3908"
     fit-margin-top="0"
     fit-margin-left="0"
     fit-margin-right="0"
     fit-margin-bottom="0" />
  <defs
     id="defs31674">
    <marker
       inkscape:stockid="Arrow2Lstart"
       orient="auto"
       refY="0"
       refX="0"
       id="Arrow2Lstart"
       style="overflow:visible">
      <path
         id="path26427"
         style="font-size:12px;fill-rule:evenodd;stroke-width:0.625;stroke-linejoin:round"
         d="M 8.7185878,4.0337352 -2.2072895,0.01601326 8.7185884,-4.0017078 c -1.7454984,2.3720609 -1.7354408,5.6174519 -6e-7,8.035443 z"
         transform="matrix(1.1,0,0,1.1,1.1,0)"
         inkscape:connector-curvature="0" />
    </marker>
    <marker
       inkscape:stockid="Arrow1Mend"
       orient="auto"
       refY="0"
       refX="0"
       id="Arrow1Mend"
       style="overflow:visible">
      <path
         id="path26418"
         d="M 0,0 5,-5 -12.5,0 5,5 0,0 z"
         style="fill-rule:evenodd;stroke:#000000;stroke-width:1pt;marker-start:none"
         transform="matrix(-0.4,0,0,-0.4,-4,0)"
         inkscape:connector-curvature="0" />
    </marker>
    <marker
       inkscape:stockid="Arrow1Lend"
       orient="auto"
       refY="0"
       refX="0"
       id="Arrow1Lend"
       style="overflow:visible">
      <path
         id="path26412"
         d="M 0,0 5,-5 -12.5,0 5,5 0,0 z"
         style="fill-rule:evenodd;stroke:#000000;stroke-width:1pt;marker-start:none"
         transform="matrix(-0.8,0,0,-0.8,-10,0)"
         inkscape:connector-curvature="0" />
    </marker>
  </defs>
  <g
     class="OpSum"
     transform="translate(0.5,1)"
     id="g3917">
    <rect
       x="10"
       y="0"
       width="176"
       height="76"
       style="fill-opacity:0;stroke:#000000;stroke-width:2"
       rx="13"
       ry="13"
       inkscape:connector-avoid="false"
       id="rect3919" />
    <path
       d="m 10,15 176,0 z"
       id="path3921"
       inkscape:connector-curvature="0"
       style="stroke:#000000;stroke-width:1" />
    <text
       y="13"
       x="98"
       id="text3923"
       style="text-anchor:middle">OpSum</text>
    <circle
       cx="5"
       cy="35.5"
       r="5"
       id="0x1090192d0"
       class="InputA"
       d="m 10,35.5 c 0,2.761424 -2.2385763,5 -5,5 -2.7614237,0 -5,-2.238576 -5,-5 0,-2.761424 2.2385763,-5 5,-5 2.7614237,0 5,2.238576 5,5 z"
       sodipodi:cx="5"
       sodipodi:cy="35.5"
       sodipodi:rx="5"
       sodipodi:ry="5"
       style="fill:#ffffff;stroke:#000000" />
    <text
       y="35.5"
       x="15"
       id="text3926"
       style="text-anchor:start">InputA</text>
    <circle
       cx="5"
       cy="53.5"
       r="5"
       id="0x109019690"
       class="InputB"
       d="m 10,53.5 c 0,2.761424 -2.2385763,5 -5,5 -2.7614237,0 -5,-2.238576 -5,-5 0,-2.761424 2.2385763,-5 5,-5 2.7614237,0 5,2.238576 5,5 z"
       sodipodi:cx="5"
       sodipodi:cy="53.5"
       sodipodi:rx="5"
       sodipodi:ry="5"
       style="fill:#ffffff;stroke:#000000" />
    <text
       y="53.5"
       x="15"
       id="text3929"
       style="text-anchor:start">InputB</text>
    <circle
       cx="191"
       cy="50.5"
       r="5"
       id="0x109019a50"
       class="Output"
       d="m 196,50.5 c 0,2.761424 -2.23858,5 -5,5 -2.76142,0 -5,-2.238576 -5,-5 0,-2.761424 2.23858,-5 5,-5 2.76142,0 5,2.238576 5,5 z"
       sodipodi:cx="191"
       sodipodi:cy="50.5"
       sodipodi:rx="5"
       sodipodi:ry="5"
       style="fill:#ffffff;stroke:#000000" />
    <text
       y="50.5"
       x="181"
       id="text3932"
       style="text-anchor:end">Output</text>
  </g>
</svg>
