<?xml version="1.0" encoding="UTF-8" standalone="no"?>
<svg
   xmlns:dc="http://purl.org/dc/elements/1.1/"
   xmlns:cc="http://creativecommons.org/ns#"
   xmlns:rdf="http://www.w3.org/1999/02/22-rdf-syntax-ns#"
   xmlns:svg="http://www.w3.org/2000/svg"
   xmlns="http://www.w3.org/2000/svg"
   xmlns:sodipodi="http://sodipodi.sourceforge.net/DTD/sodipodi-0.dtd"
   xmlns:inkscape="http://www.inkscape.org/namespaces/inkscape"
   x="0"
   y="0"
   width="605"
   height="356"
   id="svg55128"
   version="1.1"
   inkscape:version="0.48.2 r9819"
   sodipodi:docname="canvas.svg">
  <metadata
     id="metadata55208">
    <rdf:RDF>
      <cc:Work
         rdf:about="">
        <dc:format>image/svg+xml</dc:format>
        <dc:type
           rdf:resource="http://purl.org/dc/dcmitype/StillImage" />
        <dc:title></dc:title>
      </cc:Work>
    </rdf:RDF>
  </metadata>
  <sodipodi:namedview
     pagecolor="#ffffff"
     bordercolor="#666666"
     borderopacity="1"
     objecttolerance="10"
     gridtolerance="10"
     guidetolerance="10"
     inkscape:pageopacity="0"
     inkscape:pageshadow="2"
     inkscape:window-width="812"
     inkscape:window-height="684"
     id="namedview55206"
     showgrid="false"
     fit-margin-top="0"
     fit-margin-left="0"
     fit-margin-right="0"
     fit-margin-bottom="0"
     inkscape:zoom="0.8960625"
     inkscape:cx="315.97069"
     inkscape:cy="127.48689"
     inkscape:window-x="273"
     inkscape:window-y="85"
     inkscape:window-maximized="0"
     inkscape:current-layer="svg55128" />
  <defs
     id="defs31674">
    <marker
       inkscape:stockid="Arrow2Lstart"
       orient="auto"
       refY="0"
       refX="0"
       id="Arrow2Lstart"
       style="overflow:visible">
      <path
         id="path26427"
         style="font-size:12px;fill-rule:evenodd;stroke-width:0.625;stroke-linejoin:round"
         d="M 8.7185878,4.0337352 -2.2072895,0.01601326 8.7185884,-4.0017078 c -1.7454984,2.3720609 -1.7354408,5.6174519 -6e-7,8.035443 z"
         transform="matrix(1.1,0,0,1.1,1.1,0)"
         inkscape:connector-curvature="0" />
    </marker>
    <marker
       inkscape:stockid="Arrow1Mend"
       orient="auto"
       refY="0"
       refX="0"
       id="Arrow1Mend"
       style="overflow:visible">
      <path
         id="path26418"
         d="M 0,0 5,-5 -12.5,0 5,5 0,0 z"
         style="fill-rule:evenodd;stroke:#000000;stroke-width:1pt;marker-start:none"
         transform="matrix(-0.4,0,0,-0.4,-4,0)"
         inkscape:connector-curvature="0" />
    </marker>
    <marker
       inkscape:stockid="Arrow1Lend"
       orient="auto"
       refY="0"
       refX="0"
       id="Arrow1Lend"
       style="overflow:visible">
      <path
         id="path26412"
         d="M 0,0 5,-5 -12.5,0 5,5 0,0 z"
         style="fill-rule:evenodd;stroke:#000000;stroke-width:1pt;marker-start:none"
         transform="matrix(-0.8,0,0,-0.8,-10,0)"
         inkscape:connector-curvature="0" />
    </marker>
  </defs>
  <g
     class="Wrapped OpThreshold"
     transform="translate(0.5,1)"
     id="g55137">
    <g
       class="OpThreshold"
       transform="translate(179,51)"
       id="g55139">
      <rect
         x="10"
         y="0"
         width="176"
         height="76"
         style="fill-opacity:0;stroke:#000000;stroke-width:2"
         rx="13"
         ry="13"
         inkscape:connector-avoid="false"
         id="rect55141" />
      <path
         d="m 10,15 176,0 z"
         id="path55143"
         inkscape:connector-curvature="0"
         style="stroke:#000000;stroke-width:1" />
      <text
         y="13"
         x="98"
         id="text55145"
         style="text-anchor:middle">OpThreshold</text>
      <circle
         cx="5"
         cy="35.5"
         r="5"
         id="0x10b7ceb10"
         class="ThresholdLevel"
         d="m 10,35.5 c 0,2.761424 -2.2385763,5 -5,5 -2.7614237,0 -5,-2.238576 -5,-5 0,-2.761424 2.2385763,-5 5,-5 2.7614237,0 5,2.238576 5,5 z"
         sodipodi:cx="5"
         sodipodi:cy="35.5"
         sodipodi:rx="5"
         sodipodi:ry="5"
         style="fill:#ffffff;stroke:#000000" />
      <text
         y="35.5"
         x="15"
         id="text55148"
         style="text-anchor:start">ThresholdLevel</text>
      <circle
         cx="5"
         cy="53.5"
         r="5"
         id="0x10b7ceed0"
         class="Input"
         d="m 10,53.5 c 0,2.761424 -2.2385763,5 -5,5 -2.7614237,0 -5,-2.238576 -5,-5 0,-2.761424 2.2385763,-5 5,-5 2.7614237,0 5,2.238576 5,5 z"
         sodipodi:cx="5"
         sodipodi:cy="53.5"
         sodipodi:rx="5"
         sodipodi:ry="5"
         style="fill:#ffffff;stroke:#000000" />
      <text
         y="53.5"
         x="15"
         id="text55151"
         style="text-anchor:start">Input</text>
      <circle
         cx="191"
         cy="50.5"
         r="5"
         id="0x10b7d12d0"
         class="Output"
         d="m 196,50.5 c 0,2.761424 -2.23858,5 -5,5 -2.76142,0 -5,-2.238576 -5,-5 0,-2.761424 2.23858,-5 5,-5 2.76142,0 5,2.238576 5,5 z"
         sodipodi:cx="191"
         sodipodi:cy="50.5"
         sodipodi:rx="5"
         sodipodi:ry="5"
         style="fill:#ffffff;stroke:#000000" />
      <text
         y="50.5"
         x="181"
         id="text55154"
         style="text-anchor:end">Output</text>
    </g>
    <g
       class="OpThreshold"
       transform="translate(179,202)"
       id="g55156">
      <rect
         x="10"
         y="0"
         width="176"
         height="76"
         style="fill-opacity:0;stroke:#000000;stroke-width:2"
         rx="13"
         ry="13"
         inkscape:connector-avoid="false"
         id="rect55158" />
      <path
         d="m 10,15 176,0 z"
         id="path55160"
         inkscape:connector-curvature="0"
         style="stroke:#000000;stroke-width:1" />
      <text
         y="13"
         x="98"
         id="text55162"
         style="text-anchor:middle">OpThreshold</text>
      <circle
         cx="5"
         cy="35.5"
         r="5"
         id="0x10b7d32d0"
         class="ThresholdLevel"
         d="m 10,35.5 c 0,2.761424 -2.2385763,5 -5,5 -2.7614237,0 -5,-2.238576 -5,-5 0,-2.761424 2.2385763,-5 5,-5 2.7614237,0 5,2.238576 5,5 z"
         sodipodi:cx="5"
         sodipodi:cy="35.5"
         sodipodi:rx="5"
         sodipodi:ry="5"
         style="fill:#ffffff;stroke:#000000" />
      <text
         y="35.5"
         x="15"
         id="text55165"
         style="text-anchor:start">ThresholdLevel</text>
      <circle
         cx="5"
         cy="53.5"
         r="5"
         id="0x10b7d3690"
         class="Input"
         d="m 10,53.5 c 0,2.761424 -2.2385763,5 -5,5 -2.7614237,0 -5,-2.238576 -5,-5 0,-2.761424 2.2385763,-5 5,-5 2.7614237,0 5,2.238576 5,5 z"
         sodipodi:cx="5"
         sodipodi:cy="53.5"
         sodipodi:rx="5"
         sodipodi:ry="5"
         style="fill:#ffffff;stroke:#000000" />
      <text
         y="53.5"
         x="15"
         id="text55168"
         style="text-anchor:start">Input</text>
      <circle
         cx="191"
         cy="50.5"
         r="5"
         id="0x10b7d3a50"
         class="Output"
         d="m 196,50.5 c 0,2.761424 -2.23858,5 -5,5 -2.76142,0 -5,-2.238576 -5,-5 0,-2.761424 2.23858,-5 5,-5 2.76142,0 5,2.238576 5,5 z"
         sodipodi:cx="191"
         sodipodi:cy="50.5"
         sodipodi:rx="5"
         sodipodi:ry="5"
         style="fill:#ffffff;stroke:#000000" />
      <text
         y="50.5"
         x="181"
         id="text55171"
         style="text-anchor:end">Output</text>
    </g>
    <rect
       x="16"
       y="0"
       width="572"
       height="354"
       style="fill-opacity:0;stroke:#000000;stroke-width:2"
       rx="13"
       ry="13"
       inkscape:connector-avoid="false"
       id="rect55173" />
    <path
       d="m 16,15 572,0 z"
       id="path55175"
       inkscape:connector-curvature="0"
       style="stroke:#000000;stroke-width:1" />
    <text
       y="13"
       x="302"
       id="text55177"
       style="text-anchor:middle">Wrapped OpThreshold</text>
    <g
       class="ThresholdLevel"
       transform="translate(0,112.5)"
       id="g55179">
      <circle
         cx="8"
         cy="8"
         r="5"
         id="0x10b7cead0"
         class="ThresholdLevel"
         d="m 13,8 c 0,2.761424 -2.238576,5 -5,5 C 5.2385763,13 3,10.761424 3,8 3,5.2385763 5.2385763,3 8,3 c 2.761424,0 5,2.2385763 5,5 z"
         sodipodi:cx="8"
         sodipodi:cy="8"
         sodipodi:rx="5"
         sodipodi:ry="5"
         style="fill:#ffffff;stroke:#000000" />
      <circle
         cx="8"
         cy="18"
         r="5"
         id="0x10b7d3290"
         class="ThresholdLevel"
         d="m 13,18 c 0,2.761424 -2.238576,5 -5,5 -2.7614237,0 -5,-2.238576 -5,-5 0,-2.761424 2.2385763,-5 5,-5 2.761424,0 5,2.238576 5,5 z"
         sodipodi:cx="8"
         sodipodi:cy="18"
         sodipodi:rx="5"
         sodipodi:ry="5"
         style="fill:#ffffff;stroke:#000000" />
      <rect
         x="0"
         y="0"
         width="16"
         height="26"
         id="0x10b7cda50"
         style="fill-opacity:0;stroke:#000000;stroke-width:1" />
    </g>
    <text
       y="125.5"
       x="21"
       id="text55184"
       style="text-anchor:start">ThresholdLevel</text>
    <g
       class="Input"
       transform="translate(0,228.5)"
       id="g55186">
      <circle
         cx="8"
         cy="8"
         r="5"
         id="0x10b7cacd0"
         class="Input"
         d="m 13,8 c 0,2.761424 -2.238576,5 -5,5 C 5.2385763,13 3,10.761424 3,8 3,5.2385763 5.2385763,3 8,3 c 2.761424,0 5,2.2385763 5,5 z"
         sodipodi:cx="8"
         sodipodi:cy="8"
         sodipodi:rx="5"
         sodipodi:ry="5"
         style="fill:#ffffff;stroke:#000000" />
      <circle
         cx="8"
         cy="18"
         r="5"
         id="0x10b7ce910"
         class="Input"
         d="m 13,18 c 0,2.761424 -2.238576,5 -5,5 -2.7614237,0 -5,-2.238576 -5,-5 0,-2.761424 2.2385763,-5 5,-5 2.761424,0 5,2.238576 5,5 z"
         sodipodi:cx="8"
         sodipodi:cy="18"
         sodipodi:rx="5"
         sodipodi:ry="5"
         style="fill:#ffffff;stroke:#000000" />
      <rect
         x="0"
         y="0"
         width="16"
         height="26"
         id="0x10b7cde10"
         style="fill-opacity:0;stroke:#000000;stroke-width:1" />
    </g>
    <text
       y="241.5"
       x="21"
       id="text55191"
       style="text-anchor:start">Input</text>
    <g
       class="Output"
       transform="translate(588,176.5)"
       id="g55193">
      <circle
         cx="8"
         cy="8"
         r="5"
         id="0x10b7d1a10"
         class="Output"
         d="m 13,8 c 0,2.761424 -2.238576,5 -5,5 C 5.2385763,13 3,10.761424 3,8 3,5.2385763 5.2385763,3 8,3 c 2.761424,0 5,2.2385763 5,5 z"
         sodipodi:cx="8"
         sodipodi:cy="8"
         sodipodi:rx="5"
         sodipodi:ry="5"
         style="fill:#ffffff;stroke:#000000" />
      <circle
         cx="8"
         cy="18"
         r="5"
         id="0x10b7d51d0"
         class="Output"
         d="m 13,18 c 0,2.761424 -2.238576,5 -5,5 -2.7614237,0 -5,-2.238576 -5,-5 0,-2.761424 2.2385763,-5 5,-5 2.761424,0 5,2.238576 5,5 z"
         sodipodi:cx="8"
         sodipodi:cy="18"
         sodipodi:rx="5"
         sodipodi:ry="5"
         style="fill:#ffffff;stroke:#000000" />
      <rect
         x="0"
         y="0"
         width="16"
         height="26"
         id="0x10b7ce210"
         style="fill-opacity:0;stroke:#000000;stroke-width:1" />
    </g>
    <text
       y="189.5"
       x="583"
       id="text55198"
       style="text-anchor:end">Output</text>
  </g>
  <path
     inkscape:connection-start="#0x10b7d12d0"
     inkscape:connection-end="#0x10b7d1a10"
     id="pathTo0x10b7d1a10"
     style="fill:none;stroke:#000000;stroke-width:1px;stroke-linecap:butt;stroke-linejoin:miter;stroke-opacity:1;marker-end:url(#Arrow1Mend)"
     d="m 375.19476,104.22418 216.61048,79.55164"
     inkscape:connection-start-point="d4"
     inkscape:connection-end-point="d4"
     inkscape:connector-type="polyline"
     inkscape:connector-curvature="0" />
  <path
     inkscape:connection-start="#0x10b7d3a50"
     inkscape:connection-end="#0x10b7d51d0"
     id="pathTo0x10b7d51d0"
     style="fill:none;stroke:#000000;stroke-width:1px;stroke-linecap:butt;stroke-linejoin:miter;stroke-opacity:1;marker-end:url(#Arrow1Mend)"
     d="M 375.34422,252.25679 591.65578,196.74321"
     inkscape:connection-start-point="d4"
     inkscape:connection-end-point="d4"
     inkscape:connector-type="polyline"
     inkscape:connector-curvature="0" />
  <path
     inkscape:connection-start="#0x10b7cead0"
     inkscape:connection-end="#0x10b7ceb10"
     id="pathTo0x10b7ceb10"
     style="fill:none;stroke:#000000;stroke-width:1px;stroke-linecap:butt;stroke-linejoin:miter;stroke-opacity:1;marker-end:url(#Arrow1Mend)"
     d="M 13.410144,120.55145 179.58986,88.44855"
     inkscape:connection-start-point="d4"
     inkscape:connection-end-point="d4"
     inkscape:connector-type="polyline"
     inkscape:connector-curvature="0" />
  <path
     inkscape:connection-start="#0x10b7cacd0"
     inkscape:connection-end="#0x10b7ceed0"
     id="pathTo0x10b7ceed0"
     style="fill:none;stroke:#000000;stroke-width:1px;stroke-linecap:butt;stroke-linejoin:miter;stroke-opacity:1;marker-end:url(#Arrow1Mend)"
     d="M 12.500234,234.49982 180.49977,108.50018"
     inkscape:connection-start-point="d4"
     inkscape:connection-end-point="d4"
     inkscape:connector-type="polyline"
     inkscape:connector-curvature="0" />
  <path
     inkscape:connection-start="#0x10b7d3290"
     inkscape:connection-end="#0x10b7d32d0"
     id="pathTo0x10b7d32d0"
     style="fill:none;stroke:#000000;stroke-width:1px;stroke-linecap:butt;stroke-linejoin:miter;stroke-opacity:1;marker-end:url(#Arrow1Mend)"
     d="M 12.773019,134.0978 180.22698,235.9022"
     inkscape:connection-start-point="d4"
     inkscape:connection-end-point="d4"
     inkscape:connector-type="polyline"
     inkscape:connector-curvature="0" />
  <path
     inkscape:connection-start="#0x10b7ce910"
     inkscape:connection-end="#0x10b7d3690"
     id="pathTo0x10b7d3690"
     style="fill:none;stroke:#000000;stroke-width:1px;stroke-linecap:butt;stroke-linejoin:miter;stroke-opacity:1;marker-end:url(#Arrow1Mend)"
     d="m 13.493592,247.75535 166.012818,8.4893"
     inkscape:connection-start-point="d4"
     inkscape:connection-end-point="d4"
     inkscape:connector-type="polyline"
     inkscape:connector-curvature="0" />
</svg>
