<?xml version="1.0" encoding="UTF-8" standalone="no"?>
<svg
   xmlns:dc="http://purl.org/dc/elements/1.1/"
   xmlns:cc="http://creativecommons.org/ns#"
   xmlns:rdf="http://www.w3.org/1999/02/22-rdf-syntax-ns#"
   xmlns:svg="http://www.w3.org/2000/svg"
   xmlns="http://www.w3.org/2000/svg"
   xmlns:sodipodi="http://sodipodi.sourceforge.net/DTD/sodipodi-0.dtd"
   xmlns:inkscape="http://www.inkscape.org/namespaces/inkscape"
   x="0"
   y="0"
   width="605"
   height="356"
   id="svg56061"
   version="1.1"
   inkscape:version="0.48.2 r9819"
   sodipodi:docname="wrapped_opThreshold_with_shared_threshold.svg">
  <metadata
     id="metadata56137">
    <rdf:RDF>
      <cc:Work
         rdf:about="">
        <dc:format>image/svg+xml</dc:format>
        <dc:type
           rdf:resource="http://purl.org/dc/dcmitype/StillImage" />
        <dc:title></dc:title>
      </cc:Work>
    </rdf:RDF>
  </metadata>
  <sodipodi:namedview
     pagecolor="#ffffff"
     bordercolor="#666666"
     borderopacity="1"
     objecttolerance="10"
     gridtolerance="10"
     guidetolerance="10"
     inkscape:pageopacity="0"
     inkscape:pageshadow="2"
     inkscape:window-width="1281"
     inkscape:window-height="888"
     id="namedview56135"
     showgrid="false"
     inkscape:zoom="1.7144714"
     inkscape:cx="284.48836"
     inkscape:cy="178.49667"
     inkscape:window-x="0"
     inkscape:window-y="0"
     inkscape:window-maximized="0"
     inkscape:current-layer="svg56061"
     fit-margin-top="0"
     fit-margin-left="0"
     fit-margin-right="0"
     fit-margin-bottom="0" />
  <defs
     id="defs31674">
    <marker
       inkscape:stockid="Arrow2Lstart"
       orient="auto"
       refY="0"
       refX="0"
       id="Arrow2Lstart"
       style="overflow:visible">
      <path
         id="path26427"
         style="font-size:12px;fill-rule:evenodd;stroke-width:0.625;stroke-linejoin:round"
         d="M 8.7185878,4.0337352 -2.2072895,0.01601326 8.7185884,-4.0017078 c -1.7454984,2.3720609 -1.7354408,5.6174519 -6e-7,8.035443 z"
         transform="matrix(1.1,0,0,1.1,1.1,0)"
         inkscape:connector-curvature="0" />
    </marker>
    <marker
       inkscape:stockid="Arrow1Mend"
       orient="auto"
       refY="0"
       refX="0"
       id="Arrow1Mend"
       style="overflow:visible">
      <path
         id="path26418"
         d="M 0,0 5,-5 -12.5,0 5,5 0,0 z"
         style="fill-rule:evenodd;stroke:#000000;stroke-width:1pt;marker-start:none"
         transform="matrix(-0.4,0,0,-0.4,-4,0)"
         inkscape:connector-curvature="0" />
    </marker>
    <marker
       inkscape:stockid="Arrow1Lend"
       orient="auto"
       refY="0"
       refX="0"
       id="Arrow1Lend"
       style="overflow:visible">
      <path
         id="path26412"
         d="M 0,0 5,-5 -12.5,0 5,5 0,0 z"
         style="fill-rule:evenodd;stroke:#000000;stroke-width:1pt;marker-start:none"
         transform="matrix(-0.8,0,0,-0.8,-10,0)"
         inkscape:connector-curvature="0" />
    </marker>
  </defs>
  <rect
     x="189.5"
     y="52"
     width="176"
     height="76"
     style="fill-opacity:0;stroke:#000000;stroke-width:2"
     rx="13"
     ry="13"
     inkscape:connector-avoid="false"
     id="rect56074" />
  <path
     d="m 189.5,67 176,0 z"
     id="path56076"
     inkscape:connector-curvature="0"
     style="stroke:#000000;stroke-width:1" />
  <text
     y="65"
     x="277.5"
     id="text56078"
     style="text-anchor:middle">OpThreshold</text>
  <circle
     cx="5"
     cy="35.5"
     r="5"
     id="0x110ebcb10"
     class="ThresholdLevel"
     d="m 10,35.5 c 0,2.761424 -2.2385763,5 -5,5 -2.7614237,0 -5,-2.238576 -5,-5 0,-2.761424 2.2385763,-5 5,-5 2.7614237,0 5,2.238576 5,5 z"
     sodipodi:cx="5"
     sodipodi:cy="35.5"
     sodipodi:rx="5"
     sodipodi:ry="5"
     style="fill:#ffffff;stroke:#000000"
     transform="translate(179.5,52)" />
  <text
     y="87.5"
     x="194.5"
     id="text56081"
     style="text-anchor:start">ThresholdLevel</text>
  <circle
     cx="5"
     cy="53.5"
     r="5"
     id="0x110ebced0"
     class="Input"
     d="m 10,53.5 c 0,2.761424 -2.2385763,5 -5,5 -2.7614237,0 -5,-2.238576 -5,-5 0,-2.761424 2.2385763,-5 5,-5 2.7614237,0 5,2.238576 5,5 z"
     sodipodi:cx="5"
     sodipodi:cy="53.5"
     sodipodi:rx="5"
     sodipodi:ry="5"
     style="fill:#ffffff;stroke:#000000"
     transform="translate(179.5,52)" />
  <text
     y="105.5"
     x="194.5"
     id="text56084"
     style="text-anchor:start">Input</text>
  <circle
     cx="191"
     cy="50.5"
     r="5"
     id="0x110ebf2d0"
     class="Output"
     d="m 196,50.5 c 0,2.761424 -2.23858,5 -5,5 -2.76142,0 -5,-2.238576 -5,-5 0,-2.761424 2.23858,-5 5,-5 2.76142,0 5,2.238576 5,5 z"
     sodipodi:cx="191"
     sodipodi:cy="50.5"
     sodipodi:rx="5"
     sodipodi:ry="5"
     style="fill:#ffffff;stroke:#000000"
     transform="translate(179.5,52)" />
  <text
     y="102.5"
     x="360.5"
     id="text56087"
     style="text-anchor:end">Output</text>
  <rect
     x="189.5"
     y="203"
     width="176"
     height="76"
     style="fill-opacity:0;stroke:#000000;stroke-width:2"
     rx="13"
     ry="13"
     inkscape:connector-avoid="false"
     id="rect56091" />
  <path
     d="m 189.5,218 176,0 z"
     id="path56093"
     inkscape:connector-curvature="0"
     style="stroke:#000000;stroke-width:1" />
  <text
     y="216"
     x="277.5"
     id="text56095"
     style="text-anchor:middle">OpThreshold</text>
  <circle
     cx="5"
     cy="35.5"
     r="5"
     id="0x110ebfed0"
     class="ThresholdLevel"
     d="m 10,35.5 c 0,2.761424 -2.2385763,5 -5,5 -2.7614237,0 -5,-2.238576 -5,-5 0,-2.761424 2.2385763,-5 5,-5 2.7614237,0 5,2.238576 5,5 z"
     sodipodi:cx="5"
     sodipodi:cy="35.5"
     sodipodi:rx="5"
     sodipodi:ry="5"
     style="fill:#ffffff;stroke:#000000"
     transform="translate(179.5,203)" />
  <text
     y="238.5"
     x="194.5"
     id="text56098"
     style="text-anchor:start">ThresholdLevel</text>
  <circle
     cx="5"
     cy="53.5"
     r="5"
     id="0x110ec12d0"
     class="Input"
     d="m 10,53.5 c 0,2.761424 -2.2385763,5 -5,5 -2.7614237,0 -5,-2.238576 -5,-5 0,-2.761424 2.2385763,-5 5,-5 2.7614237,0 5,2.238576 5,5 z"
     sodipodi:cx="5"
     sodipodi:cy="53.5"
     sodipodi:rx="5"
     sodipodi:ry="5"
     style="fill:#ffffff;stroke:#000000"
     transform="translate(179.5,203)" />
  <text
     y="256.5"
     x="194.5"
     id="text56101"
     style="text-anchor:start">Input</text>
  <circle
     cx="191"
     cy="50.5"
     r="5"
     id="0x110ec1690"
     class="Output"
     d="m 196,50.5 c 0,2.761424 -2.23858,5 -5,5 -2.76142,0 -5,-2.238576 -5,-5 0,-2.761424 2.23858,-5 5,-5 2.76142,0 5,2.238576 5,5 z"
     sodipodi:cx="191"
     sodipodi:cy="50.5"
     sodipodi:rx="5"
     sodipodi:ry="5"
     style="fill:#ffffff;stroke:#000000"
     transform="translate(179.5,203)" />
  <text
     y="253.5"
     x="360.5"
     id="text56104"
     style="text-anchor:end">Output</text>
  <rect
     id="rect56106"
     inkscape:connector-avoid="false"
     ry="13"
     rx="13"
     style="fill-opacity:0;stroke:#000000;stroke-width:2"
     height="354"
     width="572"
     y="1"
     x="16.5" />
  <path
     style="stroke:#000000;stroke-width:1"
     inkscape:connector-curvature="0"
     id="path56108"
     d="m 16.5,16 572,0 z" />
  <text
     style="text-anchor:middle"
     id="text56110"
     x="302.5"
     y="14">Wrapped OpThreshold</text>
  <circle
     style="fill:#ffffff;stroke:#000000"
     sodipodi:ry="5"
     sodipodi:rx="5"
     sodipodi:cy="123.5"
     sodipodi:cx="11"
     d="m 16,123.5 c 0,2.76142 -2.238576,5 -5,5 -2.7614237,0 -5,-2.23858 -5,-5 0,-2.76142 2.2385763,-5 5,-5 2.761424,0 5,2.23858 5,5 z"
     class="ThresholdLevel"
     id="0x110ebba50"
     r="5"
     cy="123.5"
     cx="11"
     transform="translate(0.5,1)" />
  <text
     style="text-anchor:start"
     id="text56113"
     x="27.5"
     y="132.5">ThresholdLevel</text>
  <circle
     cx="8"
     cy="8"
     r="5"
     id="0x110eb8cd0"
     class="Input"
     d="m 13,8 c 0,2.761424 -2.238576,5 -5,5 C 5.2385763,13 3,10.761424 3,8 3,5.2385763 5.2385763,3 8,3 c 2.761424,0 5,2.2385763 5,5 z"
     sodipodi:cx="8"
     sodipodi:cy="8"
     sodipodi:rx="5"
     sodipodi:ry="5"
     style="fill:#ffffff;stroke:#000000"
     transform="translate(0.5,225.5)" />
  <circle
     cx="8"
     cy="18"
     r="5"
     id="0x110ebc910"
     class="Input"
     d="m 13,18 c 0,2.761424 -2.238576,5 -5,5 -2.7614237,0 -5,-2.238576 -5,-5 0,-2.761424 2.2385763,-5 5,-5 2.761424,0 5,2.238576 5,5 z"
     sodipodi:cx="8"
     sodipodi:cy="18"
     sodipodi:rx="5"
     sodipodi:ry="5"
     style="fill:#ffffff;stroke:#000000"
     transform="translate(0.5,225.5)" />
  <rect
     x="0.5"
     y="225.5"
     width="16"
     height="26"
     id="0x110ebbe10"
     style="fill-opacity:0;stroke:#000000;stroke-width:1" />
  <text
     style="text-anchor:start"
     id="text56120"
     x="21.5"
     y="238.5">Input</text>
  <circle
     cx="8"
     cy="8"
     r="5"
     id="0x110ebcad0"
     class="Output"
     d="m 13,8 c 0,2.761424 -2.238576,5 -5,5 C 5.2385763,13 3,10.761424 3,8 3,5.2385763 5.2385763,3 8,3 c 2.761424,0 5,2.2385763 5,5 z"
     sodipodi:cx="8"
     sodipodi:cy="8"
     sodipodi:rx="5"
     sodipodi:ry="5"
     style="fill:#ffffff;stroke:#000000"
     transform="translate(588.5,177.5)" />
  <circle
     cx="8"
     cy="18"
     r="5"
     id="0x110ebfe90"
     class="Output"
     d="m 13,18 c 0,2.761424 -2.238576,5 -5,5 -2.7614237,0 -5,-2.238576 -5,-5 0,-2.761424 2.2385763,-5 5,-5 2.761424,0 5,2.238576 5,5 z"
     sodipodi:cx="8"
     sodipodi:cy="18"
     sodipodi:rx="5"
     sodipodi:ry="5"
     style="fill:#ffffff;stroke:#000000"
     transform="translate(588.5,177.5)" />
  <rect
     x="588.5"
     y="177.5"
     width="16"
     height="26"
     id="0x110ebc210"
     style="fill-opacity:0;stroke:#000000;stroke-width:1" />
  <text
     style="text-anchor:end"
     id="text56127"
     x="581.5"
     y="192.5">Output</text>
  <path
     inkscape:connection-start="#0x110ebf2d0"
     inkscape:connection-end="#0x110ebcad0"
     id="pathTo0x110ebcad0"
     style="fill:none;stroke:#000000;stroke-width:1px;stroke-linecap:butt;stroke-linejoin:miter;stroke-opacity:1;marker-end:url(#Arrow1Mend)"
     d="m 375.19476,104.22418 216.61048,79.55164"
     inkscape:connection-start-point="d4"
     inkscape:connection-end-point="d4"
     inkscape:connector-type="polyline"
     inkscape:connector-curvature="0" />
  <path
     inkscape:connection-start="#0x110ec1690"
     inkscape:connection-end="#0x110ebfe90"
     id="pathTo0x110ebfe90"
     style="fill:none;stroke:#000000;stroke-width:1px;stroke-linecap:butt;stroke-linejoin:miter;stroke-opacity:1;marker-end:url(#Arrow1Mend)"
     d="M 375.34422,252.25679 591.65578,196.74321"
     inkscape:connection-start-point="d4"
     inkscape:connection-end-point="d4"
     inkscape:connector-type="polyline"
     inkscape:connector-curvature="0" />
  <path
     inkscape:connection-start="#0x110ebba50"
     inkscape:connection-end="#0x110ebcb10"
     id="pathTo0x110ebcb10"
     style="fill:none;stroke:#000000;stroke-width:1px;stroke-linecap:butt;stroke-linejoin:miter;stroke-opacity:1;marker-end:url(#Arrow1Mend)"
     d="M 16.390433,123.45407 179.60957,88.545931"
     inkscape:connection-start-point="d4"
     inkscape:connection-end-point="d4"
     inkscape:connector-type="polyline"
     inkscape:connector-curvature="0" />
  <path
     inkscape:connection-start="#0x110eb8cd0"
     inkscape:connection-end="#0x110ebced0"
     id="pathTo0x110ebced0"
     style="fill:none;stroke:#000000;stroke-width:1px;stroke-linecap:butt;stroke-linejoin:miter;stroke-opacity:1;marker-end:url(#Arrow1Mend)"
     d="M 12.543964,230.55894 180.45604,108.44106"
     inkscape:connection-start-point="d4"
     inkscape:connection-end-point="d4"
     inkscape:connector-type="polyline"
     inkscape:connector-curvature="0" />
  <path
     inkscape:connection-start="#0x110ebba50"
     inkscape:connection-end="#0x110ebfed0"
     id="pathTo0x110ebfed0"
     style="fill:none;stroke:#000000;stroke-width:1px;stroke-linecap:butt;stroke-linejoin:miter;stroke-opacity:1;marker-end:url(#Arrow1Mend)"
     d="M 15.675506,127.25149 180.32449,235.74851"
     inkscape:connection-start-point="d4"
     inkscape:connection-end-point="d4"
     inkscape:connector-type="polyline"
     inkscape:connector-curvature="0" />
  <path
     inkscape:connection-start="#0x110ebc910"
     inkscape:connection-end="#0x110ec12d0"
     id="pathTo0x110ec12d0"
     style="fill:none;stroke:#000000;stroke-width:1px;stroke-linecap:butt;stroke-linejoin:miter;stroke-opacity:1;marker-end:url(#Arrow1Mend)"
     d="M 13.486639,243.86833 179.51336,256.13167"
     inkscape:connection-start-point="d4"
     inkscape:connection-end-point="d4"
     inkscape:connector-type="polyline"
     inkscape:connector-curvature="0" />
</svg>
