<?xml version="1.0" encoding="UTF-8" standalone="no"?>
<svg
   xmlns:dc="http://purl.org/dc/elements/1.1/"
   xmlns:cc="http://creativecommons.org/ns#"
   xmlns:rdf="http://www.w3.org/1999/02/22-rdf-syntax-ns#"
   xmlns:svg="http://www.w3.org/2000/svg"
   xmlns="http://www.w3.org/2000/svg"
   xmlns:sodipodi="http://sodipodi.sourceforge.net/DTD/sodipodi-0.dtd"
   xmlns:inkscape="http://www.inkscape.org/namespaces/inkscape"
   x="0"
   y="0"
   width="605"
   height="507"
   id="svg35919"
   version="1.1"
   inkscape:version="0.48.2 r9819"
   sodipodi:docname="canvas.svg">
  <metadata
     id="metadata36017">
    <rdf:RDF>
      <cc:Work
         rdf:about="">
        <dc:format>image/svg+xml</dc:format>
        <dc:type
           rdf:resource="http://purl.org/dc/dcmitype/StillImage" />
        <dc:title></dc:title>
      </cc:Work>
    </rdf:RDF>
  </metadata>
  <sodipodi:namedview
     pagecolor="#ffffff"
     bordercolor="#666666"
     borderopacity="1"
     objecttolerance="10"
     gridtolerance="10"
     guidetolerance="10"
     inkscape:pageopacity="0"
     inkscape:pageshadow="2"
     inkscape:window-width="1031"
     inkscape:window-height="860"
     id="namedview36015"
     showgrid="false"
     inkscape:zoom="1.11592"
     inkscape:cx="248.52694"
     inkscape:cy="259.96407"
     inkscape:window-x="0"
     inkscape:window-y="0"
     inkscape:window-maximized="0"
     inkscape:current-layer="svg35919"
     fit-margin-top="0"
     fit-margin-left="0"
     fit-margin-right="0"
     fit-margin-bottom="0" />
  <defs
     id="defs31674">
    <marker
       inkscape:stockid="Arrow2Lstart"
       orient="auto"
       refY="0"
       refX="0"
       id="Arrow2Lstart"
       style="overflow:visible">
      <path
         id="path26427"
         style="font-size:12px;fill-rule:evenodd;stroke-width:0.625;stroke-linejoin:round"
         d="M 8.7185878,4.0337352 -2.2072895,0.01601326 8.7185884,-4.0017078 c -1.7454984,2.3720609 -1.7354408,5.6174519 -6e-7,8.035443 z"
         transform="matrix(1.1,0,0,1.1,1.1,0)"
         inkscape:connector-curvature="0" />
    </marker>
    <marker
       inkscape:stockid="Arrow1Mend"
       orient="auto"
       refY="0"
       refX="0"
       id="Arrow1Mend"
       style="overflow:visible">
      <path
         id="path26418"
         d="M 0,0 5,-5 -12.5,0 5,5 0,0 z"
         style="fill-rule:evenodd;stroke:#000000;stroke-width:1pt;marker-start:none"
         transform="matrix(-0.4,0,0,-0.4,-4,0)"
         inkscape:connector-curvature="0" />
    </marker>
    <marker
       inkscape:stockid="Arrow1Lend"
       orient="auto"
       refY="0"
       refX="0"
       id="Arrow1Lend"
       style="overflow:visible">
      <path
         id="path26412"
         d="M 0,0 5,-5 -12.5,0 5,5 0,0 z"
         style="fill-rule:evenodd;stroke:#000000;stroke-width:1pt;marker-start:none"
         transform="matrix(-0.8,0,0,-0.8,-10,0)"
         inkscape:connector-curvature="0" />
    </marker>
  </defs>
  <rect
     x="189.5"
     y="52"
     width="176"
     height="76"
     style="fill-opacity:0;stroke:#000000;stroke-width:2"
     rx="13"
     ry="13"
     inkscape:connector-avoid="false"
     id="rect35932" />
  <path
     d="m 189.5,67 176,0 z"
     id="path35934"
     inkscape:connector-curvature="0"
     style="stroke:#000000;stroke-width:1" />
  <text
     y="65"
     x="277.5"
     id="text35936"
     style="text-anchor:middle">OpThreshold</text>
  <circle
     cx="5"
     cy="35.5"
     r="5"
     id="0x10572cf10"
     class="ThresholdLevel"
     d="m 10,35.5 c 0,2.761424 -2.2385763,5 -5,5 -2.7614237,0 -5,-2.238576 -5,-5 0,-2.761424 2.2385763,-5 5,-5 2.7614237,0 5,2.238576 5,5 z"
     sodipodi:cx="5"
     sodipodi:cy="35.5"
     sodipodi:rx="5"
     sodipodi:ry="5"
     style="fill:#ffffff;stroke:#000000"
     transform="translate(179.5,52)" />
  <text
     y="87.5"
     x="194.5"
     id="text35939"
     style="text-anchor:start">ThresholdLevel</text>
  <circle
     cx="5"
     cy="53.5"
     r="5"
     id="0x10572f310"
     class="Input"
     d="m 10,53.5 c 0,2.761424 -2.2385763,5 -5,5 -2.7614237,0 -5,-2.238576 -5,-5 0,-2.761424 2.2385763,-5 5,-5 2.7614237,0 5,2.238576 5,5 z"
     sodipodi:cx="5"
     sodipodi:cy="53.5"
     sodipodi:rx="5"
     sodipodi:ry="5"
     style="fill:#ffffff;stroke:#000000"
     transform="translate(179.5,52)" />
  <text
     y="105.5"
     x="194.5"
     id="text35942"
     style="text-anchor:start">Input</text>
  <circle
     cx="191"
     cy="50.5"
     r="5"
     id="0x10572f6d0"
     class="Output"
     d="m 196,50.5 c 0,2.761424 -2.23858,5 -5,5 -2.76142,0 -5,-2.238576 -5,-5 0,-2.761424 2.23858,-5 5,-5 2.76142,0 5,2.238576 5,5 z"
     sodipodi:cx="191"
     sodipodi:cy="50.5"
     sodipodi:rx="5"
     sodipodi:ry="5"
     style="fill:#ffffff;stroke:#000000"
     transform="translate(179.5,52)" />
  <text
     y="102.5"
     x="360.5"
     id="text35945"
     style="text-anchor:end">Output</text>
  <rect
     x="189.5"
     y="203"
     width="176"
     height="76"
     style="fill-opacity:0;stroke:#000000;stroke-width:2"
     rx="13"
     ry="13"
     inkscape:connector-avoid="false"
     id="rect35949" />
  <path
     d="m 189.5,218 176,0 z"
     id="path35951"
     inkscape:connector-curvature="0"
     style="stroke:#000000;stroke-width:1" />
  <text
     y="216"
     x="277.5"
     id="text35953"
     style="text-anchor:middle">OpThreshold</text>
  <circle
     cx="5"
     cy="35.5"
     r="5"
     id="0x10572fb50"
     class="ThresholdLevel"
     d="m 10,35.5 c 0,2.761424 -2.2385763,5 -5,5 -2.7614237,0 -5,-2.238576 -5,-5 0,-2.761424 2.2385763,-5 5,-5 2.7614237,0 5,2.238576 5,5 z"
     sodipodi:cx="5"
     sodipodi:cy="35.5"
     sodipodi:rx="5"
     sodipodi:ry="5"
     style="fill:#ffffff;stroke:#000000"
     transform="translate(179.5,203)" />
  <text
     y="238.5"
     x="194.5"
     id="text35956"
     style="text-anchor:start">ThresholdLevel</text>
  <circle
     cx="5"
     cy="53.5"
     r="5"
     id="0x10572ff10"
     class="Input"
     d="m 10,53.5 c 0,2.761424 -2.2385763,5 -5,5 -2.7614237,0 -5,-2.238576 -5,-5 0,-2.761424 2.2385763,-5 5,-5 2.7614237,0 5,2.238576 5,5 z"
     sodipodi:cx="5"
     sodipodi:cy="53.5"
     sodipodi:rx="5"
     sodipodi:ry="5"
     style="fill:#ffffff;stroke:#000000"
     transform="translate(179.5,203)" />
  <text
     y="256.5"
     x="194.5"
     id="text35959"
     style="text-anchor:start">Input</text>
  <circle
     cx="191"
     cy="50.5"
     r="5"
     id="0x105733310"
     class="Output"
     d="m 196,50.5 c 0,2.761424 -2.23858,5 -5,5 -2.76142,0 -5,-2.238576 -5,-5 0,-2.761424 2.23858,-5 5,-5 2.76142,0 5,2.238576 5,5 z"
     sodipodi:cx="191"
     sodipodi:cy="50.5"
     sodipodi:rx="5"
     sodipodi:ry="5"
     style="fill:#ffffff;stroke:#000000"
     transform="translate(179.5,203)" />
  <text
     y="253.5"
     x="360.5"
     id="text35962"
     style="text-anchor:end">Output</text>
  <rect
     x="189.5"
     y="354"
     width="176"
     height="76"
     style="fill-opacity:0;stroke:#000000;stroke-width:2"
     rx="13"
     ry="13"
     inkscape:connector-avoid="false"
     id="rect35966" />
  <path
     d="m 189.5,369 176,0 z"
     id="path35968"
     inkscape:connector-curvature="0"
     style="stroke:#000000;stroke-width:1" />
  <text
     y="367"
     x="277.5"
     id="text35970"
     style="text-anchor:middle">OpThreshold</text>
  <circle
     cx="5"
     cy="35.5"
     r="5"
     id="0x105733790"
     class="ThresholdLevel"
     d="m 10,35.5 c 0,2.761424 -2.2385763,5 -5,5 -2.7614237,0 -5,-2.238576 -5,-5 0,-2.761424 2.2385763,-5 5,-5 2.7614237,0 5,2.238576 5,5 z"
     sodipodi:cx="5"
     sodipodi:cy="35.5"
     sodipodi:rx="5"
     sodipodi:ry="5"
     style="fill:#ffffff;stroke:#000000"
     transform="translate(179.5,354)" />
  <text
     y="389.5"
     x="194.5"
     id="text35973"
     style="text-anchor:start">ThresholdLevel</text>
  <circle
     cx="5"
     cy="53.5"
     r="5"
     id="0x105733b50"
     class="Input"
     d="m 10,53.5 c 0,2.761424 -2.2385763,5 -5,5 -2.7614237,0 -5,-2.238576 -5,-5 0,-2.761424 2.2385763,-5 5,-5 2.7614237,0 5,2.238576 5,5 z"
     sodipodi:cx="5"
     sodipodi:cy="53.5"
     sodipodi:rx="5"
     sodipodi:ry="5"
     style="fill:#ffffff;stroke:#000000"
     transform="translate(179.5,354)" />
  <text
     y="407.5"
     x="194.5"
     id="text35976"
     style="text-anchor:start">Input</text>
  <circle
     cx="191"
     cy="50.5"
     r="5"
     id="0x105733f10"
     class="Output"
     d="m 196,50.5 c 0,2.761424 -2.23858,5 -5,5 -2.76142,0 -5,-2.238576 -5,-5 0,-2.761424 2.23858,-5 5,-5 2.76142,0 5,2.238576 5,5 z"
     sodipodi:cx="191"
     sodipodi:cy="50.5"
     sodipodi:rx="5"
     sodipodi:ry="5"
     style="fill:#ffffff;stroke:#000000"
     transform="translate(179.5,354)" />
  <text
     y="404.5"
     x="360.5"
     id="text35979"
     style="text-anchor:end">Output</text>
  <rect
     id="rect35981"
     inkscape:connector-avoid="false"
     ry="13"
     rx="13"
     style="fill-opacity:0;stroke:#000000;stroke-width:2"
     height="505"
     width="572"
     y="1"
     x="16.5" />
  <path
     style="stroke:#000000;stroke-width:1"
     inkscape:connector-curvature="0"
     id="path35983"
     d="m 16.5,16 572,0 z" />
  <text
     style="text-anchor:middle"
     id="text35985"
     x="302.5"
     y="14">OpMultiThreshold</text>
  <circle
     style="fill:#ffffff;stroke:#000000"
     sodipodi:ry="5"
     sodipodi:rx="5"
     sodipodi:cy="170.5"
     sodipodi:cx="11"
     d="m 16,170.5 c 0,2.76142 -2.238576,5 -5,5 -2.7614237,0 -5,-2.23858 -5,-5 0,-2.76142 2.2385763,-5 5,-5 2.761424,0 5,2.23858 5,5 z"
     class="ThresholdLevel"
     id="0x1057216d0"
     r="5"
     cy="170.5"
     cx="11"
     transform="translate(0.5,1)" />
  <text
     style="text-anchor:start"
     id="text35988"
     x="27.5"
     y="175.5">ThresholdLevel</text>
  <circle
     cx="8"
     cy="8"
     r="5"
     id="0x105721490"
     class="Inputs"
     d="m 13,8 c 0,2.761424 -2.238576,5 -5,5 C 5.2385763,13 3,10.761424 3,8 3,5.2385763 5.2385763,3 8,3 c 2.761424,0 5,2.2385763 5,5 z"
     sodipodi:cx="8"
     sodipodi:cy="8"
     sodipodi:rx="5"
     sodipodi:ry="5"
     style="fill:#ffffff;stroke:#000000"
     transform="translate(0.5,319.5)" />
  <circle
     cx="8"
     cy="18"
     r="5"
     id="0x105726590"
     class="Inputs"
     d="m 13,18 c 0,2.761424 -2.238576,5 -5,5 -2.7614237,0 -5,-2.238576 -5,-5 0,-2.761424 2.2385763,-5 5,-5 2.761424,0 5,2.238576 5,5 z"
     sodipodi:cx="8"
     sodipodi:cy="18"
     sodipodi:rx="5"
     sodipodi:ry="5"
     style="fill:#ffffff;stroke:#000000"
     transform="translate(0.5,319.5)" />
  <circle
     cx="8"
     cy="28"
     r="5"
     id="0x105726950"
     class="Inputs"
     d="m 13,28 c 0,2.761424 -2.238576,5 -5,5 -2.7614237,0 -5,-2.238576 -5,-5 0,-2.761424 2.2385763,-5 5,-5 2.761424,0 5,2.238576 5,5 z"
     sodipodi:cx="8"
     sodipodi:cy="28"
     sodipodi:rx="5"
     sodipodi:ry="5"
     style="fill:#ffffff;stroke:#000000"
     transform="translate(0.5,319.5)" />
  <rect
     x="0.5"
     y="319.5"
     width="16"
     height="36"
     id="0x105721a90"
     style="fill-opacity:0;stroke:#000000;stroke-width:1" />
  <text
     style="text-anchor:start"
     id="text35996"
     x="21.5"
     y="341.5">Inputs</text>
  <circle
     cx="8"
     cy="8"
     r="5"
     id="0x105726e10"
     class="Outputs"
     d="m 13,8 c 0,2.761424 -2.238576,5 -5,5 C 5.2385763,13 3,10.761424 3,8 3,5.2385763 5.2385763,3 8,3 c 2.761424,0 5,2.2385763 5,5 z"
     sodipodi:cx="8"
     sodipodi:cy="8"
     sodipodi:rx="5"
     sodipodi:ry="5"
     style="fill:#ffffff;stroke:#000000"
     transform="translate(588.5,247.5)" />
  <circle
     cx="8"
     cy="18"
     r="5"
     id="0x1057271d0"
     class="Outputs"
     d="m 13,18 c 0,2.761424 -2.238576,5 -5,5 -2.7614237,0 -5,-2.238576 -5,-5 0,-2.761424 2.2385763,-5 5,-5 2.761424,0 5,2.238576 5,5 z"
     sodipodi:cx="8"
     sodipodi:cy="18"
     sodipodi:rx="5"
     sodipodi:ry="5"
     style="fill:#ffffff;stroke:#000000"
     transform="translate(588.5,247.5)" />
  <circle
     cx="8"
     cy="28"
     r="5"
     id="0x105727590"
     class="Outputs"
     d="m 13,28 c 0,2.761424 -2.238576,5 -5,5 -2.7614237,0 -5,-2.238576 -5,-5 0,-2.761424 2.2385763,-5 5,-5 2.761424,0 5,2.238576 5,5 z"
     sodipodi:cx="8"
     sodipodi:cy="28"
     sodipodi:rx="5"
     sodipodi:ry="5"
     style="fill:#ffffff;stroke:#000000"
     transform="translate(588.5,247.5)" />
  <rect
     x="588.5"
     y="247.5"
     width="16"
     height="36"
     id="0x105721e50"
     style="fill-opacity:0;stroke:#000000;stroke-width:1" />
  <text
     style="text-anchor:end"
     id="text36004"
     x="585.5"
     y="259.5">Outputs</text>
  <path
     inkscape:connection-start="#0x10572f6d0"
     inkscape:connection-end="#0x105726e10"
     id="pathTo0x105726e10"
     style="fill:none;stroke:#000000;stroke-width:1px;stroke-linecap:butt;stroke-linejoin:miter;stroke-opacity:1;marker-end:url(#Arrow1Mend)"
     d="M 374.64083,105.3033 592.35917,252.6967"
     inkscape:connection-start-point="d4"
     inkscape:connection-end-point="d4"
     inkscape:connector-type="polyline"
     inkscape:connector-curvature="0" />
  <path
     inkscape:connection-start="#0x105733310"
     inkscape:connection-end="#0x1057271d0"
     id="pathTo0x1057271d0"
     style="fill:none;stroke:#000000;stroke-width:1px;stroke-linecap:butt;stroke-linejoin:miter;stroke-opacity:1;marker-end:url(#Arrow1Mend)"
     d="m 375.49309,253.76512 216.01382,11.46976"
     inkscape:connection-start-point="d4"
     inkscape:connection-end-point="d4"
     inkscape:connector-type="polyline"
     inkscape:connector-curvature="0" />
  <path
     inkscape:connection-start="#0x105733f10"
     inkscape:connection-end="#0x105727590"
     id="pathTo0x105727590"
     style="fill:none;stroke:#000000;stroke-width:1px;stroke-linecap:butt;stroke-linejoin:miter;stroke-opacity:1;marker-end:url(#Arrow1Mend)"
     d="M 374.84314,402.02095 592.15686,277.97905"
     inkscape:connection-start-point="d4"
     inkscape:connection-end-point="d4"
     inkscape:connector-type="polyline"
     inkscape:connector-curvature="0" />
  <path
     inkscape:connection-start="#0x1057216d0"
     inkscape:connection-end="#0x10572cf10"
     id="pathTo0x10572cf10"
     style="fill:none;stroke:#000000;stroke-width:1px;stroke-linecap:butt;stroke-linejoin:miter;stroke-opacity:1;marker-end:url(#Arrow1Mend)"
     d="M 15.998856,169.31558 180.00114,89.684416"
     inkscape:connection-start-point="d4"
     inkscape:connection-end-point="d4"
     inkscape:connector-type="polyline"
     inkscape:connector-curvature="0" />
  <path
     inkscape:connection-start="#0x105721490"
     inkscape:connection-end="#0x10572f310"
     id="pathTo0x10572f310"
     style="fill:none;stroke:#000000;stroke-width:1px;stroke-linecap:butt;stroke-linejoin:miter;stroke-opacity:1;marker-end:url(#Arrow1Mend)"
     d="M 11.606349,323.58176 181.39365,109.41824"
     inkscape:connection-start-point="d4"
     inkscape:connection-end-point="d4"
     inkscape:connector-type="polyline"
     inkscape:connector-curvature="0" />
  <path
     inkscape:connection-start="#0x1057216d0"
     inkscape:connection-end="#0x10572fb50"
     id="pathTo0x10572fb50"
     style="fill:none;stroke:#000000;stroke-width:1px;stroke-linecap:butt;stroke-linejoin:miter;stroke-opacity:1;marker-end:url(#Arrow1Mend)"
     d="M 16.163802,173.30621 179.8362,236.69379"
     inkscape:connection-start-point="d4"
     inkscape:connection-end-point="d4"
     inkscape:connector-type="polyline"
     inkscape:connector-curvature="0" />
  <path
     inkscape:connection-start="#0x105726590"
     inkscape:connection-end="#0x10572ff10"
     id="pathTo0x10572ff10"
     style="fill:none;stroke:#000000;stroke-width:1px;stroke-linecap:butt;stroke-linejoin:miter;stroke-opacity:1;marker-end:url(#Arrow1Mend)"
     d="M 13.043158,335.40911 179.95684,258.59089"
     inkscape:connection-start-point="d4"
     inkscape:connection-end-point="d4"
     inkscape:connector-type="polyline"
     inkscape:connector-curvature="0" />
  <path
     inkscape:connection-start="#0x1057216d0"
     inkscape:connection-end="#0x105733790"
     id="pathTo0x105733790"
     style="fill:none;stroke:#000000;stroke-width:1px;stroke-linecap:butt;stroke-linejoin:miter;stroke-opacity:1;marker-end:url(#Arrow1Mend)"
     d="M 14.608236,175.41674 181.39176,385.58326"
     inkscape:connection-start-point="d4"
     inkscape:connection-end-point="d4"
     inkscape:connector-type="polyline"
     inkscape:connector-curvature="0" />
  <path
     inkscape:connection-start="#0x105726950"
     inkscape:connection-end="#0x105733b50"
     id="pathTo0x105733b50"
     style="fill:none;stroke:#000000;stroke-width:1px;stroke-linecap:butt;stroke-linejoin:miter;stroke-opacity:1;marker-end:url(#Arrow1Mend)"
     d="M 13.233839,349.11381 179.76616,405.88619"
     inkscape:connection-start-point="d4"
     inkscape:connection-end-point="d4"
     inkscape:connector-type="polyline"
     inkscape:connector-curvature="0" />
</svg>
