<?xml version="1.0" encoding="UTF-8" standalone="no"?>
<svg
   xmlns:dc="http://purl.org/dc/elements/1.1/"
   xmlns:cc="http://creativecommons.org/ns#"
   xmlns:rdf="http://www.w3.org/1999/02/22-rdf-syntax-ns#"
   xmlns:svg="http://www.w3.org/2000/svg"
   xmlns="http://www.w3.org/2000/svg"
   xmlns:sodipodi="http://sodipodi.sourceforge.net/DTD/sodipodi-0.dtd"
   xmlns:inkscape="http://www.inkscape.org/namespaces/inkscape"
   x="0"
   y="0"
   width="370"
   height="156"
   id="svg69584"
   version="1.1"
   inkscape:version="0.48.2 r9819"
   sodipodi:docname="Labeling Top-Level Operator.svg">
  <metadata
     id="metadata69643">
    <rdf:RDF>
      <cc:Work
         rdf:about="">
        <dc:format>image/svg+xml</dc:format>
        <dc:type
           rdf:resource="http://purl.org/dc/dcmitype/StillImage" />
        <dc:title></dc:title>
      </cc:Work>
    </rdf:RDF>
  </metadata>
  <sodipodi:namedview
     pagecolor="#ffffff"
     bordercolor="#666666"
     borderopacity="1"
     objecttolerance="10"
     gridtolerance="10"
     guidetolerance="10"
     inkscape:pageopacity="0"
     inkscape:pageshadow="2"
     inkscape:window-width="640"
     inkscape:window-height="480"
     id="namedview69641"
     showgrid="false"
     fit-margin-top="0"
     fit-margin-left="0"
     fit-margin-right="0"
     fit-margin-bottom="0"
     inkscape:zoom="0.88628571"
     inkscape:cx="268.13723"
     inkscape:cy="106.28299"
     inkscape:window-x="0"
     inkscape:window-y="0"
     inkscape:window-maximized="0"
     inkscape:current-layer="svg69584" />
  <defs
     id="defs31674">
    <marker
       inkscape:stockid="Arrow2Lstart"
       orient="auto"
       refY="0"
       refX="0"
       id="Arrow2Lstart"
       style="overflow:visible">
      <path
         id="path26427"
         style="font-size:12px;fill-rule:evenodd;stroke-width:0.625;stroke-linejoin:round"
         d="M 8.7185878,4.0337352 -2.2072895,0.01601326 8.7185884,-4.0017078 c -1.7454984,2.3720609 -1.7354408,5.6174519 -6e-7,8.035443 z"
         transform="matrix(1.1,0,0,1.1,1.1,0)"
         inkscape:connector-curvature="0" />
    </marker>
    <marker
       inkscape:stockid="Arrow1Mend"
       orient="auto"
       refY="0"
       refX="0"
       id="Arrow1Mend"
       style="overflow:visible">
      <path
         id="path26418"
         d="M 0,0 5,-5 -12.5,0 5,5 0,0 z"
         style="fill-rule:evenodd;stroke:#000000;stroke-width:1pt;marker-start:none"
         transform="matrix(-0.4,0,0,-0.4,-4,0)"
         inkscape:connector-curvature="0" />
    </marker>
    <marker
       inkscape:stockid="Arrow1Lend"
       orient="auto"
       refY="0"
       refX="0"
       id="Arrow1Lend"
       style="overflow:visible">
      <path
         id="path26412"
         d="M 0,0 5,-5 -12.5,0 5,5 0,0 z"
         style="fill-rule:evenodd;stroke:#000000;stroke-width:1pt;marker-start:none"
         transform="matrix(-0.8,0,0,-0.8,-10,0)"
         inkscape:connector-curvature="0" />
    </marker>
  </defs>
  <rect
     id="rect69595"
     inkscape:connector-avoid="false"
     ry="13"
     rx="13"
     style="fill-opacity:0;stroke:#000000;stroke-width:2"
     height="154"
     width="337"
     y="1"
     x="16.5" />
  <path
     style="stroke:#000000;stroke-width:1"
     inkscape:connector-curvature="0"
     id="path69597"
     d="m 16.5,16 337,0 z" />
  <text
     style="text-anchor:middle"
     id="text69599"
     x="184.5"
     y="14">Labeling Top-Level Operator</text>
  <circle
     cx="8"
     cy="8"
     r="5"
     id="0x11579e310"
     class="InputImages"
     d="m 13,8 c 0,2.761424 -2.238576,5 -5,5 C 5.2385763,13 3,10.761424 3,8 3,5.2385763 5.2385763,3 8,3 c 2.761424,0 5,2.2385763 5,5 z"
     sodipodi:cx="8"
     sodipodi:cy="8"
     sodipodi:rx="5"
     sodipodi:ry="5"
     style="fill:#ffffff;stroke:#000000"
     transform="translate(0.5,27.5)" />
  <rect
     x="0.5"
     y="27.5"
     width="16"
     height="16"
     id="0x11439b110"
     style="fill-opacity:0;stroke:#000000;stroke-width:1" />
  <text
     style="text-anchor:start"
     id="text69605"
     x="21.5"
     y="35.5">InputImages</text>
  <circle
     cx="8"
     cy="8"
     r="5"
     id="0x11da58cd0"
     class="LabelInputs"
     d="m 13,8 c 0,2.761424 -2.238576,5 -5,5 C 5.2385763,13 3,10.761424 3,8 3,5.2385763 5.2385763,3 8,3 c 2.761424,0 5,2.2385763 5,5 z"
     sodipodi:cx="8"
     sodipodi:cy="8"
     sodipodi:rx="5"
     sodipodi:ry="5"
     style="fill:#ffffff;stroke:#000000"
     transform="translate(0.5,47.5)" />
  <rect
     x="0.5"
     y="47.5"
     width="16"
     height="16"
     id="0x11439b4d0"
     style="fill-opacity:0;stroke:#000000;stroke-width:1" />
  <text
     style="text-anchor:start"
     id="text69611"
     x="21.5"
     y="55.5">LabelInputs</text>
  <circle
     cx="8"
     cy="8"
     r="5"
     id="0x11da6cb90"
     class="LabelsAllowedFlags"
     d="m 13,8 c 0,2.761424 -2.238576,5 -5,5 C 5.2385763,13 3,10.761424 3,8 3,5.2385763 5.2385763,3 8,3 c 2.761424,0 5,2.2385763 5,5 z"
     sodipodi:cx="8"
     sodipodi:cy="8"
     sodipodi:rx="5"
     sodipodi:ry="5"
     style="fill:#ffffff;stroke:#000000"
     transform="translate(0.5,67.5)" />
  <rect
     x="0.5"
     y="67.5"
     width="16"
     height="16"
     id="0x11439b890"
     style="fill-opacity:0;stroke:#000000;stroke-width:1" />
  <text
     style="text-anchor:start"
     id="text69617"
     x="21.5"
     y="75.5">LabelsAllowedFlags</text>
  <circle
     style="fill:#ffffff;stroke:#000000"
     sodipodi:ry="5"
     sodipodi:rx="5"
     sodipodi:cy="91.5"
     sodipodi:cx="11"
     d="m 16,91.5 c 0,2.761424 -2.238576,5 -5,5 -2.7614237,0 -5,-2.238576 -5,-5 0,-2.761424 2.2385763,-5 5,-5 2.761424,0 5,2.238576 5,5 z"
     class="LabelEraserValue"
     id="0x11439bc50"
     r="5"
     cy="91.5"
     cx="11"
     transform="translate(0.5,1)" />
  <text
     style="text-anchor:start"
     id="text69620"
     x="21.5"
     y="92.5">LabelEraserValue</text>
  <circle
     style="fill:#ffffff;stroke:#000000"
     sodipodi:ry="5"
     sodipodi:rx="5"
     sodipodi:cy="105.5"
     sodipodi:cx="11"
     d="m 16,105.5 c 0,2.76142 -2.238576,5 -5,5 -2.7614237,0 -5,-2.23858 -5,-5 0,-2.76142 2.2385763,-5 5,-5 2.761424,0 5,2.23858 5,5 z"
     class="LabelDelete"
     id="0x11439d050"
     r="5"
     cy="105.5"
     cx="11"
     transform="translate(0.5,1)" />
  <text
     style="text-anchor:start"
     id="text69623"
     x="21.5"
     y="106.5">LabelDelete</text>
  <circle
     style="fill:#ffffff;stroke:#000000"
     sodipodi:ry="5"
     sodipodi:rx="5"
     sodipodi:cy="45.5"
     sodipodi:cx="358"
     d="m 363,45.5 c 0,2.761424 -2.23858,5 -5,5 -2.76142,0 -5,-2.238576 -5,-5 0,-2.761424 2.23858,-5 5,-5 2.76142,0 5,2.238576 5,5 z"
     class="MaxLabelValue"
     id="0x11439d410"
     r="5"
     cy="45.5"
     cx="358"
     transform="translate(0.5,1)" />
  <text
     style="text-anchor:end"
     id="text69626"
     x="348.5"
     y="46.5">MaxLabelValue</text>
  <circle
     cx="8"
     cy="8"
     r="5"
     id="0x11da60050"
     class="LabelImages"
     d="m 13,8 c 0,2.761424 -2.238576,5 -5,5 C 5.2385763,13 3,10.761424 3,8 3,5.2385763 5.2385763,3 8,3 c 2.761424,0 5,2.2385763 5,5 z"
     sodipodi:cx="8"
     sodipodi:cy="8"
     sodipodi:rx="5"
     sodipodi:ry="5"
     style="fill:#ffffff;stroke:#000000"
     transform="translate(353.5,69.5)" />
  <rect
     x="353.5"
     y="69.5"
     width="16"
     height="16"
     id="0x11439d7d0"
     style="fill-opacity:0;stroke:#000000;stroke-width:1" />
  <text
     style="text-anchor:end"
     id="text69632"
     x="348.5"
     y="77.5">LabelImages</text>
  <circle
     cx="8"
     cy="8"
     r="5"
     id="0x11da63f50"
     class="NonzeroLabelBlocks"
     d="m 13,8 c 0,2.761424 -2.238576,5 -5,5 C 5.2385763,13 3,10.761424 3,8 3,5.2385763 5.2385763,3 8,3 c 2.761424,0 5,2.2385763 5,5 z"
     sodipodi:cx="8"
     sodipodi:cy="8"
     sodipodi:rx="5"
     sodipodi:ry="5"
     style="fill:#ffffff;stroke:#000000"
     transform="translate(353.5,103.5)" />
  <rect
     x="353.5"
     y="103.5"
     width="16"
     height="16"
     id="0x11439db90"
     style="fill-opacity:0;stroke:#000000;stroke-width:1" />
  <text
     style="text-anchor:end"
     id="text69638"
     x="348.5"
     y="111.5">NonzeroLabelBlocks</text>
  <path
     inkscape:connection-start="#0x11439b110"
     inkscape:connection-end="#0x11439b4d0"
     id="pathTo0x11439b4d0"
     style="fill:none;stroke:#000000;stroke-width:1px;stroke-linecap:butt;stroke-linejoin:miter;stroke-opacity:1;marker-end:url(#Arrow1Mend)"
     d="m 8.5,43.5 0,4"
     inkscape:connection-start-point="d4"
     inkscape:connection-end-point="d4"
     inkscape:connector-type="polyline"
     inkscape:connector-curvature="0" />
</svg>
