<?xml version="1.0" encoding="UTF-8" standalone="no"?>
<svg
   xmlns:dc="http://purl.org/dc/elements/1.1/"
   xmlns:cc="http://creativecommons.org/ns#"
   xmlns:rdf="http://www.w3.org/1999/02/22-rdf-syntax-ns#"
   xmlns:svg="http://www.w3.org/2000/svg"
   xmlns="http://www.w3.org/2000/svg"
   xmlns:sodipodi="http://sodipodi.sourceforge.net/DTD/sodipodi-0.dtd"
   xmlns:inkscape="http://www.inkscape.org/namespaces/inkscape"
   x="0"
   y="0"
   width="582"
   height="146"
   id="svg58851"
   version="1.1"
   inkscape:version="0.48.2 r9819"
   sodipodi:docname="ThresholdMaskingWorkflow_low_detail.svg">
  <metadata
     id="metadata58951">
    <rdf:RDF>
      <cc:Work
         rdf:about="">
        <dc:format>image/svg+xml</dc:format>
        <dc:type
           rdf:resource="http://purl.org/dc/dcmitype/StillImage" />
        <dc:title />
      </cc:Work>
    </rdf:RDF>
  </metadata>
  <sodipodi:namedview
     pagecolor="#ffffff"
     bordercolor="#666666"
     borderopacity="1"
     objecttolerance="10"
     gridtolerance="10"
     guidetolerance="10"
     inkscape:pageopacity="0"
     inkscape:pageshadow="2"
     inkscape:window-width="1279"
     inkscape:window-height="768"
     id="namedview58949"
     showgrid="false"
     inkscape:zoom="3.9887277"
     inkscape:cx="308.03589"
     inkscape:cy="82.9674"
     inkscape:window-x="0"
     inkscape:window-y="0"
     inkscape:window-maximized="0"
     inkscape:current-layer="svg58851"
     fit-margin-top="0"
     fit-margin-left="0"
     fit-margin-right="0"
     fit-margin-bottom="0" />
  <defs
     id="defs31674">
    <marker
       inkscape:stockid="Arrow2Lstart"
       orient="auto"
       refY="0"
       refX="0"
       id="Arrow2Lstart"
       style="overflow:visible">
      <path
         id="path26427"
         style="font-size:12px;fill-rule:evenodd;stroke-width:0.625;stroke-linejoin:round"
         d="M 8.7185878,4.0337352 -2.2072895,0.01601326 8.7185884,-4.0017078 c -1.7454984,2.3720609 -1.7354408,5.6174519 -6e-7,8.035443 z"
         transform="matrix(1.1,0,0,1.1,1.1,0)"
         inkscape:connector-curvature="0" />
    </marker>
    <marker
       inkscape:stockid="Arrow1Mend"
       orient="auto"
       refY="0"
       refX="0"
       id="Arrow1Mend"
       style="overflow:visible">
      <path
         id="path26418"
         d="M 0,0 5,-5 -12.5,0 5,5 0,0 z"
         style="fill-rule:evenodd;stroke:#000000;stroke-width:1pt;marker-start:none"
         transform="matrix(-0.4,0,0,-0.4,-4,0)"
         inkscape:connector-curvature="0" />
    </marker>
    <marker
       inkscape:stockid="Arrow1Lend"
       orient="auto"
       refY="0"
       refX="0"
       id="Arrow1Lend"
       style="overflow:visible">
      <path
         id="path26412"
         d="M 0,0 5,-5 -12.5,0 5,5 0,0 z"
         style="fill-rule:evenodd;stroke:#000000;stroke-width:1pt;marker-start:none"
         transform="matrix(-0.8,0,0,-0.8,-10,0)"
         inkscape:connector-curvature="0" />
    </marker>
  </defs>
  <rect
     x="16.5"
     y="1"
     width="220"
     height="144"
     style="fill-opacity:0;stroke:#000000;stroke-width:2"
     rx="13"
     ry="13"
     inkscape:connector-avoid="false"
     id="rect58864" />
  <path
     d="m 16.5,16 220,0 z"
     id="path58866"
     inkscape:connector-curvature="0"
     style="stroke:#000000;stroke-width:1" />
  <text
     y="14"
     x="126.5"
     id="text58868"
     style="text-anchor:middle">Wrapped OpDataSelection*</text>
  <circle
     cx="11"
     cy="34.5"
     r="5"
     id="0x10aa43ad0"
     class="ProjectFile"
     d="m 16,34.5 c 0,2.761424 -2.238576,5 -5,5 -2.7614237,0 -5,-2.238576 -5,-5 0,-2.761424 2.2385763,-5 5,-5 2.761424,0 5,2.238576 5,5 z"
     sodipodi:cx="11"
     sodipodi:cy="34.5"
     sodipodi:rx="5"
     sodipodi:ry="5"
     style="fill:#ffffff;stroke:#000000"
     transform="translate(0.5,1)" />
  <text
     y="35.5"
     x="21.5"
     id="text58871"
     style="text-anchor:start">ProjectFile</text>
  <circle
     cx="11"
     cy="51.5"
     r="5"
     id="0x10aa43e90"
     class="ProjectDataGroup"
     d="m 16,51.5 c 0,2.761424 -2.238576,5 -5,5 -2.7614237,0 -5,-2.238576 -5,-5 0,-2.761424 2.2385763,-5 5,-5 2.761424,0 5,2.238576 5,5 z"
     sodipodi:cx="11"
     sodipodi:cy="51.5"
     sodipodi:rx="5"
     sodipodi:ry="5"
     style="fill:#ffffff;stroke:#000000"
     transform="translate(0.5,1)" />
  <text
     y="52.5"
     x="21.5"
     id="text58874"
     style="text-anchor:start">ProjectDataGroup</text>
  <circle
     cx="11"
     cy="68.5"
     r="5"
     id="0x10aa4a290"
     class="WorkingDirectory"
     d="m 16,68.5 c 0,2.761424 -2.238576,5 -5,5 -2.7614237,0 -5,-2.238576 -5,-5 0,-2.761424 2.2385763,-5 5,-5 2.761424,0 5,2.238576 5,5 z"
     sodipodi:cx="11"
     sodipodi:cy="68.5"
     sodipodi:rx="5"
     sodipodi:ry="5"
     style="fill:#ffffff;stroke:#000000"
     transform="translate(0.5,1)" />
  <text
     y="69.5"
     x="21.5"
     id="text58877"
     style="text-anchor:start">WorkingDirectory</text>
  <circle
     style="fill:#ffffff;stroke:#000000"
     sodipodi:ry="5"
     sodipodi:rx="5"
     sodipodi:cy="8"
     sodipodi:cx="8"
     d="m 13,8 c 0,2.761424 -2.238576,5 -5,5 C 5.2385763,13 3,10.761424 3,8 3,5.2385763 5.2385763,3 8,3 c 2.761424,0 5,2.2385763 5,5 z"
     class="Dataset"
     id="0x119e791d0"
     r="5"
     cy="8"
     cx="8"
     transform="translate(0.5,81.5)" />
  <circle
     style="fill:#ffffff;stroke:#000000"
     sodipodi:ry="5"
     sodipodi:rx="5"
     sodipodi:cy="18"
     sodipodi:cx="8"
     d="m 13,18 c 0,2.761424 -2.238576,5 -5,5 -2.7614237,0 -5,-2.238576 -5,-5 0,-2.761424 2.2385763,-5 5,-5 2.761424,0 5,2.238576 5,5 z"
     class="Dataset"
     id="0x1179dfb50"
     r="5"
     cy="18"
     cx="8"
     transform="translate(0.5,81.5)" />
  <rect
     style="fill-opacity:0;stroke:#000000;stroke-width:1"
     id="0x10aa4a650"
     height="26"
     width="16"
     y="81.5"
     x="0.5" />
  <text
     y="94.5"
     x="21.5"
     id="text58884"
     style="text-anchor:start">Dataset</text>
  <circle
     style="fill:#ffffff;stroke:#000000"
     sodipodi:ry="5"
     sodipodi:rx="5"
     sodipodi:cy="8"
     sodipodi:cx="8"
     d="m 13,8 c 0,2.761424 -2.238576,5 -5,5 C 5.2385763,13 3,10.761424 3,8 3,5.2385763 5.2385763,3 8,3 c 2.761424,0 5,2.2385763 5,5 z"
     class="ImageName"
     id="0x119e6e890"
     r="5"
     cy="8"
     cx="8"
     transform="translate(236.5,29.5)" />
  <circle
     style="fill:#ffffff;stroke:#000000"
     sodipodi:ry="5"
     sodipodi:rx="5"
     sodipodi:cy="18"
     sodipodi:cx="8"
     d="m 13,18 c 0,2.761424 -2.238576,5 -5,5 -2.7614237,0 -5,-2.238576 -5,-5 0,-2.761424 2.2385763,-5 5,-5 2.761424,0 5,2.238576 5,5 z"
     class="ImageName"
     id="0x11bffa9d0"
     r="5"
     cy="18"
     cx="8"
     transform="translate(236.5,29.5)" />
  <rect
     style="fill-opacity:0;stroke:#000000;stroke-width:1"
     id="0x10aa4aa10"
     height="26"
     width="16"
     y="29.5"
     x="236.5" />
  <text
     y="42.5"
     x="231.5"
     id="text58891"
     style="text-anchor:end">ImageName</text>
  <circle
     style="fill:#ffffff;stroke:#000000"
     sodipodi:ry="5"
     sodipodi:rx="5"
     sodipodi:cy="8"
     sodipodi:cx="8"
     d="m 13,8 c 0,2.761424 -2.238576,5 -5,5 C 5.2385763,13 3,10.761424 3,8 3,5.2385763 5.2385763,3 8,3 c 2.761424,0 5,2.2385763 5,5 z"
     class="Image"
     id="0x119e89550"
     r="5"
     cy="8"
     cx="8"
     transform="translate(236.5,61.5)" />
  <circle
     style="fill:#ffffff;stroke:#000000"
     sodipodi:ry="5"
     sodipodi:rx="5"
     sodipodi:cy="18"
     sodipodi:cx="8"
     d="m 13,18 c 0,2.761424 -2.238576,5 -5,5 -2.7614237,0 -5,-2.238576 -5,-5 0,-2.761424 2.2385763,-5 5,-5 2.761424,0 5,2.238576 5,5 z"
     class="Image"
     id="0x11bffad90"
     r="5"
     cy="18"
     cx="8"
     transform="translate(236.5,61.5)" />
  <rect
     style="fill-opacity:0;stroke:#000000;stroke-width:1"
     id="0x10aa4add0"
     height="26"
     width="16"
     y="61.5"
     x="236.5" />
  <text
     y="74.5"
     x="231.5"
     id="text58898"
     style="text-anchor:end">Image</text>
  <circle
     style="fill:#ffffff;stroke:#000000"
     sodipodi:ry="5"
     sodipodi:rx="5"
     sodipodi:cy="8"
     sodipodi:cx="8"
     d="m 13,8 c 0,2.761424 -2.238576,5 -5,5 C 5.2385763,13 3,10.761424 3,8 3,5.2385763 5.2385763,3 8,3 c 2.761424,0 5,2.2385763 5,5 z"
     class="AllowLabels"
     id="0x119e89950"
     r="5"
     cy="8"
     cx="8"
     transform="translate(236.5,93.5)" />
  <circle
     style="fill:#ffffff;stroke:#000000"
     sodipodi:ry="5"
     sodipodi:rx="5"
     sodipodi:cy="18"
     sodipodi:cx="8"
     d="m 13,18 c 0,2.761424 -2.238576,5 -5,5 -2.7614237,0 -5,-2.238576 -5,-5 0,-2.761424 2.2385763,-5 5,-5 2.761424,0 5,2.238576 5,5 z"
     class="AllowLabels"
     id="0x11bff1210"
     r="5"
     cy="18"
     cx="8"
     transform="translate(236.5,93.5)" />
  <rect
     style="fill-opacity:0;stroke:#000000;stroke-width:1"
     id="0x10aa4d1d0"
     height="26"
     width="16"
     y="93.5"
     x="236.5" />
  <text
     y="106.5"
     x="231.5"
     id="text58905"
     style="text-anchor:end">AllowLabels</text>
  <rect
     x="318.5"
     y="17"
     width="247"
     height="112"
     style="fill-opacity:0;stroke:#000000;stroke-width:2"
     rx="13"
     ry="13"
     inkscape:connector-avoid="false"
     id="rect58909" />
  <path
     d="m 318.5,32 247,0 z"
     id="path58911"
     inkscape:connector-curvature="0"
     style="stroke:#000000;stroke-width:1" />
  <text
     y="30"
     x="441.5"
     id="text58913"
     style="text-anchor:middle">Wrapped OpThresholdMasking*</text>
  <circle
     style="fill:#ffffff;stroke:#000000"
     sodipodi:ry="5"
     sodipodi:rx="5"
     sodipodi:cy="8"
     sodipodi:cx="8"
     d="m 13,8 c 0,2.761424 -2.238576,5 -5,5 C 5.2385763,13 3,10.761424 3,8 3,5.2385763 5.2385763,3 8,3 c 2.761424,0 5,2.2385763 5,5 z"
     class="InputImage"
     id="0x119e89990"
     r="5"
     cy="8"
     cx="8"
     transform="translate(302.5,45.5)" />
  <circle
     style="fill:#ffffff;stroke:#000000"
     sodipodi:ry="5"
     sodipodi:rx="5"
     sodipodi:cy="18"
     sodipodi:cx="8"
     d="m 13,18 c 0,2.761424 -2.238576,5 -5,5 -2.7614237,0 -5,-2.238576 -5,-5 0,-2.761424 2.2385763,-5 5,-5 2.761424,0 5,2.238576 5,5 z"
     class="InputImage"
     id="0x11bffd210"
     r="5"
     cy="18"
     cx="8"
     transform="translate(302.5,45.5)" />
  <rect
     style="fill-opacity:0;stroke:#000000;stroke-width:1"
     id="0x10aa4da50"
     height="26"
     width="16"
     y="45.5"
     x="302.5" />
  <text
     y="58.5"
     x="323.5"
     id="text58920"
     style="text-anchor:start">InputImage</text>
  <circle
     cx="11"
     cy="65.5"
     r="5"
     id="0x10aa4de10"
     class="MinValue"
     d="m 16,65.5 c 0,2.761424 -2.238576,5 -5,5 -2.7614237,0 -5,-2.238576 -5,-5 0,-2.761424 2.2385763,-5 5,-5 2.761424,0 5,2.238576 5,5 z"
     sodipodi:cx="11"
     sodipodi:cy="65.5"
     sodipodi:rx="5"
     sodipodi:ry="5"
     style="fill:#ffffff;stroke:#000000"
     transform="translate(302.5,17)" />
  <text
     y="82.5"
     x="323.5"
     id="text58923"
     style="text-anchor:start">MinValue</text>
  <circle
     cx="11"
     cy="81.5"
     r="5"
     id="0x10aa4f210"
     class="MaxValue"
     d="m 16,81.5 c 0,2.761424 -2.238576,5 -5,5 -2.7614237,0 -5,-2.238576 -5,-5 0,-2.761424 2.2385763,-5 5,-5 2.761424,0 5,2.238576 5,5 z"
     sodipodi:cx="11"
     sodipodi:cy="81.5"
     sodipodi:rx="5"
     sodipodi:ry="5"
     style="fill:#ffffff;stroke:#000000"
     transform="translate(302.5,17)" />
  <text
     y="98.5"
     x="323.5"
     id="text58926"
     style="text-anchor:start">MaxValue</text>
  <circle
     style="fill:#ffffff;stroke:#000000"
     sodipodi:ry="5"
     sodipodi:rx="5"
     sodipodi:cy="8"
     sodipodi:cx="8"
     d="m 13,8 c 0,2.761424 -2.238576,5 -5,5 C 5.2385763,13 3,10.761424 3,8 3,5.2385763 5.2385763,3 8,3 c 2.761424,0 5,2.2385763 5,5 z"
     class="Output"
     id="0x119e8f290"
     r="5"
     cy="8"
     cx="8"
     transform="translate(565.5,49.5)" />
  <circle
     style="fill:#ffffff;stroke:#000000"
     sodipodi:ry="5"
     sodipodi:rx="5"
     sodipodi:cy="18"
     sodipodi:cx="8"
     d="m 13,18 c 0,2.761424 -2.238576,5 -5,5 -2.7614237,0 -5,-2.238576 -5,-5 0,-2.761424 2.2385763,-5 5,-5 2.761424,0 5,2.238576 5,5 z"
     class="Output"
     id="0x11bff9dd0"
     r="5"
     cy="18"
     cx="8"
     transform="translate(565.5,49.5)" />
  <rect
     style="fill-opacity:0;stroke:#000000;stroke-width:1"
     id="0x10aa4f5d0"
     height="26"
     width="16"
     y="49.5"
     x="565.5" />
  <text
     y="62.5"
     x="560.5"
     id="text58933"
     style="text-anchor:end">Output</text>
  <circle
     style="fill:#ffffff;stroke:#000000"
     sodipodi:ry="5"
     sodipodi:rx="5"
     sodipodi:cy="8"
     sodipodi:cx="8"
     d="m 13,8 c 0,2.761424 -2.238576,5 -5,5 C 5.2385763,13 3,10.761424 3,8 3,5.2385763 5.2385763,3 8,3 c 2.761424,0 5,2.2385763 5,5 z"
     class="InvertedOutput"
     id="0x119e8f650"
     r="5"
     cy="8"
     cx="8"
     transform="translate(565.5,85.5)" />
  <circle
     style="fill:#ffffff;stroke:#000000"
     sodipodi:ry="5"
     sodipodi:rx="5"
     sodipodi:cy="18"
     sodipodi:cx="8"
     d="m 13,18 c 0,2.761424 -2.238576,5 -5,5 -2.7614237,0 -5,-2.238576 -5,-5 0,-2.761424 2.2385763,-5 5,-5 2.761424,0 5,2.238576 5,5 z"
     class="InvertedOutput"
     id="0x11c0011d0"
     r="5"
     cy="18"
     cx="8"
     transform="translate(565.5,85.5)" />
  <rect
     style="fill-opacity:0;stroke:#000000;stroke-width:1"
     id="0x10aa4f990"
     height="26"
     width="16"
     y="85.5"
     x="565.5" />
  <text
     y="98.5"
     x="560.5"
     id="text58940"
     style="text-anchor:end">InvertedOutput</text>
  <path
     inkscape:connection-start="#0x10aa4add0"
     inkscape:connection-end="#0x10aa4da50"
     id="pathTo0x10aa4da50"
     style="fill:none;stroke:#000000;stroke-width:1px;stroke-linecap:butt;stroke-linejoin:miter;stroke-opacity:1;marker-end:url(#Arrow1Mend)"
     d="m 252.5,72.560606 50,-12.121212"
     inkscape:connection-start-point="d4"
     inkscape:connection-end-point="d4"
     inkscape:connector-type="polyline"
     inkscape:connector-curvature="0" />
</svg>
