<?xml version="1.0" encoding="UTF-8" standalone="no"?>
<svg
   xmlns:dc="http://purl.org/dc/elements/1.1/"
   xmlns:cc="http://creativecommons.org/ns#"
   xmlns:rdf="http://www.w3.org/1999/02/22-rdf-syntax-ns#"
   xmlns:svg="http://www.w3.org/2000/svg"
   xmlns="http://www.w3.org/2000/svg"
   xmlns:sodipodi="http://sodipodi.sourceforge.net/DTD/sodipodi-0.dtd"
   xmlns:inkscape="http://www.inkscape.org/namespaces/inkscape"
   x="0"
   y="0"
   width="340"
   height="124"
   id="svg71293"
   version="1.1"
   inkscape:version="0.48.2 r9819"
   sodipodi:docname="Wrapped OpFeatureSelection.svg">
  <metadata
     id="metadata71347">
    <rdf:RDF>
      <cc:Work
         rdf:about="">
        <dc:format>image/svg+xml</dc:format>
        <dc:type
           rdf:resource="http://purl.org/dc/dcmitype/StillImage" />
        <dc:title></dc:title>
      </cc:Work>
    </rdf:RDF>
  </metadata>
  <sodipodi:namedview
     pagecolor="#ffffff"
     bordercolor="#666666"
     borderopacity="1"
     objecttolerance="10"
     gridtolerance="10"
     guidetolerance="10"
     inkscape:pageopacity="0"
     inkscape:pageshadow="2"
     inkscape:window-width="640"
     inkscape:window-height="480"
     id="namedview71345"
     showgrid="false"
     fit-margin-top="0"
     fit-margin-left="0"
     fit-margin-right="0"
     fit-margin-bottom="0"
     inkscape:zoom="0.88628571"
     inkscape:cx="138.92735"
     inkscape:cy="90.460219"
     inkscape:window-x="0"
     inkscape:window-y="0"
     inkscape:window-maximized="0"
     inkscape:current-layer="svg71293" />
  <defs
     id="defs31674">
    <marker
       inkscape:stockid="Arrow2Lstart"
       orient="auto"
       refY="0"
       refX="0"
       id="Arrow2Lstart"
       style="overflow:visible">
      <path
         id="path26427"
         style="font-size:12px;fill-rule:evenodd;stroke-width:0.625;stroke-linejoin:round"
         d="M 8.7185878,4.0337352 -2.2072895,0.01601326 8.7185884,-4.0017078 c -1.7454984,2.3720609 -1.7354408,5.6174519 -6e-7,8.035443 z"
         transform="matrix(1.1,0,0,1.1,1.1,0)"
         inkscape:connector-curvature="0" />
    </marker>
    <marker
       inkscape:stockid="Arrow1Mend"
       orient="auto"
       refY="0"
       refX="0"
       id="Arrow1Mend"
       style="overflow:visible">
      <path
         id="path26418"
         d="M 0,0 5,-5 -12.5,0 5,5 0,0 z"
         style="fill-rule:evenodd;stroke:#000000;stroke-width:1pt;marker-start:none"
         transform="matrix(-0.4,0,0,-0.4,-4,0)"
         inkscape:connector-curvature="0" />
    </marker>
    <marker
       inkscape:stockid="Arrow1Lend"
       orient="auto"
       refY="0"
       refX="0"
       id="Arrow1Lend"
       style="overflow:visible">
      <path
         id="path26412"
         d="M 0,0 5,-5 -12.5,0 5,5 0,0 z"
         style="fill-rule:evenodd;stroke:#000000;stroke-width:1pt;marker-start:none"
         transform="matrix(-0.8,0,0,-0.8,-10,0)"
         inkscape:connector-curvature="0" />
    </marker>
  </defs>
  <rect
     id="rect71304"
     inkscape:connector-avoid="false"
     ry="13"
     rx="13"
     style="fill-opacity:0;stroke:#000000;stroke-width:2"
     height="122"
     width="301"
     y="1"
     x="16.5" />
  <path
     style="stroke:#000000;stroke-width:1"
     inkscape:connector-curvature="0"
     id="path71306"
     d="m 16.5,16 301,0 z" />
  <text
     style="text-anchor:middle"
     id="text71308"
     x="166.5"
     y="14">Wrapped OpFeatureSelection</text>
  <circle
     cx="8"
     cy="8"
     r="5"
     id="0x127e78dd0"
     class="InputImage"
     d="m 13,8 c 0,2.761424 -2.238576,5 -5,5 C 5.2385763,13 3,10.761424 3,8 3,5.2385763 5.2385763,3 8,3 c 2.761424,0 5,2.2385763 5,5 z"
     sodipodi:cx="8"
     sodipodi:cy="8"
     sodipodi:rx="5"
     sodipodi:ry="5"
     style="fill:#ffffff;stroke:#000000"
     transform="translate(0.5,28.5)" />
  <rect
     x="0.5"
     y="28.5"
     width="16"
     height="16"
     id="0x113feee90"
     style="fill-opacity:0;stroke:#000000;stroke-width:1" />
  <text
     style="text-anchor:start"
     id="text71314"
     x="21.5"
     y="36.5">InputImage</text>
  <circle
     style="fill:#ffffff;stroke:#000000"
     sodipodi:ry="5"
     sodipodi:rx="5"
     sodipodi:cy="53.5"
     sodipodi:cx="11"
     d="m 16,53.5 c 0,2.761424 -2.238576,5 -5,5 -2.7614237,0 -5,-2.238576 -5,-5 0,-2.761424 2.2385763,-5 5,-5 2.761424,0 5,2.238576 5,5 z"
     class="Scales"
     id="0x113ff1290"
     r="5"
     cy="53.5"
     cx="11"
     transform="translate(0.5,1)" />
  <text
     style="text-anchor:start"
     id="text71317"
     x="21.5"
     y="54.5">Scales</text>
  <circle
     style="fill:#ffffff;stroke:#000000"
     sodipodi:ry="5"
     sodipodi:rx="5"
     sodipodi:cy="68.5"
     sodipodi:cx="11"
     d="m 16,68.5 c 0,2.761424 -2.238576,5 -5,5 -2.7614237,0 -5,-2.238576 -5,-5 0,-2.761424 2.2385763,-5 5,-5 2.761424,0 5,2.238576 5,5 z"
     class="FeatureIds"
     id="0x113ff1650"
     r="5"
     cy="68.5"
     cx="11"
     transform="translate(0.5,1)" />
  <text
     style="text-anchor:start"
     id="text71320"
     x="21.5"
     y="69.5">FeatureIds</text>
  <circle
     style="fill:#ffffff;stroke:#000000"
     sodipodi:ry="5"
     sodipodi:rx="5"
     sodipodi:cy="83.5"
     sodipodi:cx="11"
     d="m 16,83.5 c 0,2.761424 -2.238576,5 -5,5 -2.7614237,0 -5,-2.238576 -5,-5 0,-2.761424 2.2385763,-5 5,-5 2.761424,0 5,2.238576 5,5 z"
     class="SelectionMatrix"
     id="0x113ff1a10"
     r="5"
     cy="83.5"
     cx="11"
     transform="translate(0.5,1)" />
  <text
     style="text-anchor:start"
     id="text71323"
     x="21.5"
     y="84.5">SelectionMatrix</text>
  <circle
     cx="8"
     cy="8"
     r="5"
     id="0x124df0050"
     class="OutputImage"
     d="m 13,8 c 0,2.761424 -2.238576,5 -5,5 C 5.2385763,13 3,10.761424 3,8 3,5.2385763 5.2385763,3 8,3 c 2.761424,0 5,2.2385763 5,5 z"
     sodipodi:cx="8"
     sodipodi:cy="8"
     sodipodi:rx="5"
     sodipodi:ry="5"
     style="fill:#ffffff;stroke:#000000"
     transform="translate(317.5,31.5)" />
  <rect
     x="317.5"
     y="31.5"
     width="16"
     height="16"
     id="0x113ff1dd0"
     style="fill-opacity:0;stroke:#000000;stroke-width:1" />
  <text
     style="text-anchor:end"
     id="text71329"
     x="312.5"
     y="39.5">OutputImage</text>
  <circle
     cx="8"
     cy="8"
     r="5"
     id="0x113645d90"
     class="CachedOutputImage"
     d="m 13,8 c 0,2.761424 -2.238576,5 -5,5 C 5.2385763,13 3,10.761424 3,8 3,5.2385763 5.2385763,3 8,3 c 2.761424,0 5,2.2385763 5,5 z"
     sodipodi:cx="8"
     sodipodi:cy="8"
     sodipodi:rx="5"
     sodipodi:ry="5"
     style="fill:#ffffff;stroke:#000000"
     transform="translate(317.5,55.5)" />
  <rect
     x="317.5"
     y="55.5"
     width="16"
     height="16"
     id="0x113ff31d0"
     style="fill-opacity:0;stroke:#000000;stroke-width:1" />
  <text
     style="text-anchor:end"
     id="text71335"
     x="312.5"
     y="63.5">CachedOutputImage</text>
  <rect
     style="fill-opacity:0;stroke:#000000;stroke-width:1"
     id="0x11364d550"
     height="6"
     width="16"
     y="82.5"
     x="320.5" />
  <rect
     x="317.5"
     y="79.5"
     width="22"
     height="15"
     id="0x113ff3590"
     style="fill-opacity:0;stroke:#000000;stroke-width:1" />
  <text
     style="text-anchor:end"
     id="text71343"
     x="312.5"
     y="86.5">FeatureLayers</text>
</svg>
