<?xml version="1.0" encoding="UTF-8" standalone="no"?>
<svg
   xmlns:dc="http://purl.org/dc/elements/1.1/"
   xmlns:cc="http://creativecommons.org/ns#"
   xmlns:rdf="http://www.w3.org/1999/02/22-rdf-syntax-ns#"
   xmlns:svg="http://www.w3.org/2000/svg"
   xmlns="http://www.w3.org/2000/svg"
   xmlns:sodipodi="http://sodipodi.sourceforge.net/DTD/sodipodi-0.dtd"
   xmlns:inkscape="http://www.inkscape.org/namespaces/inkscape"
   x="0"
   y="0"
   width="280"
   height="114"
   id="svg58851"
   version="1.1"
   inkscape:version="0.48.2 r9819"
   sodipodi:docname="ThresholdMasking-Top-Level-Operator.svg">
  <metadata
     id="metadata58951">
    <rdf:RDF>
      <cc:Work
         rdf:about="">
        <dc:format>image/svg+xml</dc:format>
        <dc:type
           rdf:resource="http://purl.org/dc/dcmitype/StillImage" />
        <dc:title></dc:title>
      </cc:Work>
    </rdf:RDF>
  </metadata>
  <sodipodi:namedview
     pagecolor="#ffffff"
     bordercolor="#666666"
     borderopacity="1"
     objecttolerance="10"
     gridtolerance="10"
     guidetolerance="10"
     inkscape:pageopacity="0"
     inkscape:pageshadow="2"
     inkscape:window-width="1279"
     inkscape:window-height="768"
     id="namedview58949"
     showgrid="false"
     inkscape:zoom="2.2202879"
     inkscape:cx="73.983072"
     inkscape:cy="86.893029"
     inkscape:window-x="0"
     inkscape:window-y="0"
     inkscape:window-maximized="0"
     inkscape:current-layer="svg58851"
     fit-margin-top="0"
     fit-margin-left="0"
     fit-margin-right="0"
     fit-margin-bottom="0" />
  <defs
     id="defs31674">
    <marker
       inkscape:stockid="Arrow2Lstart"
       orient="auto"
       refY="0"
       refX="0"
       id="Arrow2Lstart"
       style="overflow:visible">
      <path
         id="path26427"
         style="font-size:12px;fill-rule:evenodd;stroke-width:0.625;stroke-linejoin:round"
         d="M 8.7185878,4.0337352 -2.2072895,0.01601326 8.7185884,-4.0017078 c -1.7454984,2.3720609 -1.7354408,5.6174519 -6e-7,8.035443 z"
         transform="matrix(1.1,0,0,1.1,1.1,0)"
         inkscape:connector-curvature="0" />
    </marker>
    <marker
       inkscape:stockid="Arrow1Mend"
       orient="auto"
       refY="0"
       refX="0"
       id="Arrow1Mend"
       style="overflow:visible">
      <path
         id="path26418"
         d="M 0,0 5,-5 -12.5,0 5,5 0,0 z"
         style="fill-rule:evenodd;stroke:#000000;stroke-width:1pt;marker-start:none"
         transform="matrix(-0.4,0,0,-0.4,-4,0)"
         inkscape:connector-curvature="0" />
    </marker>
    <marker
       inkscape:stockid="Arrow1Lend"
       orient="auto"
       refY="0"
       refX="0"
       id="Arrow1Lend"
       style="overflow:visible">
      <path
         id="path26412"
         d="M 0,0 5,-5 -12.5,0 5,5 0,0 z"
         style="fill-rule:evenodd;stroke:#000000;stroke-width:1pt;marker-start:none"
         transform="matrix(-0.8,0,0,-0.8,-10,0)"
         inkscape:connector-curvature="0" />
    </marker>
  </defs>
  <rect
     x="16.5"
     y="1"
     width="247"
     height="112"
     style="fill-opacity:0;stroke:#000000;stroke-width:2"
     rx="13"
     ry="13"
     inkscape:connector-avoid="false"
     id="rect58909" />
  <path
     d="m 16.5,16 247,0 z"
     id="path58911"
     inkscape:connector-curvature="0"
     style="stroke:#000000;stroke-width:1" />
  <text
     y="14"
     x="139.5"
     id="text58913"
     style="text-anchor:middle">Wrapped OpThresholdMasking</text>
  <circle
     style="fill:#ffffff;stroke:#000000"
     sodipodi:ry="5"
     sodipodi:rx="5"
     sodipodi:cy="8"
     sodipodi:cx="8"
     d="m 13,8 c 0,2.761424 -2.238576,5 -5,5 C 5.2385763,13 3,10.761424 3,8 3,5.2385763 5.2385763,3 8,3 c 2.761424,0 5,2.2385763 5,5 z"
     class="InputImage"
     id="0x119e89990"
     r="5"
     cy="8"
     cx="8"
     transform="translate(0.5,29.5)" />
  <rect
     style="fill-opacity:0;stroke:#000000;stroke-width:0.78650397"
     id="0x10aa4da50"
     height="16.083302"
     width="16"
     y="29.5"
     x="0.5" />
  <text
     y="42.5"
     x="21.5"
     id="text58920"
     style="text-anchor:start">InputImage</text>
  <circle
     cx="11"
     cy="65.5"
     r="5"
     id="0x10aa4de10"
     class="MinValue"
     d="m 16,65.5 c 0,2.761424 -2.238576,5 -5,5 -2.7614237,0 -5,-2.238576 -5,-5 0,-2.761424 2.2385763,-5 5,-5 2.761424,0 5,2.238576 5,5 z"
     sodipodi:cx="11"
     sodipodi:cy="65.5"
     sodipodi:rx="5"
     sodipodi:ry="5"
     style="fill:#ffffff;stroke:#000000"
     transform="translate(0.5,1)" />
  <text
     y="66.5"
     x="21.5"
     id="text58923"
     style="text-anchor:start">MinValue</text>
  <circle
     cx="11"
     cy="81.5"
     r="5"
     id="0x10aa4f210"
     class="MaxValue"
     d="m 16,81.5 c 0,2.761424 -2.238576,5 -5,5 -2.7614237,0 -5,-2.238576 -5,-5 0,-2.761424 2.2385763,-5 5,-5 2.761424,0 5,2.238576 5,5 z"
     sodipodi:cx="11"
     sodipodi:cy="81.5"
     sodipodi:rx="5"
     sodipodi:ry="5"
     style="fill:#ffffff;stroke:#000000"
     transform="translate(0.5,1)" />
  <text
     y="82.5"
     x="21.5"
     id="text58926"
     style="text-anchor:start">MaxValue</text>
  <circle
     style="fill:#ffffff;stroke:#000000"
     sodipodi:ry="5"
     sodipodi:rx="5"
     sodipodi:cy="8"
     sodipodi:cx="8"
     d="m 13,8 c 0,2.761424 -2.238576,5 -5,5 C 5.2385763,13 3,10.761424 3,8 3,5.2385763 5.2385763,3 8,3 c 2.761424,0 5,2.2385763 5,5 z"
     class="Output"
     id="0x119e8f290"
     r="5"
     cy="8"
     cx="8"
     transform="translate(263.5,33.5)" />
  <rect
     style="fill-opacity:0;stroke:#000000;stroke-width:0.78650397"
     id="0x10aa4f5d0"
     height="16.083302"
     width="16"
     y="33.5"
     x="263.5" />
  <text
     y="46.5"
     x="258.5"
     id="text58933"
     style="text-anchor:end">Output</text>
  <circle
     style="fill:#ffffff;stroke:#000000"
     sodipodi:ry="5"
     sodipodi:rx="5"
     sodipodi:cy="8"
     sodipodi:cx="8"
     d="m 13,8 c 0,2.761424 -2.238576,5 -5,5 C 5.2385763,13 3,10.761424 3,8 3,5.2385763 5.2385763,3 8,3 c 2.761424,0 5,2.2385763 5,5 z"
     class="InvertedOutput"
     id="0x119e8f650"
     r="5"
     cy="8"
     cx="8"
     transform="translate(263.5,69.5)" />
  <rect
     style="fill-opacity:0;stroke:#000000;stroke-width:0.77424592"
     id="0x10aa4f990"
     height="15.585876"
     width="16"
     y="69.5"
     x="263.5" />
  <text
     y="82.5"
     x="258.5"
     id="text58940"
     style="text-anchor:end">InvertedOutput</text>
</svg>
