<?xml version="1.0" encoding="UTF-8" standalone="no"?>
<svg
   xmlns:dc="http://purl.org/dc/elements/1.1/"
   xmlns:cc="http://creativecommons.org/ns#"
   xmlns:rdf="http://www.w3.org/1999/02/22-rdf-syntax-ns#"
   xmlns:svg="http://www.w3.org/2000/svg"
   xmlns="http://www.w3.org/2000/svg"
   xmlns:sodipodi="http://sodipodi.sourceforge.net/DTD/sodipodi-0.dtd"
   xmlns:inkscape="http://www.inkscape.org/namespaces/inkscape"
   x="0"
   y="0"
   width="508.99741"
   height="107.31704"
   id="svg3908"
   version="1.1"
   inkscape:version="0.48.2 r9819"
   sodipodi:docname="twoSums.svg">
  <metadata
     id="metadata3936">
    <rdf:RDF>
      <cc:Work
         rdf:about="">
        <dc:format>image/svg+xml</dc:format>
        <dc:type
           rdf:resource="http://purl.org/dc/dcmitype/StillImage" />
        <dc:title />
      </cc:Work>
    </rdf:RDF>
  </metadata>
  <sodipodi:namedview
     pagecolor="#ffffff"
     bordercolor="#666666"
     borderopacity="1"
     objecttolerance="10"
     gridtolerance="10"
     guidetolerance="10"
     inkscape:pageopacity="0"
     inkscape:pageshadow="2"
     inkscape:window-width="1386"
     inkscape:window-height="841"
     id="namedview3934"
     showgrid="false"
     inkscape:zoom="2.1055668"
     inkscape:cx="162.63015"
     inkscape:cy="56.349088"
     inkscape:window-x="0"
     inkscape:window-y="0"
     inkscape:window-maximized="0"
     inkscape:current-layer="g3917"
     fit-margin-top="0"
     fit-margin-left="0"
     fit-margin-right="0"
     fit-margin-bottom="0" />
  <defs
     id="defs31674">
    <marker
       inkscape:stockid="Arrow2Lstart"
       orient="auto"
       refY="0"
       refX="0"
       id="Arrow2Lstart"
       style="overflow:visible">
      <path
         id="path26427"
         style="font-size:12px;fill-rule:evenodd;stroke-width:0.625;stroke-linejoin:round"
         d="M 8.7185878,4.0337352 -2.2072895,0.01601326 8.7185884,-4.0017078 c -1.7454984,2.3720609 -1.7354408,5.6174519 -6e-7,8.035443 z"
         transform="matrix(1.1,0,0,1.1,1.1,0)"
         inkscape:connector-curvature="0" />
    </marker>
    <marker
       inkscape:stockid="Arrow1Mend"
       orient="auto"
       refY="0"
       refX="0"
       id="Arrow1Mend"
       style="overflow:visible">
      <path
         id="path26418"
         d="M 0,0 5,-5 -12.5,0 5,5 0,0 z"
         style="fill-rule:evenodd;stroke:#000000;stroke-width:1pt;marker-start:none"
         transform="matrix(-0.4,0,0,-0.4,-4,0)"
         inkscape:connector-curvature="0" />
    </marker>
    <marker
       inkscape:stockid="Arrow1Lend"
       orient="auto"
       refY="0"
       refX="0"
       id="Arrow1Lend"
       style="overflow:visible">
      <path
         id="path26412"
         d="M 0,0 5,-5 -12.5,0 5,5 0,0 z"
         style="fill-rule:evenodd;stroke:#000000;stroke-width:1pt;marker-start:none"
         transform="matrix(-0.8,0,0,-0.8,-10,0)"
         inkscape:connector-curvature="0" />
    </marker>
  </defs>
  <g
     class="OpSum"
     transform="translate(-5.1863523,-35.23769)"
     id="g3917">
    <rect
       x="106.02988"
       y="36.23769"
       width="176"
       height="76"
       style="fill-opacity:0;stroke:#000000;stroke-width:2"
       rx="13"
       ry="13"
       inkscape:connector-avoid="false"
       id="rect3919" />
    <path
       d="m 106.02988,51.237689 176,0 z"
       id="path3921"
       inkscape:connector-curvature="0"
       style="stroke:#000000;stroke-width:1" />
    <text
       y="49.23769"
       x="194.02988"
       id="text3923"
       style="text-anchor:middle">First Sum</text>
    <circle
       cx="5"
       cy="35.5"
       r="5"
       id="0x1090192d0"
       class="InputA"
       d="m 10,35.5 c 0,2.761424 -2.2385763,5 -5,5 -2.7614237,0 -5,-2.238576 -5,-5 0,-2.761424 2.2385763,-5 5,-5 2.7614237,0 5,2.238576 5,5 z"
       sodipodi:cx="5"
       sodipodi:cy="35.5"
       sodipodi:rx="5"
       sodipodi:ry="5"
       transform="translate(96.029876,36.237689)"
       style="fill:#ffffff;stroke:#000000" />
    <text
       y="71.737686"
       x="111.02988"
       id="text3926"
       style="text-anchor:start">InputA</text>
    <circle
       cx="5"
       cy="53.5"
       r="5"
       id="0x109019690"
       class="InputB"
       d="m 10,53.5 c 0,2.761424 -2.2385763,5 -5,5 -2.7614237,0 -5,-2.238576 -5,-5 0,-2.761424 2.2385763,-5 5,-5 2.7614237,0 5,2.238576 5,5 z"
       sodipodi:cx="5"
       sodipodi:cy="53.5"
       sodipodi:rx="5"
       sodipodi:ry="5"
       transform="translate(96.029876,36.237689)"
       style="fill:#ffffff;stroke:#000000" />
    <text
       y="89.737686"
       x="111.02988"
       id="text3929"
       style="text-anchor:start">InputB</text>
    <circle
       cx="191"
       cy="50.5"
       r="5"
       id="0x109019a50"
       class="Output"
       d="m 196,50.5 c 0,2.761424 -2.23858,5 -5,5 -2.76142,0 -5,-2.238576 -5,-5 0,-2.761424 2.23858,-5 5,-5 2.76142,0 5,2.238576 5,5 z"
       sodipodi:cx="191"
       sodipodi:cy="50.5"
       sodipodi:rx="5"
       sodipodi:ry="5"
       transform="translate(96.029876,36.237689)"
       style="fill:#ffffff;stroke:#000000" />
    <text
       y="86.737686"
       x="277.02988"
       id="text3932"
       style="text-anchor:end">Output</text>
    <rect
       id="rect3994"
       inkscape:connector-avoid="false"
       ry="13"
       rx="13"
       style="fill-opacity:0;stroke:#000000;stroke-width:2"
       height="76"
       width="176"
       y="36.23769"
       x="327.68375" />
    <path
       id="path3996"
       d="m 327.68375,51.237689 176,0 z"
       inkscape:connector-curvature="0"
       style="stroke:#000000;stroke-width:1" />
    <text
       style="text-anchor:middle"
       id="text3998"
       x="415.68375"
       y="49.23769">Second Sum</text>
    <circle
       d="m 10,35.5 c 0,2.761424 -2.2385763,5 -5,5 -2.7614237,0 -5,-2.238576 -5,-5 0,-2.761424 2.2385763,-5 5,-5 2.7614237,0 5,2.238576 5,5 z"
       class="InputA"
       id="circle4000"
       r="5"
       cy="35.5"
       cx="5"
       sodipodi:cx="5"
       sodipodi:cy="35.5"
       sodipodi:rx="5"
       sodipodi:ry="5"
       transform="translate(317.68375,36.237689)"
       style="fill:#ffffff;stroke:#000000" />
    <text
       id="text4002"
       x="332.68375"
       y="71.737686"
       style="text-anchor:start">InputA</text>
    <circle
       d="m 10,53.5 c 0,2.761424 -2.2385763,5 -5,5 -2.7614237,0 -5,-2.238576 -5,-5 0,-2.761424 2.2385763,-5 5,-5 2.7614237,0 5,2.238576 5,5 z"
       class="InputB"
       id="circle4004"
       r="5"
       cy="53.5"
       cx="5"
       sodipodi:cx="5"
       sodipodi:cy="53.5"
       sodipodi:rx="5"
       sodipodi:ry="5"
       transform="translate(317.68375,36.237689)"
       style="fill:#ffffff;stroke:#000000" />
    <text
       id="text4006"
       x="332.68375"
       y="89.737686"
       style="text-anchor:start">InputB</text>
    <circle
       d="m 196,50.5 c 0,2.761424 -2.23858,5 -5,5 -2.76142,0 -5,-2.238576 -5,-5 0,-2.761424 2.23858,-5 5,-5 2.76142,0 5,2.238576 5,5 z"
       class="Output"
       id="circle4008"
       r="5"
       cy="50.5"
       cx="191"
       sodipodi:cx="191"
       sodipodi:cy="50.5"
       sodipodi:rx="5"
       sodipodi:ry="5"
       transform="translate(317.68375,36.237689)"
       style="fill:#ffffff;stroke:#000000" />
    <text
       id="text4010"
       x="498.68375"
       y="86.737686"
       style="text-anchor:end">Output</text>
    <path
       style="fill:none;stroke:#000000;stroke-width:1px;stroke-linecap:butt;stroke-linejoin:miter;stroke-opacity:1;marker-end:url(#Arrow1Mend)"
       d="M 291.63981,84.798236 318.07382,73.677142"
       id="path4012"
       inkscape:connector-type="polyline"
       inkscape:connector-curvature="0"
       inkscape:connection-start="#0x109019a50"
       inkscape:connection-start-point="d4"
       inkscape:connection-end="#circle4000"
       inkscape:connection-end-point="d4" />
    <rect
       style="fill:#ffffff;fill-opacity:1;stroke:#000000;stroke-width:1.5;stroke-linecap:butt;stroke-linejoin:miter;stroke-miterlimit:1;stroke-opacity:1;stroke-dasharray:none"
       id="rect4014"
       width="67.145203"
       height="15.236299"
       x="7.1442752"
       y="61.944546" />
    <text
       xml:space="preserve"
       style="font-size:24px;font-style:normal;font-variant:normal;font-weight:normal;font-stretch:normal;text-align:start;line-height:125%;letter-spacing:0px;word-spacing:0px;writing-mode:lr-tb;text-anchor:start;opacity:0.98999999;fill:#000000;fill-opacity:1;stroke:none;font-family:Sans;-inkscape-font-specification:Sans"
       x="10.534691"
       y="72.582504"
       id="text4802"
       sodipodi:linespacing="125%"><tspan
         sodipodi:role="line"
         id="tspan4804"
         x="10.534691"
         y="72.582504"
         style="font-size:10px">somesource</tspan></text>
    <rect
       y="85.499046"
       x="5.9363523"
       height="15.236299"
       width="67.145203"
       id="rect4806"
       style="fill:#ffffff;fill-opacity:1;stroke:#000000;stroke-width:1.5;stroke-linecap:butt;stroke-linejoin:miter;stroke-miterlimit:1;stroke-opacity:1;stroke-dasharray:none" />
    <text
       sodipodi:linespacing="125%"
       id="text4808"
       y="96.137001"
       x="9.3267679"
       style="font-size:24px;font-style:normal;font-variant:normal;font-weight:normal;font-stretch:normal;text-align:start;line-height:125%;letter-spacing:0px;word-spacing:0px;writing-mode:lr-tb;text-anchor:start;opacity:0.98999999;fill:#000000;fill-opacity:1;stroke:none;font-family:Sans;-inkscape-font-specification:Sans"
       xml:space="preserve"><tspan
         style="font-size:10px"
         y="96.137001"
         x="9.3267679"
         id="tspan4810"
         sodipodi:role="line">somesource</tspan></text>
    <rect
       style="fill:#ffffff;fill-opacity:1;stroke:#000000;stroke-width:1.5;stroke-linecap:butt;stroke-linejoin:miter;stroke-miterlimit:1;stroke-opacity:1;stroke-dasharray:none"
       id="rect4812"
       width="67.145203"
       height="15.236299"
       x="213.6991"
       y="126.56843" />
    <text
       xml:space="preserve"
       style="font-size:24px;font-style:normal;font-variant:normal;font-weight:normal;font-stretch:normal;text-align:start;line-height:125%;letter-spacing:0px;word-spacing:0px;writing-mode:lr-tb;text-anchor:start;opacity:0.98999999;fill:#000000;fill-opacity:1;stroke:none;font-family:Sans;-inkscape-font-specification:Sans"
       x="217.08952"
       y="137.20638"
       id="text4814"
       sodipodi:linespacing="125%"><tspan
         sodipodi:role="line"
         id="tspan4816"
         x="217.08952"
         y="137.20638"
         style="font-size:10px">somesource</tspan></text>
    <path
       style="fill:none;stroke:#000000;stroke-width:1px;stroke-linecap:butt;stroke-linejoin:miter;stroke-opacity:1;marker-end:url(#Arrow1Mend)"
       d="m 83.081555,101.27296 22.955715,-1.26101"
       id="path4818"
       inkscape:connector-type="polyline"
       inkscape:connector-curvature="0"
       inkscape:connection-start="#rect4806"
       inkscape:connection-start-point="d4"
       inkscape:connection-end="#0x109019690"
       inkscape:connection-end-point="d4"
       transform="translate(-10,-10)" />
    <path
       style="fill:none;stroke:#000000;stroke-width:1px;stroke-linecap:butt;stroke-linejoin:miter;stroke-opacity:1;marker-end:url(#Arrow1Mend)"
       d="M 275.9352,92.594163 313.45479,58.399095"
       id="path18056"
       inkscape:connector-curvature="0"
       transform="translate(5.1863523,35.23769)" />
    <path
       style="fill:none;stroke:#000000;stroke-width:1px;stroke-linecap:butt;stroke-linejoin:miter;stroke-opacity:1;marker-end:url(#Arrow1Mend)"
       d="M 69.103126,35.535693 90.84671,36.319805"
       id="path18244"
       inkscape:connector-type="polyline"
       inkscape:connector-curvature="0"
       inkscape:connection-start="#rect4014"
       inkscape:connection-start-point="d4"
       inkscape:connection-end="#0x1090192d0"
       inkscape:connection-end-point="d4"
       transform="translate(5.1863523,35.23769)" />
  </g>
</svg>
